<?xml version="1.0" encoding="UTF-8"?>
<svg width="1200pt" height="1200pt" version="1.1" viewBox="0 0 1200 1200" xmlns="http://www.w3.org/2000/svg">
 <g>
  <path d="m1200 600c0 214.36-114.36 412.44-300 519.62-185.64 107.18-414.36 107.18-600 0-185.64-107.18-300-305.26-300-519.62s114.36-412.44 300-519.62c185.64-107.18 414.36-107.18 600 0 185.64 107.18 300 305.26 300 519.62" fill="#edd116"/>
  <path d="m600 244.06-12.09 37.031h-38.543l31.742 22.672-12.848 37.031 31.738-22.672 31.742 22.672-12.094-37.031 30.984-22.672h-38.539z"/>
  <path d="m445.84 284.87-11.336 37.031h-39.297l31.738 22.672-12.09 37.031 30.984-22.672 31.738 22.672-12.09-37.031 31.738-22.672h-39.297z"/>
  <path d="m754.17 284.87-12.094 37.031h-39.297l31.742 22.672-12.094 37.031 31.742-22.672 30.984 22.672-12.094-37.031 31.742-22.672h-38.543z"/>
  <path d="m333.23 398.23-11.336 36.273h-39.297l31.738 23.426-12.09 36.277 30.984-22.672 31.738 22.672-12.09-37.031 31.742-21.914h-39.301z"/>
  <path d="m835.03 494.2 31.742-22.672 30.984 22.672-12.094-37.031 31.742-21.914h-38.543l-12.09-37.031-12.094 36.273h-39.297l31.742 23.426z"/>
  <path d="m291.67 625.7 31.738 22.672-12.09-37.031 31.738-22.672h-39.297l-12.09-37.027-11.336 37.027h-39.297l31.738 22.672-12.09 37.031z"/>
  <path d="m958.96 588.66h-39.297l-11.336-37.027-12.09 37.027h-39.297l31.738 22.672-12.09 37.031 31.738-22.672 30.984 22.672-12.09-37.031z"/>
  <path d="m878.86 742.07-12.09-37.027-12.094 37.027h-39.297l31.742 22.672-12.094 37.031 31.742-22.672 30.984 22.672-12.094-37.031 31.742-22.672z"/>
  <path d="m345.32 742.07-12.09-37.027-11.336 37.027h-39.297l31.738 22.672-12.09 37.031 30.984-22.672 31.738 22.672-12.09-37.031 31.742-22.672z"/>
  <path d="m457.93 855.43-12.09-37.031-11.336 37.031h-39.297l31.738 22.672-12.09 37.027 30.984-23.426 31.738 23.426-12.09-37.027 31.738-22.672z"/>
  <path d="m766.26 855.43-12.09-37.031-12.094 37.031h-39.297l31.742 22.672-12.094 37.027 31.742-23.426 30.984 23.426-12.094-37.027 31.742-22.672z"/>
  <path d="m612.09 896.24-12.094-37.031-12.09 37.031h-38.543l31.742 22.672-12.848 37.027 31.738-22.668 31.742 22.668-12.094-37.027 30.984-22.672z"/>
 </g>
</svg>
