<?xml version="1.0" encoding="UTF-8"?>
<svg width="1200pt" height="1200pt" version="1.1" viewBox="0 0 1200 1200" xmlns="http://www.w3.org/2000/svg">
 <g>
  <path d="m1200 600c0 214.36-114.36 412.44-300 519.62-185.64 107.18-414.36 107.18-600 0-185.64-107.18-300-305.26-300-519.62s114.36-412.44 300-519.62c185.64-107.18 414.36-107.18 600 0 185.64 107.18 300 305.26 300 519.62" fill="#edd116"/>
  <path d="m518.71 312.65c-6.043 0.60547-10.641 5.6914-10.633 11.762v135.82h-238.74c-6.5234 0.027343-11.789 5.332-11.762 11.852v296.95c-0.027343 6.5234 5.2383 11.828 11.762 11.855h51.613v94.672c0 4.7695 2.8711 9.0703 7.2734 10.898 4.4062 1.832 9.4766 0.83594 12.859-2.5273l103.02-103.04h235.95c3.1367-0.007813 6.1406-1.2578 8.3516-3.4844 2.2109-2.2227 3.4453-5.2344 3.4336-8.3711v-135.79h64.066l102.93 103.02v0.003906c3.375 3.4258 8.4883 4.4688 12.934 2.6289 4.4453-1.8398 7.3281-6.1914 7.293-11v-94.648h51.523c6.5195 0.023437 11.828-5.2422 11.852-11.762v-297.07c-0.023438-6.5234-5.332-11.789-11.852-11.762h-410.65c-0.41016-0.023438-0.81641-0.023438-1.2227 0zm13.008 23.617h387.08v273.36h-51.594c-6.5195 0.027344-11.785 5.3359-11.762 11.855v77.996l-86.301-86.371v0.003906c-2.2148-2.2305-5.2266-3.4805-8.3711-3.4805h-229.05zm197.83 48.062c-8.2188-0.40234-16.57 0.96094-24.469 4.2461-21.062 8.7578-34.871 29.402-34.777 52.215l-0.003906-0.003907c-0.058594 3.1758 1.1641 6.2461 3.3945 8.5078 2.2305 2.2617 5.2812 3.5312 8.457 3.5195 3.1797-0.011718 6.2188-1.3047 8.4336-3.582 2.2109-2.2812 3.4141-5.3594 3.332-8.5352-0.054687-13.305 7.9414-25.219 20.227-30.328s26.352-2.2773 35.746 7.1484c9.3945 9.4219 12.105 23.453 6.9648 35.723-4.9805 11.883-16.379 19.551-29.176 19.949v0.003906c-0.078125-0.007812-0.15625-0.015624-0.23047-0.023437-0.42187-0.039063-0.84766-0.050781-1.2695-0.042969-6.0781 0.10938-11.082 4.8203-11.555 10.883-0.007813 0.074219-0.015625 0.14844-0.023438 0.22266v0.089844 0.22266c-0.007812 0.10547-0.015625 0.21094-0.023437 0.3125v0.3125 0.26953 27.281c-0.070313 3.1797 1.1445 6.25 3.3633 8.5195 2.2227 2.2734 5.2656 3.5547 8.4453 3.5547 3.1797 0 6.2227-1.2812 8.4453-3.5547 2.2188-2.2695 3.4336-5.3398 3.3633-8.5195v-17.113c17.883-3.7383 33.203-15.883 40.453-33.188 8.8164-21.039 4.0703-45.469-12.039-61.621-10.066-10.094-23.363-15.754-37.062-16.445zm-448.36 99.512h226.89v137.64c0.003906 0.39062 0.027343 0.78516 0.070312 1.1758 0.58203 6.0664 5.6875 10.695 11.785 10.68h148.27v123.94h-229.06c-3.1094 0.023437-6.0859 1.2734-8.2812 3.4805l-86.301 86.207v-77.93l0.003906 0.003906c-0.027344-6.5234-5.3359-11.789-11.855-11.766h-51.523zm445.25 50.137c-7.5117 0-13.859 6.2773-13.859 13.793 0 7.5117 6.3477 13.883 13.859 13.883 7.5117 0 13.77-6.3711 13.77-13.883 0-7.5117-6.2539-13.793-13.77-13.793zm-378.04 0.17969h0.003906c-6.4102 0.48047-11.266 5.9883-10.934 12.406 0.33203 6.418 5.7305 11.398 12.156 11.211h83.945c3.1797 0.074218 6.2539-1.1367 8.5273-3.3594 2.2734-2.2227 3.5547-5.2695 3.5547-8.4492s-1.2812-6.2227-3.5547-8.4453c-2.2734-2.2227-5.3477-3.4336-8.5273-3.3633h-83.945c-0.41016-0.019531-0.81641-0.019531-1.2227 0zm1.2227 75.484h0.003906c-6.4219 0.14453-11.551 5.3867-11.551 11.809s5.1289 11.664 11.551 11.809h83.945c6.418-0.14453 11.551-5.3867 11.551-11.809s-5.1328-11.664-11.551-11.809zm0 66.488 0.003906 0.003907c-6.5156 0.019531-11.785 5.3047-11.785 11.816 0 6.5156 5.2695 11.801 11.785 11.82h250.16-0.003907c3.1445 0.011718 6.1602-1.2305 8.3828-3.4492 2.2266-2.2148 3.4766-5.2305 3.4766-8.3711s-1.25-6.1523-3.4766-8.3711c-2.2227-2.2148-5.2383-3.457-8.3828-3.4453z"/>
 </g>
</svg>
