<?xml version="1.0" encoding="UTF-8"?>
<svg width="1200pt" height="1200pt" version="1.1" viewBox="0 0 1200 1200" xmlns="http://www.w3.org/2000/svg">
 <g>
  <path d="m1200 600c0 214.36-114.36 412.44-300 519.62-185.64 107.18-414.36 107.18-600 0-185.64-107.18-300-305.26-300-519.62s114.36-412.44 300-519.62c185.64-107.18 414.36-107.18 600 0 185.64 107.18 300 305.26 300 519.62" fill="#edd116"/>
  <path d="m951.53 663.26-82.648-177.03 35.676 10.238c5.0703 1.4531 10.527 0.09375 14.324-3.5703 3.793-3.6602 5.3438-9.0703 4.0703-14.188-1.2773-5.1172-5.1836-9.1641-10.254-10.617l-248.07-71.191c0.050782-1.0586 0.082032-2.1211 0.082032-3.1875h-0.003907c0.007813-19.23-8.543-37.469-23.332-49.762-14.789-12.297-34.281-17.371-53.188-13.855-18.91 3.5195-35.27 15.27-44.645 32.062l-248.1-71.188c-5.0703-1.4531-10.531-0.09375-14.324 3.5703-3.793 3.6602-5.3438 9.0703-4.0703 14.188 1.2773 5.1172 5.1836 9.1641 10.254 10.617l48.957 14.047-88.668 189.93c-2.8867 1.0078-5.3906 2.8906-7.1602 5.3867-1.7734 2.4922-2.7266 5.4727-2.7266 8.5352-0.011719 31.418 12.473 61.551 34.699 83.758 22.227 22.203 52.375 34.66 83.793 34.621 31.418-0.042969 61.531-12.574 83.703-34.84 22.523-21.965 35.254-52.078 35.309-83.539 0-3.2188-1.0547-6.3438-2.9961-8.9062s-4.668-4.4219-7.7656-5.293l-82.402-176.51 153.33 43.996c-0.050781 1.0586-0.082031 2.1211-0.082031 3.1914 0.019531 14.586 4.9609 28.742 14.027 40.172 9.0625 11.43 21.719 19.469 35.918 22.816v292.37h-40.738c-32.555 0-59.629 26.125-59.629 58.68v8.5703c-13.297 2.7969-25.234 10.062-33.828 20.59-8.5938 10.523-13.324 23.672-13.406 37.262v20.664c0.12109 4.0117 1.7852 7.8203 4.6445 10.637 2.8594 2.8164 6.6914 4.4219 10.707 4.4805h294.02c4.0117-0.058594 7.8477-1.6641 10.707-4.4805 2.8594-2.8164 4.5234-6.625 4.6445-10.637v-20.664c-0.082031-13.59-4.8164-26.738-13.406-37.262-8.5938-10.527-20.531-17.793-33.828-20.59v-8.5664c0-32.559-27.078-58.684-59.629-58.684h-40.738v-292.37c17.688-4.1836 32.812-15.586 41.699-31.441l167.07 47.941-88.855 190.32c-2.8867 1.0117-5.3867 2.8906-7.1602 5.3867-1.7695 2.4922-2.7227 5.4766-2.7266 8.5352-0.011718 31.418 12.473 61.551 34.699 83.758 22.23 22.207 52.375 34.66 83.793 34.621 31.418-0.042969 61.531-12.574 83.703-34.836 22.523-21.969 35.254-52.082 35.312-83.543-0.003907-3.2148-1.0586-6.3398-3-8.9023-1.9414-2.5625-4.6641-4.4219-7.7617-5.293zm-595.45-303.26 75.523 161.77h-151.04zm0 265.39c-21.039 0.12109-41.434-7.2773-57.5-20.863-16.07-13.586-26.754-32.465-30.133-53.234h175.94-0.003906c-3.6367 20.773-14.488 39.594-30.641 53.148-16.156 13.555-36.574 20.973-57.664 20.949zm376.76 248.79v6.2617h-265.68v-6.2656c0-16.273 13.836-29.156 30.113-29.156h205.46c16.277 0 30.113 12.883 30.113 29.16zm-47.23-66.422-0.003906 7.7422h-171.21v-7.7383c0-16.281 13.836-29.164 30.109-29.164h111c16.273 0 30.109 12.883 30.109 29.16zm-85.613-378.85c-9.8203 0.007812-19.199-4.0898-25.871-11.301-6.6719-7.2109-10.027-16.879-9.2539-26.672 0.76953-9.793 5.5977-18.82 13.312-24.898s17.621-8.6562 27.32-7.1133c9.7031 1.543 18.316 7.0703 23.766 15.242 5.4492 8.1758 7.2383 18.254 4.9297 27.801-0.1875 0.46875-0.35156 0.94531-0.48828 1.4297-0.14062 0.48438-0.25 0.96875-0.33984 1.4531-2.3438 7-6.8242 13.09-12.812 17.406s-13.18 6.6445-20.562 6.6523zm318.69 233.09h-151.04l75.52-161.77zm-75.52 103.62h-0.003906c-21.039 0.12109-41.434-7.2773-57.5-20.863-16.07-13.586-26.758-32.465-30.133-53.23h175.94-0.003906c-3.6367 20.77-14.488 39.59-30.641 53.145-16.156 13.555-36.574 20.973-57.664 20.949z"/>
 </g>
</svg>
