<?xml version="1.0" encoding="UTF-8"?>
<svg width="1200pt" height="1200pt" version="1.1" viewBox="0 0 1200 1200" xmlns="http://www.w3.org/2000/svg">
 <defs>
  <clipPath id="b">
   <path d="m399 222.14h509v661.86h-509z"/>
  </clipPath>
  <clipPath id="a">
   <path d="m292 316h509v661.86h-509z"/>
  </clipPath>
 </defs>
 <path d="m1200 600c0 214.36-114.36 412.44-300 519.62-185.64 107.18-414.36 107.18-600 0-185.64-107.18-300-305.26-300-519.62s114.36-412.44 300-519.62c185.64-107.18 414.36-107.18 600 0 185.64 107.18 300 305.26 300 519.62" fill="#edd116"/>
 <g clip-path="url(#b)">
  <path d="m422.88 256.39c0-5.9023 4.7227-10.629 10.629-10.629h438.67c5.9023 0 10.629 4.7227 10.629 10.629l-0.003906 184.21h-59.039v23.617h59.039v384.94c0 5.9023-4.7227 10.629-10.629 10.629l-47.82-0.003906v23.617h48.414c18.895 0 34.242-15.352 34.242-34.242v-592.77c0-18.895-15.352-34.242-34.242-34.242h-439.26c-18.891 0-34.242 15.352-34.242 34.242v36.605h23.617z"/>
 </g>
 <g clip-path="url(#a)">
  <path d="m327.23 977.86h438.67c18.895 0 34.242-15.352 34.242-34.242l0.003907-592.77c0-18.895-15.352-34.242-34.242-34.242h-438.67c-18.895 0-34.242 15.352-34.242 34.242v592.17c0 19.484 15.352 34.836 34.242 34.836zm439.26-23.617h-439.26c-5.9023 0-10.629-4.7227-10.629-10.629l0.003906-384.94h460.51v384.94c0 5.9062-4.7227 10.629-10.625 10.629zm-439.26-614.02h438.67c5.9023 0 10.629 4.7227 10.629 10.629v184.2h-459.92v-184.21c0-5.9023 4.7227-10.625 10.625-10.625z"/>
 </g>
 <path d="m521.48 605.91h-141.7c-6.4961 0-11.809 5.3125-11.809 11.809s5.3125 11.809 11.809 11.809h141.7c6.4961 0 11.809-5.3125 11.809-11.809s-5.3125-11.809-11.809-11.809z"/>
 <path d="m521.48 670.85h-141.7c-6.4961 0-11.809 5.3125-11.809 11.809s5.3125 11.809 11.809 11.809h141.7c6.4961 0 11.809-5.3125 11.809-11.809s-5.3125-11.809-11.809-11.809z"/>
 <path d="m521.48 741.7h-141.7c-6.4961 0-11.809 5.3125-11.809 11.809 0 6.4961 5.3125 11.809 11.809 11.809h141.7c6.4961 0 11.809-5.3125 11.809-11.809 0-6.4961-5.3125-11.809-11.809-11.809z"/>
 <path d="m521.48 812.55h-141.7c-6.4961 0-11.809 5.3125-11.809 11.809 0 6.4961 5.3125 11.809 11.809 11.809h141.7c6.4961 0 11.809-5.3125 11.809-11.809 0-6.4961-5.3125-11.809-11.809-11.809z"/>
 <path d="m521.48 883.39h-141.7c-6.4961 0-11.809 5.3125-11.809 11.809s5.3125 11.809 11.809 11.809h141.7c6.4961 0 11.809-5.3125 11.809-11.809s-5.3125-11.809-11.809-11.809z"/>
 <path d="m718.08 605.91h-141.7c-6.4961 0-11.809 5.3125-11.809 11.809s5.3125 11.809 11.809 11.809h141.7c6.4961 0 11.809-5.3125 11.809-11.809s-5.3125-11.809-11.809-11.809z"/>
 <path d="m718.08 670.85h-141.7c-6.4961 0-11.809 5.3125-11.809 11.809s5.3125 11.809 11.809 11.809h141.7c6.4961 0 11.809-5.3125 11.809-11.809s-5.3125-11.809-11.809-11.809z"/>
 <path d="m718.08 741.7h-141.7c-6.4961 0-11.809 5.3125-11.809 11.809 0 6.4961 5.3125 11.809 11.809 11.809h141.7c6.4961 0 11.809-5.3125 11.809-11.809 0-6.4961-5.3125-11.809-11.809-11.809z"/>
 <path d="m718.08 812.55h-141.7c-6.4961 0-11.809 5.3125-11.809 11.809 0 6.4961 5.3125 11.809 11.809 11.809h141.7c6.4961 0 11.809-5.3125 11.809-11.809 0-6.4961-5.3125-11.809-11.809-11.809z"/>
 <path d="m718.08 883.39h-141.7c-6.4961 0-11.809 5.3125-11.809 11.809s5.3125 11.809 11.809 11.809h141.7c6.4961 0 11.809-5.3125 11.809-11.809s-5.3125-11.809-11.809-11.809z"/>
</svg>
