<?xml version="1.0" encoding="UTF-8"?>
<svg width="1200pt" height="1200pt" version="1.1" viewBox="0 0 1200 1200" xmlns="http://www.w3.org/2000/svg">
 <g>
  <path d="m1200 600c0 214.36-114.36 412.44-300 519.62-185.64 107.18-414.36 107.18-600 0-185.64-107.18-300-305.26-300-519.62s114.36-412.44 300-519.62c185.64-107.18 414.36-107.18 600 0 185.64 107.18 300 305.26 300 519.62" fill="#edd116"/>
  <path d="m743.05 631.05c81.566-78.742 81.914-219.71 0.0625-298.62-0.015625-0.023438-0.035156-0.039063-0.058594-0.058594-155.66-151.81-409.72-2.3594-352.09 207.23-220.07 67.191-177.5 384.18 53.395 389.74 123.88 2.7305 223.08-121.1 193.84-241.41 39.547-8.4414 75.602-27.871 104.85-56.879zm-111.23 34.211c-6.5117-17.891-15.039-35.016-26.25-50.477 27.09-2.4688 53.039-13.27 73.996-30.598l38.191 38.191c-24.703 21.684-54.062 36.34-85.938 42.883zm-107.74-116.35c-7.4102-3.4648-15.23-5.9375-22.996-8.5078-11.129-17.492-17.23-38.066-17.273-58.809 0.03125-29.074 11.402-56.602 31.926-77.465 0.19922-0.10938 0.34766-0.24219 0.45312-0.44922 20.945-20.57 48.434-31.91 77.473-31.941 0.078125 0.023438 0.15234 0.023438 0.23047 0 29.082 0.03125 56.609 11.398 77.473 31.93 0.10547 0.19141 0.22656 0.33203 0.42578 0.43359 42.676 42.203 42.438 114.02-1.0391 156.28-22.805 22.02-53.852 33.609-85.234 30.848-17.68-17.699-38.426-32.387-61.438-42.316zm-64.789-16.125c-15.125-1.0859-30.379-0.54297-45.375 1.707-3.9219-13.285-6.2773-27.008-7.1406-40.977h53.992c1.2773 13.902 4.6367 27.527 10.059 40.387-3.8477-0.36328-7.6797-0.82812-11.535-1.1172zm-6.0352-174.91 38.105 38.105c-17.609 21.133-28.207 46.727-30.594 73.918h-53.836c2.5859-41.586 18.73-80.609 46.324-112.02zm226.25 21.41c-21.133-17.613-46.723-28.203-73.918-30.59v-53.84c41.566 2.5859 80.57 18.715 112.02 46.328zm-97.535-30.59c-27.164 2.3867-52.734 12.961-73.91 30.59l-38.105-38.105c31.445-27.609 70.453-43.742 112.02-46.324zm180.38 215.01c-7.4023 15.188-16.766 29.262-27.906 41.973l-38.199-38.199c17.355-20.938 28.156-46.867 30.609-73.961h53.988c-1.5 24.527-7.7031 48.086-18.492 70.188zm-35.492-93.805c-2.5078-27.062-13.328-53.004-30.613-73.957l38.09-38.098c27.621 31.457 43.93 70.469 46.508 112.05zm-134.6 354.18c-93.121 147.33-322.25 81.004-322.88-93.332-1.5664-104.21 97.133-189.7 199.98-173.15 123.07 15.297 191.25 163.15 122.89 266.48z"/>
  <path d="m942.43 557.07h-106.27c-15.43 0.066406-15.449 23.551 0 23.617 0.003906-0.003906 94.465-0.003906 94.465-0.003906v237.88h-259.77c-15.406 0.20312-15.605 23.359 0 23.617h271.58c6.5195 0 11.809-5.2852 11.809-11.809v-261.5c0-6.5195-5.2852-11.805-11.809-11.805z"/>
  <path d="m880.17 669.13h-87.164c-15.414 0.0625-15.461 23.547 0 23.617h87.164c15.414-0.066406 15.461-23.551 0-23.617z"/>
  <path d="m705.85 731.39c-15.418 0.0625-15.457 23.551 0 23.617h74.711c15.418-0.0625 15.457-23.551 0-23.617h-74.711z"/>
  <path d="m880.17 731.39h-49.805c-15.426 0.066407-15.453 23.551 0 23.617h49.805c15.426-0.066407 15.453-23.551 0-23.617z"/>
  <path d="m531.52 694.04h-211.68c-15.375 0.054688-15.492 23.547 0 23.617h211.68c15.375-0.054688 15.496-23.547 0-23.617z"/>
  <path d="m456.16 768.11c0-6.5195-5.2852-11.809-11.809-11.809h-124.52c-6.5195 0-11.809 5.2852-11.809 11.809 0 6.5195 5.2852 11.809 11.809 11.809h124.52c6.5234 0 11.809-5.2891 11.809-11.809z"/>
  <path d="m519.06 806.11h-161.88c-15.391 0.058593-15.48 23.547 0 23.617h161.88c15.391-0.058594 15.48-23.547 0-23.617z"/>
 </g>
</svg>
