<?xml version="1.0" encoding="UTF-8"?>
<svg width="1200pt" height="1200pt" version="1.1" viewBox="0 0 1200 1200" xmlns="http://www.w3.org/2000/svg">
 <g>
  <path d="m1200 600c0 214.36-114.36 412.44-300 519.62-185.64 107.18-414.36 107.18-600 0-185.64-107.18-300-305.26-300-519.62s114.36-412.44 300-519.62c185.64-107.18 414.36-107.18 600 0 185.64 107.18 300 305.26 300 519.62" fill="#edd116"/>
  <path d="m942.43 287.09h-590.4c-6.5273 0-11.809 5.2852-11.809 11.809v224.35c0.074219 15.375 23.535 15.496 23.617 0v-212.55h566.79v342.43h-318.82c-15.402 0.058593-15.473 23.551 0 23.617h107.23l26.223 47.23h-133.45c-15.406 0.058594-15.473 23.551 0 23.617 26 0.003907 166.21 0 188.93 0v23.617h-188.93c-6.5273 0-11.809 5.2852-11.809 11.809 0 6.5195 5.2812 11.809 11.809 11.809h200.74c6.5273 0 11.809-5.2852 11.809-11.809v-47.23c0-6.5195-5.2812-11.809-11.809-11.809h-40.285l-26.215-47.23 196.39-0.003906c6.5273 0 11.809-5.2852 11.809-11.809v-366.05c0-6.5195-5.2812-11.805-11.809-11.805z"/>
  <path d="m623.62 476.02v118.08c0 6.5195 5.2812 11.809 11.809 11.809h51.961c6.5273 0 11.809-5.2852 11.809-11.809v-118.08c0-6.5195-5.2812-11.809-11.809-11.809l-51.961 0.003907c-6.5273 0-11.809 5.2852-11.809 11.805zm23.617 11.809h28.344v94.465h-28.344z"/>
  <path d="m791.29 605.91c6.5273 0 11.809-5.2852 11.809-11.809v-188.93c0-6.5195-5.2812-11.809-11.809-11.809h-51.961c-6.5273 0-11.809 5.2852-11.809 11.809v188.93c0 6.5195 5.2812 11.809 11.809 11.809zm-40.152-188.93h28.344v165.31h-28.344z"/>
  <path d="m895.2 605.91c6.5273 0 11.809-5.2852 11.809-11.809v-70.848c0-6.5195-5.2812-11.809-11.809-11.809h-51.961c-6.5273 0-11.809 5.2852-11.809 11.809v70.848c0 6.5195 5.2812 11.809 11.809 11.809zm-40.152-70.848h28.344v47.23h-28.344z"/>
  <path d="m375.65 783.03c45.57 0 82.656-37.078 82.656-82.656 0-6.5195-5.2812-11.809-11.809-11.809h-59.039v-59.039c0-6.5195-5.2812-11.809-11.809-11.809-109.4 3.8789-109.36 161.45 0 165.31zm-11.809-140.51v57.855c0 6.5195 5.2812 11.809 11.809 11.809h57.852c-5.4883 26.914-29.336 47.23-57.852 47.23-70.883-1.1133-80.379-102.05-11.809-116.89z"/>
  <path d="m458.3 653.14h59.039c15.426-0.0625 15.457-23.551 0-23.617 0 0.003907-59.039 0.003907-59.039 0.003907-15.426 0.0625-15.457 23.551 0 23.613z"/>
  <path d="m422.88 393.36h47.23c15.43-0.0625 15.453-23.551 0-23.617 0 0.003906-47.23 0.003906-47.23 0.003906-15.43 0.0625-15.453 23.551 0 23.613z"/>
  <path d="m647.23 369.75h-129.89c-15.402 0.058594-15.473 23.551 0 23.617 0-0.003906 129.89-0.003906 129.89-0.003906 15.402-0.054687 15.473-23.551 0-23.613z"/>
  <path d="m422.88 452.4h118.08c15.406-0.058594 15.469-23.551 0-23.617h-118.08c-15.41 0.058594-15.473 23.551 0 23.617z"/>
  <path d="m564.58 558.67h-307.01c-6.5273 0-11.809 5.2852-11.809 11.809v259.78c0 6.5195 5.2812 11.809 11.809 11.809h200.74v59.039c-0.33984 10.562 13.938 15.984 20.699 7.7773-0.003906 0 58.461-66.816 58.461-66.816h27.109c6.5273 0 11.809-5.2852 11.809-11.809v-259.78c0-6.5195-5.2812-11.809-11.809-11.809zm-11.809 259.78c-8.082 0.74219-24.906-2.5781-29.555 4.0312 0 0-41.293 47.199-41.293 47.199v-39.422c0-6.5195-5.2812-11.809-11.809-11.809h-200.74v-236.16h283.39z"/>
 </g>
</svg>
