<?xml version="1.0" encoding="utf-8"?>
<!-- Generator: Adobe Illustrator 12.0.0, SVG Export Plug-In . SVG Version: 6.00 Build 51448)  -->
<!DOCTYPE svg PUBLIC "-//W3C//DTD SVG 1.0//EN" "http://www.w3.org/TR/2001/REC-SVG-20010904/DTD/svg10.dtd" [
	<!ENTITY ns_svg "http://www.w3.org/2000/svg">
	<!ENTITY ns_xlink "http://www.w3.org/1999/xlink">
]>
<svg  version="1.0" xmlns="&ns_svg;" xmlns:xlink="&ns_xlink;" width="2475" height="1650" viewBox="0 0 2475 1650"
	 overflow="visible" enable-background="new 0 0 2475 1650" xml:space="preserve">
<g id="Background">
	<rect fill="#FFFFFF" width="2475" height="1650"/>
</g>
<g id="Illustration">
	<g>
		
			<linearGradient id="XMLID_79_" gradientUnits="userSpaceOnUse" x1="-1615.626" y1="817.9443" x2="545.9224" y2="817.9443" gradientTransform="matrix(-1 0 0 1 702.6484 0)">
			<stop  offset="0" style="stop-color:#DAE3FE"/>
			<stop  offset="1" style="stop-color:#E9EFFD"/>
		</linearGradient>
		<path fill="url(#XMLID_79_)" d="M1755.206,190.109c126.984,147.538,567.667-16.367,563.032,255.647
			c-5.428,318.506-190.998,477.806-89.512,721.69c94.666,227.496-223.406,389.162-786.966,384.437
			c-563.559-4.726-1470.158-285.677-1251.742-590.822c218.417-305.145,72.892-320.798,62.237-455.657
			C241.602,370.544,352.1,74.73,788.57,321.42C1225.041,568.109,1433.643-183.501,1755.206,190.109z"/>
		<g>
			<circle fill="#91B3FA" cx="1672.774" cy="422.185" r="87.664"/>
			<circle fill="#91B3FA" cx="1890.646" cy="422.185" r="87.664"/>
			<circle fill="#91B3FA" cx="2108.516" cy="425.054" r="87.664"/>
			<g>
				<linearGradient id="XMLID_80_" gradientUnits="userSpaceOnUse" x1="1856.127" y1="98.3525" x2="1691.1111" y2="392.381">
					<stop  offset="0" style="stop-color:#FE7062"/>
					<stop  offset="1" style="stop-color:#FF928E"/>
				</linearGradient>
				<path fill="url(#XMLID_80_)" d="M1724.864,403.657c2.713,6.599,4.219,13.82,4.219,21.397c0,31.099-25.21,56.309-56.309,56.309
					s-56.31-25.21-56.31-56.309s25.211-56.309,56.31-56.309c0.952,0,1.899,0.025,2.84,0.072v-14.273
					c-0.942-0.038-1.888-0.062-2.84-0.062c-38.977,0-70.573,31.597-70.573,70.573s31.597,70.573,70.573,70.573
					c38.976,0,70.573-31.597,70.573-70.573c0-9.597-1.92-18.745-5.39-27.085L1724.864,403.657z"/>
				<linearGradient id="XMLID_81_" gradientUnits="userSpaceOnUse" x1="1975.4277" y1="286.1616" x2="1717.4023" y2="685.2006">
					<stop  offset="0" style="stop-color:#FE7062"/>
					<stop  offset="1" style="stop-color:#FF928E"/>
				</linearGradient>
				<path fill="url(#XMLID_81_)" d="M1919.692,472.695c-8.688,5.483-18.971,8.668-30.003,8.668c-31.099,0-56.31-25.21-56.31-56.309
					s25.211-56.309,56.31-56.309c0.952,0,1.898,0.025,2.84,0.072v-14.273c-0.942-0.038-1.889-0.062-2.84-0.062
					c-38.977,0-70.573,31.597-70.573,70.573s31.597,70.573,70.573,70.573c13.603,0,26.304-3.852,37.079-10.52L1919.692,472.695z"/>
				<linearGradient id="XMLID_82_" gradientUnits="userSpaceOnUse" x1="2195.0605" y1="227.5918" x2="2042.0455" y2="575.6266">
					<stop  offset="0" style="stop-color:#FE7062"/>
					<stop  offset="1" style="stop-color:#FF928E"/>
				</linearGradient>
				<path fill="url(#XMLID_82_)" d="M2155.506,456.713c-10.135,14.877-27.208,24.65-46.567,24.65
					c-31.099,0-56.31-25.21-56.31-56.309s25.211-56.309,56.31-56.309c0.952,0,1.899,0.025,2.841,0.072v-14.273
					c-0.943-0.038-1.89-0.062-2.841-0.062c-38.977,0-70.573,31.597-70.573,70.573s31.597,70.573,70.573,70.573
					c24.112,0,45.396-12.095,58.126-30.546L2155.506,456.713z"/>
			</g>
			<g opacity="0.64">
				<path fill="#91B3FA" d="M1744.202,546.983h-142.855c-8.968,0-16.236,7.269-16.236,16.235c0,8.967,7.269,16.236,16.236,16.236
					h142.855c8.967,0,16.236-7.269,16.236-16.236C1760.438,554.252,1753.169,546.983,1744.202,546.983z"/>
				<path fill="#91B3FA" d="M1962.073,546.983h-142.856c-8.967,0-16.235,7.269-16.235,16.235c0,8.967,7.269,16.236,16.235,16.236
					h142.856c8.968,0,16.236-7.269,16.236-16.236C1978.31,554.252,1971.041,546.983,1962.073,546.983z"/>
				<path fill="#91B3FA" d="M2037.088,579.455h142.856c8.967,0,16.235-7.269,16.235-16.236c0-8.967-7.269-16.235-16.235-16.235
					h-142.856c-8.967,0-16.235,7.269-16.235,16.235C2020.853,572.186,2028.121,579.455,2037.088,579.455z"/>
				<path fill="#91B3FA" d="M1744.202,597.494h-142.855c-8.968,0-16.236,7.27-16.236,16.236v95.61
					c0,8.967,7.269,16.235,16.236,16.235h142.855c8.967,0,16.236-7.269,16.236-16.235v-95.61
					C1760.438,604.764,1753.169,597.494,1744.202,597.494z"/>
				<path fill="#91B3FA" d="M1962.073,597.494h-142.856c-8.967,0-16.235,7.27-16.235,16.236v95.61
					c0,8.967,7.269,16.235,16.235,16.235h142.856c8.968,0,16.236-7.269,16.236-16.235v-95.61
					C1978.31,604.764,1971.041,597.494,1962.073,597.494z"/>
				<path fill="#91B3FA" d="M2179.944,597.494h-142.856c-8.967,0-16.235,7.27-16.235,16.236v95.61
					c0,8.967,7.269,16.235,16.235,16.235h142.856c8.967,0,16.235-7.269,16.235-16.235v-95.61
					C2196.18,604.764,2188.911,597.494,2179.944,597.494z"/>
			</g>
		</g>
		<g>
			<path fill="#BDD0FB" d="M941.892,1325.082c0,0-397.399,69.304-537.325-208.041c-127.926-253.562-130.38-514.636-129.861-557.547
				c0.033-2.69-2.646-4.565-5.159-3.602c-12.42,4.766-43.175,9.368-53.079-55.729c-12.52-82.292-2.127-228.432,39.943-248.077
				c42.07-19.646,55.393,82.736,49.333,171.468c-6.06,88.732-7.817,123.979-7.817,123.979S228.467,1409.823,941.892,1325.082z"/>
			<path fill="#DCE5FE" d="M259.286,535.954c-0.25,0-0.503-0.031-0.756-0.095c-9.818-2.5-18.44-10.71-23.068-21.959
				c-3.982-9.685-4.802-20.005-5.348-30.609c-2.616-50.875,0.267-102.156,8.57-152.417c2.997-18.137,8.773-39.998,26.996-48.139
				c1.541-0.689,3.349,0.004,4.036,1.543c0.688,1.541-0.003,3.348-1.543,4.036c-15.563,6.952-20.712,26.93-23.459,43.556
				c-8.232,49.829-11.091,100.669-8.497,151.107c0.517,10.054,1.281,19.808,4.896,28.599c3.897,9.471,10.972,16.336,18.925,18.361
				c1.635,0.417,2.624,2.08,2.207,3.715C261.893,535.034,260.649,535.954,259.286,535.954z"/>
		</g>
		<g>
			<path fill="#BDD0FB" d="M378.131,705.98c0,0-36.005-26.586-8.039-118.168c24.603-80.563,51.854-130.968,86.473-116.742
				c34.618,14.226-22.697,181.924-65.653,234.233c0,0-84.8,807.755,556.692,796.67
				C947.604,1501.973,345.691,1622.033,378.131,705.98z"/>
			<path fill="#DCE5FE" d="M380.039,675.053c-1.122,0-2.202-0.621-2.736-1.694c-16.47-33.046,10.687-123.288,44.153-175.972
				c2.567-4.042,19.762-19.319,27.07-17.017c7.406,2.333,7.94,11.49,6.146,18.623c-4.23,16.834-11.263,32.688-20.898,47.124
				c-0.936,1.403-2.832,1.782-4.238,0.844c-1.403-0.937-1.781-2.833-0.845-4.238c9.247-13.852,15.994-29.066,20.055-45.221
				c0.998-3.969,1.273-10.256-2.057-11.305c-3.167-0.373-17.368,10.2-20.077,14.465c-35.681,56.171-57.808,141.95-43.843,169.971
				c0.753,1.51,0.139,3.345-1.372,4.097C380.962,674.949,380.497,675.053,380.039,675.053z"/>
		</g>
		<g opacity="0.91">
			<path fill="#BDD0FB" d="M517.413,355.106c105.705,68.498,704.567,492.233,407.883,1125.619c0,0-466.064-177.47-424.333-1117.18
				C501.327,355.324,510.507,350.631,517.413,355.106z"/>
			<path fill="#DCE5FE" d="M561.579,473.714c0,0,34.032,49.881,82.049,126.636c5.975,9.611,12.197,19.623,18.639,29.985
				c6.363,10.411,12.94,21.174,19.703,32.238c13.419,22.193,27.506,45.638,41.745,70.089c14.327,24.399,28.803,49.805,43.375,75.699
				c7.193,13,14.443,26.102,21.722,39.256c7.118,13.242,14.412,26.457,21.436,39.818c7.021,13.362,14.166,26.66,20.967,40.072
				c3.435,6.688,6.863,13.363,10.281,20.02c3.406,6.661,6.683,13.364,10.012,20.008c3.309,6.653,6.604,13.281,9.884,19.875
				c3.196,6.637,6.376,13.238,9.538,19.802c6.4,13.088,12.412,26.167,18.363,39.015c11.879,25.705,22.861,50.791,32.87,74.754
				c9.982,23.973,19.011,46.819,26.806,68.118c4.073,10.583,7.535,20.891,10.901,30.667c1.684,4.889,3.323,9.651,4.917,14.281
				c1.539,4.649,2.9,9.211,4.292,13.607c2.702,8.817,5.425,17.01,7.595,24.693c2.126,7.699,4.079,14.771,5.843,21.157
				c0.875,3.195,1.703,6.22,2.482,9.065c0.677,2.875,1.312,5.57,1.902,8.077c1.18,5.015,2.185,9.28,2.999,12.739
				c1.628,6.917,2.496,10.606,2.496,10.606c0.515,2.189-0.842,4.383-3.032,4.897c-2.189,0.516-4.382-0.842-4.897-3.031l-0.004-0.019
				l-0.039-0.169c0,0-0.842-3.656-2.42-10.51c-0.79-3.428-1.763-7.654-2.907-12.624c-0.572-2.485-1.187-5.156-1.843-8.005
				c-0.759-2.826-1.566-5.829-2.418-9.002c-1.718-6.343-3.621-13.365-5.692-21.011c-2.115-7.634-4.783-15.788-7.423-24.558
				c-1.361-4.373-2.691-8.909-4.198-13.538c-1.563-4.61-3.17-9.354-4.821-14.223c-3.3-9.737-6.691-20.003-10.695-30.558
				c-7.653-21.23-16.533-44.027-26.364-67.963c-9.857-23.926-20.683-48.988-32.407-74.684
				c-5.873-12.842-11.805-25.918-18.128-39.008c-3.122-6.563-6.263-13.167-9.42-19.803c-3.24-6.598-6.497-13.228-9.767-19.884
				c-3.291-6.646-6.527-13.352-9.896-20.018c-3.379-6.66-6.769-13.341-10.165-20.033c-6.724-13.421-13.792-26.732-20.738-40.108
				c-6.948-13.374-14.168-26.605-21.211-39.864c-7.205-13.173-14.382-26.293-21.502-39.311
				c-14.428-25.934-28.765-51.381-42.958-75.825c-14.106-24.496-28.066-47.987-41.365-70.226
				c-6.703-11.088-13.223-21.874-19.53-32.306c-6.385-10.385-12.555-20.419-18.477-30.051
				c-11.91-19.225-22.927-36.787-32.798-52.285c-9.85-15.513-18.544-28.966-25.729-40.029
				c-14.398-22.113-22.827-34.598-22.827-34.598c-0.533-0.79-0.325-1.862,0.465-2.396
				C559.976,472.72,561.045,472.924,561.579,473.714z"/>
		</g>
		<g>
			<path fill="#BDD0FB" d="M2273.528,536.136c9.44,128.649,33.799,879.558-666.736,1028.987c0,0-143.295-490.223,649.676-1037.2
				C2263.404,523.138,2272.912,527.73,2273.528,536.136z"/>
			<path fill="#DCE5FE" d="M2203.969,645.517c0,0-19.683,58.624-52.659,145.282c-4.153,10.819-8.479,22.09-12.957,33.755
				c-4.565,11.631-9.285,23.656-14.137,36.017c-9.822,24.677-20.254,50.673-31.412,77.416
				c-11.063,26.781-22.853,54.308-34.984,82.214c-6.166,13.909-12.38,27.929-18.619,42.004
				c-6.411,13.998-12.69,28.124-19.255,42.119c-6.568,13.994-13.008,28.048-19.752,41.893c-3.337,6.939-6.668,13.865-9.988,20.77
				c-3.332,6.9-6.778,13.72-10.144,20.545c-3.387,6.815-6.76,13.604-10.116,20.357c-3.441,6.713-6.865,13.391-10.269,20.029
				c-6.729,13.317-13.69,26.312-20.499,39.112c-13.642,25.591-27.332,50.065-40.707,73.052
				c-13.399,22.972-26.469,44.467-39.037,63.998c-6.122,9.868-12.396,19.066-18.296,27.859c-2.95,4.396-5.824,8.68-8.619,12.844
				c-2.844,4.13-5.727,8.063-8.454,11.916c-5.528,7.657-10.532,14.944-15.464,21.467c-4.971,6.494-9.535,12.461-13.659,17.849
				c-2.067,2.69-4.024,5.235-5.866,7.632c-1.928,2.329-3.735,4.514-5.418,6.545c-3.363,4.064-6.225,7.521-8.545,10.323
				c-4.641,5.605-7.115,8.595-7.115,8.595c-1.435,1.732-4.003,1.975-5.735,0.54s-1.975-4.003-0.54-5.735l0.013-0.014l0.11-0.134
				c0,0,2.464-2.948,7.084-8.476c2.311-2.764,5.159-6.173,8.509-10.181c1.676-2.004,3.476-4.157,5.396-6.455
				c1.838-2.367,3.79-4.883,5.854-7.541c4.115-5.326,8.672-11.222,13.633-17.642c4.926-6.447,9.933-13.668,15.459-21.247
				c2.729-3.815,5.61-7.707,8.457-11.799c2.798-4.128,5.676-8.373,8.631-12.731c5.908-8.716,12.192-17.833,18.333-27.629
				c12.601-19.377,25.719-40.725,39.181-63.552c13.438-22.843,27.202-47.18,40.93-72.64c6.853-12.736,13.858-25.664,20.635-38.922
				c3.428-6.607,6.876-13.255,10.342-19.937c3.382-6.725,6.78-13.483,10.192-20.269c3.391-6.797,6.863-13.586,10.223-20.457
				c3.347-6.878,6.704-13.775,10.068-20.687c6.799-13.789,13.295-27.791,19.919-41.732c6.621-13.942,12.959-28.019,19.428-41.968
				c6.298-14.027,12.571-28,18.795-41.863c12.249-27.814,24.157-55.254,35.336-81.957c11.274-26.663,21.819-52.586,31.75-77.195
				c4.907-12.328,9.68-24.32,14.297-35.92c4.529-11.635,8.905-22.876,13.106-33.667c8.329-21.611,15.854-41.464,22.401-59.107
				c6.573-17.633,12.181-33.051,16.769-45.758c9.148-25.428,14.129-40.029,14.129-40.029c0.308-0.902,1.288-1.384,2.19-1.076
				S2204.276,644.615,2203.969,645.517z"/>
		</g>
		<g>
			<path fill="#BDD0FB" d="M217.86,1101.599c-2.93-5.499,3.473-11.284,8.632-7.79c49.875,33.781,183.432,118.264,290.818,132.219
				c174.849,22.723,371.807,133.158,384.413,265.961C901.723,1491.988,537.152,1700.717,217.86,1101.599z"/>
			<path fill="#DCE5FE" d="M281.58,1156.027c0,0,0.462,0.416,1.357,1.224c0.911,0.76,2.263,1.887,4.027,3.356
				c3.586,2.984,8.966,7.235,15.796,12.659c6.862,5.387,15.214,11.903,24.921,19.214c9.665,7.366,20.749,15.438,32.791,24.303
				c12.115,8.766,25.264,18.23,39.374,27.949c14.049,9.806,29.1,19.802,44.669,30.133c15.637,10.229,31.848,20.72,48.573,30.971
				c4.177,2.568,8.372,5.146,12.578,7.733c4.241,2.528,8.495,5.063,12.757,7.604c8.491,5.139,17.166,10.036,25.79,15.021
				c8.617,4.999,17.411,9.679,26.041,14.574c8.735,4.7,17.437,9.383,26.07,14.027c8.734,4.447,17.325,9.012,25.949,13.246
				c4.314,2.11,8.604,4.208,12.861,6.291c4.249,2.103,8.486,4.15,12.737,6.075c16.902,7.925,33.423,15.187,49.202,21.794
				c15.773,6.633,30.906,12.352,44.933,17.47c7.061,2.426,13.827,4.751,20.262,6.962c6.463,2.124,12.645,3.979,18.43,5.81
				c2.898,0.899,5.703,1.77,8.41,2.609c2.733,0.746,5.369,1.465,7.901,2.155c5.066,1.383,9.72,2.653,13.923,3.801
				c8.448,2.122,15.14,3.578,19.679,4.684c4.548,1.069,6.973,1.64,6.973,1.64l0.042,0.01c0.547,0.129,0.887,0.677,0.758,1.224
				c-0.125,0.535-0.654,0.871-1.189,0.766c0,0-2.451-0.487-7.047-1.402c-4.586-0.958-11.367-2.15-19.9-4.092
				c-4.25-1.043-8.956-2.198-14.079-3.456c-2.563-0.629-5.23-1.284-7.997-1.963c-2.741-0.773-5.58-1.575-8.513-2.403
				c-5.854-1.699-12.13-3.369-18.666-5.389c-6.503-2.12-13.341-4.351-20.477-6.678c-14.177-4.922-29.481-10.433-45.439-16.85
				c-15.995-6.321-32.625-13.575-49.646-21.453c-4.283-1.912-8.551-3.947-12.83-6.038c-4.289-2.07-8.608-4.155-12.955-6.253
				c-8.686-4.209-17.335-8.747-26.133-13.169c-8.693-4.62-17.456-9.276-26.253-13.951c-8.697-4.854-17.467-9.665-26.106-14.699
				c-8.634-5.043-17.32-9.997-25.817-15.192c-4.266-2.568-8.522-5.132-12.768-7.688c-4.208-2.613-8.405-5.22-12.585-7.815
				c-16.733-10.359-32.946-20.955-48.583-31.283c-15.54-10.474-30.444-20.769-44.409-30.767
				c-14.011-9.932-27.061-19.596-39.083-28.543c-23.953-18.023-43.416-33.684-56.917-44.794
				c-6.733-5.579-11.958-10.038-15.486-13.132c-1.76-1.514-3.152-2.798-4.068-3.612c-0.875-0.838-1.327-1.271-1.327-1.271
				c-0.405-0.389-0.419-1.031-0.031-1.437c0.381-0.397,1.007-0.419,1.413-0.053L281.58,1156.027z"/>
		</g>
		<g>
			<g>
				<rect x="246.12" y="929.402" fill="#7D97F4" width="33.026" height="242.542"/>
				<rect x="301.303" y="1012.76" fill="#7D97F4" width="33.025" height="159.185"/>
				<rect x="356.485" y="806.747" fill="#7D97F4" width="33.026" height="365.198"/>
				<rect x="411.668" y="1084.21" fill="#7D97F4" width="33.026" height="87.734"/>
				<rect x="466.852" y="855.571" fill="#7D97F4" width="33.025" height="316.373"/>
				<rect x="522.034" y="910.349" fill="#7D97F4" width="33.026" height="261.596"/>
				<rect x="577.217" y="969.891" fill="#7D97F4" width="33.026" height="202.054"/>
				<rect x="632.4" y="732.916" fill="#7D97F4" width="33.026" height="439.029"/>
				<rect x="687.583" y="779.358" fill="#7D97F4" width="33.026" height="392.586"/>
				<rect x="742.766" y="849.616" fill="#7D97F4" width="33.026" height="322.328"/>
				<rect x="797.949" y="1092.353" fill="#7D97F4" width="33.026" height="79.592"/>
			</g>
		</g>
		<g>
			<path fill="#91B3FA" d="M1905.56,538.617c-1.342-5.252-8.85-5.215-10.115,0.057c-12.239,50.96-48.518,183.579-109.342,255.527
				c-99.035,117.148-160.835,303.63-91.05,396.364C1695.053,1190.565,2051.75,1110.884,1905.56,538.617z"/>
			<path fill="#DCE5FE" d="M1898.437,611.016c0,0-0.035,0.543-0.104,1.596c-0.11,1.068-0.273,2.653-0.487,4.721
				c-0.444,4.06-1.17,9.993-2.214,17.53c-2.139,15.063-5.417,36.553-10.211,62.192c-2.465,12.805-5.17,26.674-8.335,41.28
				c-3.098,14.621-6.618,29.986-10.453,45.836c-3.986,15.812-8.188,32.134-12.86,48.611c-1.163,4.12-2.33,8.258-3.501,12.407
				c-1.228,4.133-2.459,8.279-3.692,12.433c-2.411,8.325-5.085,16.606-7.674,24.913c-2.599,8.305-5.406,16.545-8.153,24.767
				c-2.915,8.164-5.819,16.297-8.701,24.366c-3.063,8.003-5.965,15.994-9.082,23.794c-3.179,7.775-6.107,15.541-9.373,23.024
				c-6.326,15.049-12.764,29.468-19.358,42.906c-6.51,13.48-13.13,25.995-19.369,37.47c-3.229,5.679-6.322,11.121-9.265,16.297
				c-3.024,5.128-6.091,9.877-8.864,14.399c-1.404,2.251-2.764,4.43-4.076,6.532c-1.384,2.058-2.718,4.04-4,5.946
				c-2.563,3.809-4.917,7.308-7.043,10.468c-4.358,6.248-8.031,10.981-10.425,14.282c-2.427,3.278-3.721,5.026-3.721,5.026
				c-0.335,0.452-0.972,0.547-1.424,0.212c-0.44-0.325-0.542-0.939-0.237-1.389l0.026-0.037c0,0,1.219-1.792,3.505-5.152
				c2.26-3.377,5.69-8.246,9.862-14.569c2.021-3.205,4.26-6.754,6.696-10.617c1.218-1.931,2.485-3.939,3.8-6.024
				c1.242-2.129,2.53-4.335,3.86-6.614c2.635-4.572,5.507-9.395,8.406-14.552c2.831-5.196,5.809-10.66,8.915-16.361
				c5.995-11.519,12.349-24.07,18.577-37.586c6.242-13.506,12.594-27.856,18.8-42.859c3.202-7.458,6.07-15.205,9.186-22.956
				c3.055-7.776,5.894-15.747,8.895-23.726c2.819-8.047,5.661-16.157,8.514-24.3c2.67-8.206,5.584-16.366,8.189-24.629
				c2.62-8.259,5.325-16.49,7.77-24.77c1.25-4.131,2.498-8.254,3.741-12.364c1.188-4.128,2.371-8.243,3.551-12.342
				c4.74-16.392,9.009-32.636,13.063-48.375c3.953-15.765,7.783-31.007,11.073-45.543c3.381-14.515,6.293-28.303,8.95-41.037
				c2.548-12.755,4.964-24.436,6.869-34.833c1.968-10.387,3.527-19.469,4.79-26.952c1.22-7.487,2.201-13.372,2.763-17.39
				c0.274-1.973,0.485-3.485,0.628-4.505c0.104-1.043,0.157-1.581,0.157-1.581l0.012-0.113c0.056-0.558,0.553-0.966,1.111-0.91
				C1898.069,609.993,1898.471,610.472,1898.437,611.016z"/>
		</g>
		<g>
			<g>
				<linearGradient id="XMLID_83_" gradientUnits="userSpaceOnUse" x1="1715.6367" y1="405.9092" x2="613.377" y2="1853.6968">
					<stop  offset="0" style="stop-color:#09005D"/>
					<stop  offset="1" style="stop-color:#1A0F91"/>
				</linearGradient>
				<path fill="url(#XMLID_83_)" d="M925.105,384.612h695.364c38.363,0,69.996,30.063,71.946,68.377l51.328,1008.148
					c1.526,29.981-22.074,55.271-52.09,55.816l-796.975,14.484c-28.203,0.513-51.342-22.21-51.342-50.417V466.381
					C843.337,421.222,879.946,384.612,925.105,384.612z"/>
				<linearGradient id="XMLID_84_" gradientUnits="userSpaceOnUse" x1="867.8794" y1="1418.0605" x2="1013.062" y2="1418.0605">
					<stop  offset="0" style="stop-color:#DAE3FE"/>
					<stop  offset="1" style="stop-color:#E9EFFD"/>
				</linearGradient>
				<path fill="url(#XMLID_84_)" d="M1011.159,1514.3c-0.008,0-0.017,0-0.025,0l-89.177-1.153
					c-29.819-0.387-54.078-24.961-54.078-54.781v-134.641c0-1.052,0.852-1.903,1.903-1.903c1.052,0,1.904,0.852,1.904,1.903v134.641
					c0,27.747,22.573,50.613,50.319,50.975l89.176,1.152c1.052,0.013,1.893,0.877,1.88,1.928
					C1013.048,1513.463,1012.199,1514.3,1011.159,1514.3z"/>
				<linearGradient id="XMLID_85_" gradientUnits="userSpaceOnUse" x1="867.8794" y1="1271.1172" x2="871.687" y2="1271.1172">
					<stop  offset="0" style="stop-color:#DAE3FE"/>
					<stop  offset="1" style="stop-color:#E9EFFD"/>
				</linearGradient>
				<path fill="url(#XMLID_85_)" d="M869.783,1283.924c-1.051,0-1.903-0.853-1.903-1.904v-21.805c0-1.053,0.852-1.904,1.903-1.904
					c1.052,0,1.904,0.852,1.904,1.904v21.805C871.687,1283.071,870.834,1283.924,869.783,1283.924z"/>
				<g>
					<linearGradient id="XMLID_86_" gradientUnits="userSpaceOnUse" x1="751.0952" y1="1729.0488" x2="1562.0844" y2="532.5547">
						<stop  offset="0" style="stop-color:#4042E2"/>
						<stop  offset="1" style="stop-color:#4F52FF"/>
					</linearGradient>
					<path fill="url(#XMLID_86_)" d="M927.244,376.44c94.958,12.877,421.495,52.704,691.472,31.979
						c12.313-0.945,22.997,8.384,23.652,20.714l53.819,1012.642c0.738,13.885-9.864,25.759-23.744,26.58
						c-113.548,6.72-581.17,32.695-747.964,15.226c-10.151-1.063-17.857-9.61-17.917-19.817L900.305,400.13
						C900.22,385.682,912.927,374.499,927.244,376.44z"/>
					<path fill="#BDD0FB" d="M937.415,402.709c91.383,12.392,405.623,50.72,665.434,30.775c11.849-0.909,22.131,8.068,22.762,19.934
						l51.793,974.511c0.711,13.362-9.493,24.788-22.851,25.579c-109.271,6.467-559.285,31.465-719.799,14.652
						c-9.769-1.023-17.185-9.248-17.242-19.071L911.49,425.506C911.408,411.602,923.637,400.84,937.415,402.709z"/>
					<linearGradient id="XMLID_87_" gradientUnits="userSpaceOnUse" x1="996.0693" y1="605.1396" x2="1261.5459" y2="605.1396">
						<stop  offset="0" style="stop-color:#DAE3FE"/>
						<stop  offset="1" style="stop-color:#E9EFFD"/>
					</linearGradient>
					<path fill="url(#XMLID_87_)" d="M996.085,500.64l9.706,208.925c0.323,6.949,5.936,12.474,12.89,12.67
						c38.693,1.091,159.263,4.032,227.34,0.483c7.701-0.401,13.793-6.631,14.049-14.338c1.298-39.181,4.139-153.221-4.79-200.894
						c-1.442-7.7-8.061-13.343-15.891-13.617l-228.703-7.998C1002.438,485.582,995.702,492.396,996.085,500.64z"/>
					<linearGradient id="XMLID_88_" gradientUnits="userSpaceOnUse" x1="1181.4844" y1="495.2422" x2="842.6024" y2="999.7573">
						<stop  offset="0" style="stop-color:#FE7062"/>
						<stop  offset="1" style="stop-color:#FF928E"/>
					</linearGradient>
					<circle fill="url(#XMLID_88_)" cx="1127.685" cy="575.335" r="44.913"/>
					<linearGradient id="XMLID_89_" gradientUnits="userSpaceOnUse" x1="1239.3555" y1="534.1143" x2="900.4727" y2="1038.6305">
						<stop  offset="0" style="stop-color:#FE7062"/>
						<stop  offset="1" style="stop-color:#FF928E"/>
					</linearGradient>
					<path fill="url(#XMLID_89_)" d="M1059.466,707.197h143.085c8.772,0,14.028-9.687,9.304-17.079
						c-12.153-19.018-37.582-46.956-81.621-45.695c-42.444,1.215-67.602,26.451-80.249,44.551
						C1044.618,696.657,1050.093,707.197,1059.466,707.197z"/>
					<g>
						<linearGradient id="XMLID_90_" gradientUnits="userSpaceOnUse" x1="1310.0361" y1="509.4727" x2="1576.2988" y2="509.4727">
							<stop  offset="0" style="stop-color:#DAE3FE"/>
							<stop  offset="1" style="stop-color:#E9EFFD"/>
						</linearGradient>
						<path fill="url(#XMLID_90_)" d="M1572.414,518.826c2.2,0,3.947-1.799,3.883-3.998l-0.176-6.021
							c-0.063-2.199-1.916-4.03-4.116-4.069l-259.084-4.617c-2.2-0.039-3.401,1.626-2.671,3.702l3.956,11.231
							c0.73,2.075,3.129,3.773,5.328,3.773H1572.414z"/>
					</g>
					<g>
						<linearGradient id="XMLID_91_" gradientUnits="userSpaceOnUse" x1="1310.0361" y1="548.4214" x2="1576.2988" y2="548.4214">
							<stop  offset="0" style="stop-color:#DAE3FE"/>
							<stop  offset="1" style="stop-color:#E9EFFD"/>
						</linearGradient>
						<path fill="url(#XMLID_91_)" d="M1312.921,539.069c-2.2-0.04-3.401,1.626-2.671,3.702l3.956,11.231
							c0.73,2.075,3.129,3.772,5.328,3.772h252.88c2.2,0,3.947-1.799,3.883-3.998l-0.176-6.021c-0.063-2.199-1.916-4.031-4.116-4.07
							L1312.921,539.069z"/>
					</g>
					<g>
						<linearGradient id="XMLID_92_" gradientUnits="userSpaceOnUse" x1="1310.0361" y1="587.936" x2="1576.2988" y2="587.936">
							<stop  offset="0" style="stop-color:#DAE3FE"/>
							<stop  offset="1" style="stop-color:#E9EFFD"/>
						</linearGradient>
						<path fill="url(#XMLID_92_)" d="M1312.921,578.583c-2.2-0.04-3.401,1.626-2.671,3.702l3.956,11.231
							c0.73,2.075,3.129,3.772,5.328,3.772h252.88c2.2,0,3.947-1.799,3.883-3.998l-0.176-6.021c-0.063-2.199-1.916-4.03-4.116-4.069
							L1312.921,578.583z"/>
					</g>
					<g>
						<linearGradient id="XMLID_93_" gradientUnits="userSpaceOnUse" x1="997.8003" y1="778.4775" x2="1600.5186" y2="778.4775">
							<stop  offset="0" style="stop-color:#DAE3FE"/>
							<stop  offset="1" style="stop-color:#E9EFFD"/>
						</linearGradient>
						<path fill="url(#XMLID_93_)" d="M1596.773,787.85c2.2,0,3.882-1.796,3.736-3.992l-0.398-6.035
							c-0.145-2.195-2.063-4.005-4.263-4.023l-595.832-4.696c-2.2-0.018-2.878,1.376-1.508,3.098l9.968,12.519
							c1.371,1.721,4.292,3.129,6.492,3.129H1596.773z"/>
					</g>
					<g>
						<linearGradient id="XMLID_94_" gradientUnits="userSpaceOnUse" x1="997.8003" y1="817.4258" x2="1600.5186" y2="817.4258">
							<stop  offset="0" style="stop-color:#DAE3FE"/>
							<stop  offset="1" style="stop-color:#E9EFFD"/>
						</linearGradient>
						<path fill="url(#XMLID_94_)" d="M1000.017,808.053c-2.2-0.017-2.878,1.377-1.508,3.098l9.968,12.519
							c1.371,1.721,4.292,3.129,6.492,3.129h581.805c2.2,0,3.882-1.796,3.736-3.991l-0.398-6.035
							c-0.145-2.195-2.063-4.006-4.263-4.023L1000.017,808.053z"/>
					</g>
					<linearGradient id="XMLID_95_" gradientUnits="userSpaceOnUse" x1="992.8447" y1="908.7705" x2="1075.9263" y2="908.7705">
						<stop  offset="0" style="stop-color:#DAE3FE"/>
						<stop  offset="1" style="stop-color:#E9EFFD"/>
					</linearGradient>
					<path fill="url(#XMLID_95_)" d="M1001.513,873.116c14.126-1.083,40.581-1.585,55.143-1.788
						c6.17-0.086,11.582,4.094,13.029,10.093c2.811,11.651,6.687,31.882,6.199,53.317c-0.146,6.42-5.405,11.544-11.826,11.475
						l-53.738-0.578c-6.608-0.071-12.095-5.123-12.71-11.703l-4.725-50.555C992.398,878.148,996.276,873.518,1001.513,873.116z"/>
					<g>
						<linearGradient id="XMLID_96_" gradientUnits="userSpaceOnUse" x1="1093.2988" y1="906.0059" x2="1243.2275" y2="906.0059">
							<stop  offset="0" style="stop-color:#DAE3FE"/>
							<stop  offset="1" style="stop-color:#E9EFFD"/>
						</linearGradient>
						<path fill="url(#XMLID_96_)" d="M1096.745,893.701c-2.198-0.092-3.729,1.613-3.402,3.789l2.533,16.868
							c0.327,2.176,2.394,3.956,4.594,3.956h138.807c2.2,0,3.978-1.8,3.95-4l-0.131-10.499c-0.027-2.2-1.849-4.075-4.046-4.167
							L1096.745,893.701z"/>
					</g>
					<linearGradient id="XMLID_97_" gradientUnits="userSpaceOnUse" x1="1285.6035" y1="908.7705" x2="1368.6846" y2="908.7705">
						<stop  offset="0" style="stop-color:#DAE3FE"/>
						<stop  offset="1" style="stop-color:#E9EFFD"/>
					</linearGradient>
					<path fill="url(#XMLID_97_)" d="M1294.271,873.116c14.127-1.083,40.581-1.585,55.144-1.788
						c6.171-0.086,11.582,4.094,13.029,10.093c2.811,11.651,6.688,31.882,6.199,53.317c-0.146,6.42-5.404,11.544-11.825,11.475
						l-53.738-0.578c-6.608-0.071-12.095-5.123-12.71-11.703l-4.725-50.555C1285.156,878.148,1289.034,873.518,1294.271,873.116z"/>
					<g>
						<linearGradient id="XMLID_98_" gradientUnits="userSpaceOnUse" x1="1386.0566" y1="906.0059" x2="1535.9854" y2="906.0059">
							<stop  offset="0" style="stop-color:#DAE3FE"/>
							<stop  offset="1" style="stop-color:#E9EFFD"/>
						</linearGradient>
						<path fill="url(#XMLID_98_)" d="M1389.503,893.701c-2.197-0.092-3.729,1.613-3.402,3.789l2.534,16.868
							c0.326,2.176,2.394,3.956,4.594,3.956h138.807c2.2,0,3.978-1.8,3.95-4l-0.13-10.499c-0.028-2.2-1.849-4.075-4.047-4.167
							L1389.503,893.701z"/>
					</g>
					<g>
						<path fill="#FFFFFF" d="M1077.334,1073.691c-0.044,0-0.09,0-0.136,0l-49.587-0.477c-7.084-0.068-12.933-4.943-13.604-11.338
							l-4.359-41.605c-0.255-2.442,0.503-4.855,2.135-6.799c1.828-2.173,4.593-3.538,7.588-3.744l0,0
							c4.177-0.284,10.061-0.787,16.289-1.316c13.115-1.117,29.438-2.506,38.622-2.621c6.663-0.033,12.315,3.91,13.885,9.713
							c2.583,9.55,2.356,27.629,1.865,46.889C1089.874,1068.648,1084.19,1073.691,1077.334,1073.691z M1019.632,1013.529
							c-1.969,0.133-3.767,1.007-4.932,2.395c-0.962,1.143-1.411,2.547-1.263,3.95l4.358,41.605c0.469,4.47,4.705,7.878,9.854,7.928
							l49.587,0.476c0.033,0,0.066,0,0.1,0c4.805,0,8.784-3.385,8.892-7.587c0.483-18.968,0.715-36.741-1.735-45.8
							c-1.098-4.059-5.321-6.883-10.161-6.897c-9.047,0.113-25.293,1.496-38.346,2.608
							C1029.74,1012.738,1023.84,1013.24,1019.632,1013.529L1019.632,1013.529z"/>
						<linearGradient id="XMLID_99_" gradientUnits="userSpaceOnUse" x1="1018.5747" y1="1040.2871" x2="1080.0581" y2="1040.2871">
							<stop  offset="0" style="stop-color:#DAE3FE"/>
							<stop  offset="1" style="stop-color:#E9EFFD"/>
						</linearGradient>
						<path fill="url(#XMLID_99_)" d="M1024.966,1017.822c10.417-0.712,33.058-3.011,43.796-3.145
							c4.55-0.057,8.541,2.692,9.607,6.639c2.073,7.662,1.798,22.937,1.438,37.033c-0.108,4.223-3.985,7.593-8.72,7.547
							l-39.627-0.381c-4.873-0.046-8.918-3.369-9.372-7.696l-3.484-33.248C1018.245,1021.132,1021.105,1018.087,1024.966,1017.822z"
							/>
						<g>
							
								<linearGradient id="XMLID_100_" gradientUnits="userSpaceOnUse" x1="1120.4746" y1="1042.9248" x2="1600.9326" y2="1042.9248">
								<stop  offset="0" style="stop-color:#DAE3FE"/>
								<stop  offset="1" style="stop-color:#E9EFFD"/>
							</linearGradient>
							<path fill="url(#XMLID_100_)" d="M1120.888,1046.064c1.436,5.443,6.381,9.221,12.011,9.173l458.803-3.912
								c5.189-0.044,9.342-4.324,9.229-9.514c-0.11-5.045-4.22-9.084-9.266-9.106l-458.815-2.093
								C1124.751,1030.575,1118.823,1038.233,1120.888,1046.064z"/>
						</g>
						<linearGradient id="XMLID_101_" gradientUnits="userSpaceOnUse" x1="1172.6797" y1="818.7319" x2="919.4703" y2="1250.9008">
							<stop  offset="0" style="stop-color:#FE7062"/>
							<stop  offset="1" style="stop-color:#FF928E"/>
						</linearGradient>
						<path fill="url(#XMLID_101_)" d="M1027.077,1024.348L1027.077,1024.348c3.682-2.161,8.419-0.871,10.499,2.855l9.781,17.533
							c0.979,1.755,3.54,1.644,4.364-0.189l24.259-54.008c1.21-2.694,5.222-1.783,5.178,1.17
							c-0.248,16.52-4.631,47.922-31.027,74.206c0,0-14.546-5.653-26.26-31.377
							C1022.178,1030.822,1023.556,1026.413,1027.077,1024.348z"/>
						<path fill="#FFFFFF" d="M1077.334,1179.969c-0.044,0-0.09,0-0.136,0l-49.587-0.476c-7.084-0.069-12.933-4.944-13.604-11.338
							l-4.359-41.605c-0.255-2.442,0.503-4.856,2.135-6.799c1.828-2.174,4.593-3.538,7.588-3.744l0,0
							c4.177-0.285,10.061-0.786,16.289-1.316c13.115-1.117,29.438-2.507,38.622-2.622c0.067,0,0.134-0.002,0.2-0.002
							c6.521,0,12.131,3.972,13.686,9.715c2.583,9.551,2.356,27.63,1.865,46.889
							C1089.874,1174.927,1084.19,1179.969,1077.334,1179.969z M1019.632,1119.807c-1.969,0.134-3.767,1.008-4.932,2.395
							c-0.962,1.144-1.411,2.548-1.263,3.951l4.358,41.605c0.469,4.469,4.705,7.877,9.854,7.928l49.587,0.476c0.033,0,0.066,0,0.1,0
							c4.805,0,8.784-3.386,8.892-7.587c0.483-18.968,0.715-36.742-1.735-45.801c-1.099-4.057-5.381-6.974-10.162-6.896
							c-9.046,0.113-25.292,1.496-38.345,2.607C1029.74,1119.017,1023.84,1119.519,1019.632,1119.807L1019.632,1119.807z"/>
						
							<linearGradient id="XMLID_102_" gradientUnits="userSpaceOnUse" x1="1018.5747" y1="1146.5645" x2="1080.0581" y2="1146.5645">
							<stop  offset="0" style="stop-color:#DAE3FE"/>
							<stop  offset="1" style="stop-color:#E9EFFD"/>
						</linearGradient>
						<path fill="url(#XMLID_102_)" d="M1024.966,1124.101c10.417-0.712,33.058-3.011,43.796-3.145
							c4.55-0.057,8.541,2.692,9.607,6.638c2.073,7.663,1.798,22.938,1.438,37.034c-0.108,4.223-3.985,7.593-8.72,7.547
							l-39.627-0.381c-4.873-0.046-8.918-3.369-9.372-7.696l-3.484-33.248C1018.245,1127.41,1021.105,1124.365,1024.966,1124.101z"
							/>
						<g>
							
								<linearGradient id="XMLID_103_" gradientUnits="userSpaceOnUse" x1="1120.4746" y1="1149.2031" x2="1600.9326" y2="1149.2031">
								<stop  offset="0" style="stop-color:#DAE3FE"/>
								<stop  offset="1" style="stop-color:#E9EFFD"/>
							</linearGradient>
							<path fill="url(#XMLID_103_)" d="M1120.888,1152.343c1.436,5.444,6.381,9.22,12.011,9.172l458.803-3.911
								c5.189-0.045,9.342-4.324,9.229-9.514c-0.11-5.045-4.22-9.084-9.266-9.107l-458.815-2.092
								C1124.751,1136.854,1118.823,1144.512,1120.888,1152.343z"/>
						</g>
						<linearGradient id="XMLID_104_" gradientUnits="userSpaceOnUse" x1="1219.0342" y1="845.8926" x2="965.8256" y2="1278.0601">
							<stop  offset="0" style="stop-color:#FE7062"/>
							<stop  offset="1" style="stop-color:#FF928E"/>
						</linearGradient>
						<path fill="url(#XMLID_104_)" d="M1027.077,1130.625L1027.077,1130.625c3.682-2.16,8.419-0.871,10.499,2.856l9.781,17.532
							c0.979,1.756,3.54,1.645,4.364-0.188l24.259-54.008c1.21-2.694,5.222-1.783,5.178,1.17
							c-0.248,16.52-4.631,47.921-31.027,74.206c0,0-14.546-5.654-26.26-31.377
							C1022.178,1137.101,1023.556,1132.691,1027.077,1130.625z"/>
						<path fill="#FFFFFF" d="M1077.334,1286.247c-0.044,0-0.09,0-0.136,0l-49.587-0.476c-7.084-0.067-12.933-4.94-13.604-11.336
							l-4.359-41.605c-0.255-2.443,0.503-4.858,2.136-6.801c1.828-2.174,4.592-3.538,7.587-3.744l0,0
							c4.177-0.285,10.061-0.787,16.289-1.316c13.115-1.118,29.438-2.507,38.622-2.622c0.067,0,0.134-0.002,0.2-0.002
							c6.521,0,12.131,3.972,13.686,9.714c2.583,9.552,2.356,27.631,1.865,46.891
							C1089.874,1281.205,1084.19,1286.247,1077.334,1286.247z M1019.632,1226.085c-1.969,0.134-3.767,1.008-4.932,2.395
							c-0.962,1.144-1.411,2.547-1.263,3.953l4.358,41.604c0.469,4.47,4.705,7.878,9.853,7.926l49.588,0.477c0.033,0,0.066,0,0.1,0
							c4.805,0,8.784-3.386,8.892-7.588c0.483-18.967,0.715-36.741-1.735-45.799c-1.099-4.058-5.381-6.989-10.162-6.898
							c-9.046,0.113-25.292,1.497-38.345,2.608C1029.74,1225.295,1023.84,1225.797,1019.632,1226.085L1019.632,1226.085z"/>
						
							<linearGradient id="XMLID_105_" gradientUnits="userSpaceOnUse" x1="1018.5747" y1="1252.8438" x2="1080.0581" y2="1252.8438">
							<stop  offset="0" style="stop-color:#DAE3FE"/>
							<stop  offset="1" style="stop-color:#E9EFFD"/>
						</linearGradient>
						<path fill="url(#XMLID_105_)" d="M1024.966,1230.379c10.417-0.712,33.058-3.011,43.796-3.145
							c4.55-0.057,8.541,2.692,9.607,6.638c2.073,7.663,1.798,22.937,1.438,37.034c-0.108,4.223-3.985,7.592-8.72,7.547
							l-39.627-0.381c-4.873-0.047-8.918-3.369-9.372-7.697l-3.484-33.247C1018.245,1233.688,1021.105,1230.643,1024.966,1230.379z"
							/>
						<g>
							
								<linearGradient id="XMLID_106_" gradientUnits="userSpaceOnUse" x1="1120.4746" y1="1255.4805" x2="1600.9326" y2="1255.4805">
								<stop  offset="0" style="stop-color:#DAE3FE"/>
								<stop  offset="1" style="stop-color:#E9EFFD"/>
							</linearGradient>
							<path fill="url(#XMLID_106_)" d="M1120.888,1258.621c1.436,5.443,6.381,9.221,12.011,9.172l458.803-3.912
								c5.189-0.044,9.342-4.323,9.229-9.514c-0.11-5.045-4.22-9.083-9.266-9.105l-458.815-2.094
								C1124.751,1243.132,1118.823,1250.79,1120.888,1258.621z"/>
						</g>
						<linearGradient id="XMLID_107_" gradientUnits="userSpaceOnUse" x1="1258.0107" y1="952.4268" x2="924.8406" y2="1416.9609">
							<stop  offset="0" style="stop-color:#FE7062"/>
							<stop  offset="1" style="stop-color:#FF928E"/>
						</linearGradient>
						<path fill="url(#XMLID_107_)" d="M1027.077,1236.903L1027.077,1236.903c3.682-2.16,8.419-0.871,10.499,2.856l9.781,17.533
							c0.979,1.755,3.54,1.644,4.364-0.189l24.259-54.008c1.21-2.694,5.222-1.783,5.178,1.17
							c-0.248,16.52-4.631,47.921-31.027,74.206c0,0-14.546-5.654-26.26-31.377
							C1022.178,1243.379,1023.556,1238.97,1027.077,1236.903z"/>
						<path fill="#FFFFFF" d="M1077.334,1392.525c-0.044,0-0.09,0-0.136,0l-49.587-0.477c-7.084-0.066-12.933-4.939-13.604-11.336
							l-4.359-41.605c-0.255-2.442,0.503-4.857,2.136-6.801c1.828-2.173,4.592-3.538,7.587-3.744l0,0
							c4.177-0.284,10.061-0.787,16.289-1.316c13.115-1.117,29.438-2.506,38.622-2.621c0.067,0,0.134-0.002,0.2-0.002
							c6.521,0,12.131,3.971,13.686,9.715c2.583,9.55,2.356,27.629,1.865,46.889
							C1089.874,1387.482,1084.19,1392.525,1077.334,1392.525z M1019.632,1332.363c-1.969,0.133-3.767,1.007-4.932,2.395
							c-0.962,1.143-1.411,2.547-1.263,3.952l4.358,41.605c0.469,4.47,4.705,7.878,9.853,7.926l49.588,0.476c0.033,0,0.066,0,0.1,0
							c4.805,0,8.784-3.385,8.892-7.587c0.483-18.968,0.715-36.741-1.735-45.8c-1.099-4.057-5.381-7.002-10.162-6.897
							c-9.046,0.113-25.292,1.496-38.345,2.608C1029.74,1331.572,1023.84,1332.074,1019.632,1332.363L1019.632,1332.363z"/>
						
							<linearGradient id="XMLID_108_" gradientUnits="userSpaceOnUse" x1="1018.5747" y1="1359.1211" x2="1080.0581" y2="1359.1211">
							<stop  offset="0" style="stop-color:#DAE3FE"/>
							<stop  offset="1" style="stop-color:#E9EFFD"/>
						</linearGradient>
						<path fill="url(#XMLID_108_)" d="M1024.966,1336.657c10.417-0.712,33.058-3.011,43.796-3.145
							c4.55-0.057,8.541,2.692,9.607,6.638c2.073,7.662,1.798,22.937,1.438,37.034c-0.108,4.222-3.985,7.593-8.72,7.547
							l-39.627-0.381c-4.873-0.047-8.918-3.369-9.372-7.696l-3.484-33.248C1018.245,1339.967,1021.105,1336.921,1024.966,1336.657z"
							/>
						<g>
							
								<linearGradient id="XMLID_109_" gradientUnits="userSpaceOnUse" x1="1120.4746" y1="1361.7598" x2="1600.9326" y2="1361.7598">
								<stop  offset="0" style="stop-color:#DAE3FE"/>
								<stop  offset="1" style="stop-color:#E9EFFD"/>
							</linearGradient>
							<path fill="url(#XMLID_109_)" d="M1120.888,1364.899L1120.888,1364.899c1.436,5.443,6.381,9.22,12.011,9.172l458.803-3.911
								c5.189-0.045,9.342-4.324,9.229-9.514c-0.11-5.045-4.22-9.084-9.266-9.107l-458.815-2.092
								C1124.751,1349.41,1118.823,1357.068,1120.888,1364.899z"/>
						</g>
						<linearGradient id="XMLID_110_" gradientUnits="userSpaceOnUse" x1="1311.7461" y1="900.21" x2="1058.536" y2="1332.3801">
							<stop  offset="0" style="stop-color:#FE7062"/>
							<stop  offset="1" style="stop-color:#FF928E"/>
						</linearGradient>
						<path fill="url(#XMLID_110_)" d="M1027.077,1343.182L1027.077,1343.182c3.682-2.16,8.419-0.871,10.499,2.856l9.781,17.532
							c0.979,1.756,3.54,1.645,4.364-0.189l24.259-54.007c1.21-2.694,5.222-1.784,5.178,1.169
							c-0.248,16.521-4.631,47.922-31.027,74.207c0,0-14.546-5.654-26.26-31.377
							C1022.178,1349.657,1023.556,1345.248,1027.077,1343.182z"/>
					</g>
				</g>
				<linearGradient id="XMLID_111_" gradientUnits="userSpaceOnUse" x1="1393.4961" y1="143.3608" x2="1073.6523" y2="564.1078">
					<stop  offset="0" style="stop-color:#09005D"/>
					<stop  offset="1" style="stop-color:#1A0F91"/>
				</linearGradient>
				<path fill="url(#XMLID_111_)" d="M1315.915,247.156c-25.117-17.474-46.958-17.127-62.332-12.591
					c-14.024,4.138-23.115,17.679-21.781,32.24l6.63,72.37l78.897,7.001C1317.33,346.177,1365.175,281.425,1315.915,247.156z
					 M1281.219,305.541c-10.865,0-19.673-8.808-19.673-19.673s8.808-19.673,19.673-19.673s19.673,8.808,19.673,19.673
					S1292.084,305.541,1281.219,305.541z"/>
				<linearGradient id="XMLID_112_" gradientUnits="userSpaceOnUse" x1="1241.4258" y1="275.6279" x2="1292.6592" y2="275.6279">
					<stop  offset="0" style="stop-color:#DAE3FE"/>
					<stop  offset="1" style="stop-color:#E9EFFD"/>
				</linearGradient>
				<path fill="url(#XMLID_112_)" d="M1246.313,308.732c-0.973,0-1.803-0.742-1.894-1.731l-1.056-11.525
					c-0.097-1.047,0.675-1.973,1.722-2.07c1.068-0.1,1.975,0.675,2.069,1.724l1.056,11.525c0.097,1.047-0.675,1.973-1.722,2.069
					C1246.43,308.73,1246.371,308.732,1246.313,308.732z M1244.244,286.146c-0.973,0-1.803-0.742-1.894-1.73l-0.802-8.75
					c-1.271-13.872,7.457-26.788,20.753-30.712c9.417-2.779,19.119-3.178,28.836-1.185c1.029,0.21,1.693,1.218,1.482,2.248
					c-0.211,1.028-1.209,1.687-2.247,1.482c-9.102-1.863-18.182-1.493-26.993,1.106c-11.559,3.412-19.146,14.646-18.04,26.715
					l0.802,8.75c0.097,1.047-0.675,1.973-1.722,2.07C1244.36,286.145,1244.302,286.146,1244.244,286.146z"/>
				<linearGradient id="XMLID_113_" gradientUnits="userSpaceOnUse" x1="1428.5801" y1="170.0308" x2="1108.7368" y2="590.7772">
					<stop  offset="0" style="stop-color:#09005D"/>
					<stop  offset="1" style="stop-color:#1A0F91"/>
				</linearGradient>
				<path fill="url(#XMLID_113_)" d="M1130.751,385.944v-36.385c0-12.56,10.41-22.62,22.963-22.189l250.858,8.595
					c11.133,0.381,20.149,9.169,20.816,20.289l2.096,34.961L1130.751,385.944z"/>
				<linearGradient id="XMLID_114_" gradientUnits="userSpaceOnUse" x1="1211.5986" y1="339.1753" x2="1226.1943" y2="339.1753">
					<stop  offset="0" style="stop-color:#DAE3FE"/>
					<stop  offset="1" style="stop-color:#E9EFFD"/>
				</linearGradient>
				<path fill="url(#XMLID_114_)" d="M1224.291,341.079h-10.788c-1.051,0-1.904-0.852-1.904-1.904s0.853-1.904,1.904-1.904h10.788
					c1.051,0,1.904,0.852,1.904,1.904S1225.342,341.079,1224.291,341.079z"/>
				<linearGradient id="XMLID_115_" gradientUnits="userSpaceOnUse" x1="1142.4258" y1="355.895" x2="1204.6172" y2="355.895">
					<stop  offset="0" style="stop-color:#DAE3FE"/>
					<stop  offset="1" style="stop-color:#E9EFFD"/>
				</linearGradient>
				<path fill="url(#XMLID_115_)" d="M1144.33,374.519c-1.051,0-1.904-0.852-1.904-1.904v-14.719
					c0-11.373,9.252-20.624,20.625-20.624h39.663c1.052,0,1.904,0.852,1.904,1.904s-0.852,1.904-1.904,1.904h-39.663
					c-9.272,0-16.817,7.544-16.817,16.816v14.719C1146.233,373.667,1145.381,374.519,1144.33,374.519z"/>
				<linearGradient id="XMLID_116_" gradientUnits="userSpaceOnUse" x1="1388.2754" y1="195.7676" x2="1167.4303" y2="601.2839">
					<stop  offset="0" style="stop-color:#4042E2"/>
					<stop  offset="1" style="stop-color:#4F52FF"/>
				</linearGradient>
				<path fill="url(#XMLID_116_)" d="M1052.148,372.627l438.674-0.012c15.773,0,29.259,11.351,31.949,26.893l0.371,2.145
					c2.947,17.024-10.16,32.595-27.437,32.595h-450.054c-10.34,0-18.579-8.646-18.083-18.973l0.968-20.143
					C1029.143,382.532,1039.534,372.628,1052.148,372.627z"/>
			</g>
			<g>
				<linearGradient id="XMLID_117_" gradientUnits="userSpaceOnUse" x1="1884.0361" y1="1531.4502" x2="1919.8689" y2="1306.0514">
					<stop  offset="0" style="stop-color:#4042E2"/>
					<stop  offset="1" style="stop-color:#4F52FF"/>
				</linearGradient>
				<rect x="1888.688" y="1360.396" fill="url(#XMLID_117_)" width="16.578" height="179.289"/>
				<linearGradient id="XMLID_118_" gradientUnits="userSpaceOnUse" x1="1898.0352" y1="1533.0879" x2="1934.8622" y2="1301.4344">
					<stop  offset="0" style="stop-color:#4042E2"/>
					<stop  offset="1" style="stop-color:#4F52FF"/>
				</linearGradient>
				<path fill="url(#XMLID_118_)" d="M1969.58,1543.143h-145.205v-6.461c0-2.392,1.938-4.331,4.331-4.331h136.206
					c2.578,0,4.668,2.09,4.668,4.668V1543.143z"/>
				<linearGradient id="XMLID_119_" gradientUnits="userSpaceOnUse" x1="1870.7197" y1="1529.333" x2="1906.5525" y2="1303.9341">
					<stop  offset="0" style="stop-color:#4042E2"/>
					<stop  offset="1" style="stop-color:#4F52FF"/>
				</linearGradient>
				<path fill="url(#XMLID_119_)" d="M1991.131,1354.174c0,9.807-8.023,17.829-17.829,17.829h-146.91
					c-9.806,0-17.829-8.022-17.829-17.829v-16.12c0-9.806,8.023-17.829,17.829-17.829h146.91c9.806,0,17.829,8.023,17.829,17.829
					V1354.174z"/>
			</g>
			<g>
				<g>
					<linearGradient id="XMLID_120_" gradientUnits="userSpaceOnUse" x1="1800.0127" y1="1451.0713" x2="1816.6792" y2="1553.0707">
						<stop  offset="0" style="stop-color:#FF928E"/>
						<stop  offset="1" style="stop-color:#FEB3B1"/>
					</linearGradient>
					<path fill="url(#XMLID_120_)" d="M1774.586,1240.853c0,0-24.636,3.819-52.334,22.335c-4.358,2.914-6.75,7.993-6.093,13.195
						c3.316,26.271,16.953,111.303,61.92,194.354c2.371,4.379,3.053,9.478,2.007,14.346l-7.813,36.356l-14.488,13.584h37.317
						l24.847-67.238l-10.624-3.36c-8.238-2.604-13.89-10.182-14.039-18.82l-1.247-72.129c1.063-32.136-19.704-54.308-19.704-54.308
						l59.597-2.899L1774.586,1240.853z"/>
					<linearGradient id="XMLID_121_" gradientUnits="userSpaceOnUse" x1="1788.1777" y1="1464.749" x2="1770.8394" y2="1730.6036">
						<stop  offset="0" style="stop-color:#09005D"/>
						<stop  offset="1" style="stop-color:#1A0F91"/>
					</linearGradient>
					<path fill="url(#XMLID_121_)" d="M1743.214,1541.583c-3.398,4.448,36.578,10.317,56.775,0.589c0,0,27.997-48.712,27.997-73.793
						c0,0-2.222-5.113-18.661-3.954c0,0-9.401,57.678-19.327,64.139c-9.927,6.46-27.771,0.653-27.771,0.653
						S1748.229,1535.021,1743.214,1541.583z"/>
					<linearGradient id="XMLID_122_" gradientUnits="userSpaceOnUse" x1="1641.7236" y1="1455.4971" x2="1794.3903" y2="1313.4974">
						<stop  offset="0" style="stop-color:#FF928E"/>
						<stop  offset="1" style="stop-color:#FEB3B1"/>
					</linearGradient>
					<path fill="url(#XMLID_122_)" d="M1826.392,1320.225c-0.317-0.549-64.165-7.678-64.165-7.678s2.089,19.414-4.441,46.138
						s-100.273,142.507-100.273,142.507l9.829,31.159c-30.391,10.587-60.285,12.278-89.701,5.396l60.916-36.555
						c0,0,57.01-194.279,91.93-228.938l64-22.143L1826.392,1320.225z"/>
					<linearGradient id="XMLID_123_" gradientUnits="userSpaceOnUse" x1="1731.1279" y1="1266.2256" x2="2009.8018" y2="1266.2256">
						<stop  offset="0" style="stop-color:#09005D"/>
						<stop  offset="1" style="stop-color:#1A0F91"/>
					</linearGradient>
					<path fill="url(#XMLID_123_)" d="M1969.58,1207.181c0,0,36.786,54.715,39.805,79.672c3.019,24.959-10.076,35.101-48.675,36.772
						c-38.598,1.672-141.638,1.646-141.638,1.646l-87.944-75.159c0,0,64.09-22.869,80.753-29.335
						C1828.544,1214.31,1969.58,1207.181,1969.58,1207.181z"/>
					<linearGradient id="XMLID_124_" gradientUnits="userSpaceOnUse" x1="1620.8652" y1="1453.8389" x2="1603.5271" y2="1719.6897">
						<stop  offset="0" style="stop-color:#09005D"/>
						<stop  offset="1" style="stop-color:#1A0F91"/>
					</linearGradient>
					<path fill="url(#XMLID_124_)" d="M1663.627,1521.857c0,0,10.582,10.249,3.434,21.653c0,0-83.829,14.858-106.589,8.117
						c0,0,4.726-10.787,30.354-23.064l-1.891,1.451c-2.394,1.837-0.99,5.664,2.022,5.492
						C1607.846,1534.544,1642.796,1531.45,1663.627,1521.857z"/>
				</g>
				<g>
					<linearGradient id="XMLID_125_" gradientUnits="userSpaceOnUse" x1="2005.7715" y1="903.6855" x2="1910.5145" y2="996.8718">
						<stop  offset="0" style="stop-color:#09005D"/>
						<stop  offset="1" style="stop-color:#1A0F91"/>
					</linearGradient>
					<path fill="url(#XMLID_125_)" d="M1892.671,885.683c5.558,1.733,25.595,8.924,23.008,21.811
						c-0.344,1.71,1.268,3.155,2.951,2.702c8.633-2.324,27.704-5.254,39.526,9.561c10.438,13.079,2.638,25.422-3.722,32.196
						c-1.536,1.636-0.245,4.293,1.981,4.012c15.872-2.004,50.36-2.483,56.003,29.824c5.263,30.128-15.708,38.624-28.145,41.02
						c-2.104,0.405-2.597,3.171-0.787,4.319c6.205,3.936,13.394,12.069,10.488,28.121c-4.553,25.158-53.878,23.099-59.644,22.771
						c-0.364-0.021-0.71-0.127-1.028-0.308l-79.006-45.06c-0.616-0.352-1.043-0.959-1.164-1.658l-15.95-92.115
						c-0.129-0.746,0.104-1.508,0.629-2.053l39.574-56.873C1868.361,879.03,1891.813,885.415,1892.671,885.683z"/>
					<linearGradient id="XMLID_126_" gradientUnits="userSpaceOnUse" x1="1896.2852" y1="1121.8408" x2="1848.2849" y2="1337.842">
						<stop  offset="0" style="stop-color:#FE7062"/>
						<stop  offset="1" style="stop-color:#FF928E"/>
					</linearGradient>
					<path fill="url(#XMLID_126_)" d="M1867.528,1185.809c0,0-42.838-40.79-63.924-67.807c-11.398-14.604-14.978-33.83-9.706-51.59
						c9.627-32.434,26.735-66.026,28.296-71.255c2.392-8.014,50.423-7.681,50.423-7.681s94.518,61.343,131.653,165.252
						l-41.706,12.984c0,0-24.679-41.402-49.063-67.726c0,0,42.192,55.737,43.679,78.556L1867.528,1185.809z"/>
					<linearGradient id="XMLID_127_" gradientUnits="userSpaceOnUse" x1="1830.874" y1="928.0605" x2="1855.5406" y2="1009.3939">
						<stop  offset="0" style="stop-color:#FF928E"/>
						<stop  offset="1" style="stop-color:#FEB3B1"/>
					</linearGradient>
					<path fill="url(#XMLID_127_)" d="M1816.386,950.369c0.501,1.666,13.038,43.227,14.019,44.089s27.493,2.289,39.973-6.24
						l-23.818-54.169L1816.386,950.369z"/>
					<g>
						<linearGradient id="XMLID_128_" gradientUnits="userSpaceOnUse" x1="1784.8828" y1="888.6201" x2="1859.549" y2="928.6199">
							<stop  offset="0" style="stop-color:#FF928E"/>
							<stop  offset="1" style="stop-color:#FEB3B1"/>
						</linearGradient>
						<path fill="url(#XMLID_128_)" d="M1812.448,859.063c0,0-19.339,15.15-25.627,50.742c-6.287,35.594,8.758,47.157,23.231,45.378
							c14.475-1.78,35.226-7.737,51.73-34.106C1878.287,894.708,1837.876,840.426,1812.448,859.063z"/>
						
							<linearGradient id="XMLID_129_" gradientUnits="userSpaceOnUse" x1="1285.2012" y1="1074.6357" x2="1189.8109" y2="1167.9524" gradientTransform="matrix(0.9651 -0.2619 0.2619 0.9651 366.6063 96.0781)">
							<stop  offset="0" style="stop-color:#09005D"/>
							<stop  offset="1" style="stop-color:#1A0F91"/>
						</linearGradient>
						<path fill="url(#XMLID_129_)" d="M1842.397,908.245c0,0,3.949-50.649-37.14-40.086l-7.807,9.348
							c0,0-21.969-21.526-0.63-40.438c21.339-18.911,52.935-16.646,72.439,13.725c19.506,30.37,27.331,52.119,14.188,72.748
							s-25.228,4.561-25.228,4.561s5.473-17.443-0.555-24.346c-6.027-6.903-12.349,5.117-12.349,5.117L1842.397,908.245z"/>
						<linearGradient id="XMLID_130_" gradientUnits="userSpaceOnUse" x1="1788.4072" y1="882.4082" x2="1863.0743" y2="922.4084">
							<stop  offset="0" style="stop-color:#FF928E"/>
							<stop  offset="1" style="stop-color:#FEB3B1"/>
						</linearGradient>
						<path fill="url(#XMLID_130_)" d="M1843.381,921.849c0,0,1.878-26.048,15.563-19.591s-3.072,24.424-9.861,30.613
							L1843.381,921.849z"/>
					</g>
					<linearGradient id="XMLID_131_" gradientUnits="userSpaceOnUse" x1="2042.1113" y1="1156.8818" x2="1834.7781" y2="1192.882">
						<stop  offset="0" style="stop-color:#FF928E"/>
						<stop  offset="1" style="stop-color:#FEB3B1"/>
					</linearGradient>
					<path fill="url(#XMLID_131_)" d="M1780.259,1188.837l31.473-30.336l43.539,18.393c0,0,43.339,6.715,68.144,0
						c24.804-6.714,24.804-6.714,24.804-6.714l56.053-17.451l8.804,24.88c2.234,6.317-0.012,13.329-5.474,17.21
						c-4.849,3.446-10.533,7.234-14.156,8.818c-7.382,3.229-181.964-2.234-181.964-2.234L1780.259,1188.837z"/>
				</g>
			</g>
			<g>
				<linearGradient id="XMLID_132_" gradientUnits="userSpaceOnUse" x1="533.6284" y1="1303.1084" x2="369.4286" y2="1674.7192">
					<stop  offset="0" style="stop-color:#4042E2"/>
					<stop  offset="1" style="stop-color:#4F52FF"/>
				</linearGradient>
				<path fill="url(#XMLID_132_)" d="M476.418,1333.377c-4.76,7.043-23.678,166.516-26.639,225.414
					c-0.2,3.983,2.985,7.305,6.974,7.305l0,0c3.439,0,6.366-2.505,6.896-5.903l34.603-221.743L476.418,1333.377z"/>
				<linearGradient id="XMLID_133_" gradientUnits="userSpaceOnUse" x1="669.1631" y1="1362.9951" x2="504.9626" y2="1734.6075">
					<stop  offset="0" style="stop-color:#4042E2"/>
					<stop  offset="1" style="stop-color:#4F52FF"/>
				</linearGradient>
				<path fill="url(#XMLID_133_)" d="M628.52,1333.377c4.76,7.043,23.678,166.516,26.639,225.414
					c0.201,3.983-2.985,7.305-6.974,7.305l0,0c-3.439,0-6.366-2.505-6.896-5.903l-34.603-221.743L628.52,1333.377z"/>
				<linearGradient id="XMLID_134_" gradientUnits="userSpaceOnUse" x1="549.1519" y1="1357.3818" x2="565.1519" y2="1188.381">
					<stop  offset="0" style="stop-color:#FE7062"/>
					<stop  offset="1" style="stop-color:#FF928E"/>
				</linearGradient>
				<path fill="url(#XMLID_134_)" d="M447.8,1320.93l-0.016,1.739c-0.114,12.511,10.664,22.772,24.159,23.003l159.94,2.721
					c13.301,0.226,24.389-9.387,25.035-21.703l0.083-1.592c0.673-12.846-10.235-23.668-24.107-23.916l-160.008-2.867
					C459.192,1298.068,447.916,1308.234,447.8,1320.93z"/>
			</g>
			<g>
				<g>
					
						<linearGradient id="XMLID_135_" gradientUnits="userSpaceOnUse" x1="-416.2559" y1="1013.9766" x2="-449.2882" y2="1111.1306" gradientTransform="matrix(0.8649 -0.502 0.502 0.8649 625.0104 -123.4998)">
						<stop  offset="0" style="stop-color:#FF928E"/>
						<stop  offset="1" style="stop-color:#FEB3B1"/>
					</linearGradient>
					<path fill="url(#XMLID_135_)" d="M821.59,947.372l-4.167-6.776c-2.398-3.9-6.439-6.498-10.983-7.062l-44.346-5.497
						c0,0-1.966-4.98,6.181-10.877s3.334-15.495,3.334-15.495s-10.897,8.938-26.666,22.714
						c-9.019,7.879-12.442,18.476-13.723,26.109l-7.099,15.561c3.962,4.667,10.085,8.365,19.396,7.186l1.614-11.912
						C771.795,962.197,797.164,956.994,821.59,947.372z"/>
					<linearGradient id="XMLID_136_" gradientUnits="userSpaceOnUse" x1="740.9448" y1="936.1543" x2="634.0079" y2="1075.6815">
						<stop  offset="0" style="stop-color:#4042E2"/>
						<stop  offset="1" style="stop-color:#4F52FF"/>
					</linearGradient>
					<path fill="url(#XMLID_136_)" d="M724.121,966.049l-26.345,57.751c-5.494,12.044-19.349,17.81-31.765,13.219l-53.992-47.986
						l-1.195,96.341l56.271,11.27c31.494,6.309,61.775-15.275,66.086-47.104l10.335-76.305
						C734.206,974.414,728.083,970.716,724.121,966.049z"/>
				</g>
				<g>
					<linearGradient id="XMLID_137_" gradientUnits="userSpaceOnUse" x1="712.3145" y1="1552.5137" x2="828.2905" y2="1552.5137">
						<stop  offset="0" style="stop-color:#FE7062"/>
						<stop  offset="1" style="stop-color:#FF928E"/>
					</linearGradient>
					<path fill="url(#XMLID_137_)" d="M758.95,1552.999c-28.432,0-41.012-2.438-46.636-4.663c1.093,4.669,5.251,8.355,10.506,8.355
						h100.583c3.387,0,5.525-3.243,4.716-6.179C816.654,1551.435,792.302,1552.999,758.95,1552.999z"/>
					<linearGradient id="XMLID_138_" gradientUnits="userSpaceOnUse" x1="801.6694" y1="1329.501" x2="769.9811" y2="1548.439">
						<stop  offset="0" style="stop-color:#020039"/>
						<stop  offset="1" style="stop-color:#090056"/>
					</linearGradient>
					<path fill="url(#XMLID_138_)" d="M828.119,1550.513c-0.163-0.592-0.403-1.175-0.824-1.712
						c-7.662-9.781-23.053-25.145-43.989-24.85c-30.671,0.433-41.365,3.76-65.199,0.188l-5.623,18.637
						c-0.572,1.9-0.583,3.798-0.17,5.561c5.624,2.225,18.204,4.663,46.636,4.663
						C792.302,1552.999,816.654,1551.435,828.119,1550.513z"/>
				</g>
				<linearGradient id="XMLID_139_" gradientUnits="userSpaceOnUse" x1="718.1074" y1="1517.5635" x2="749.4868" y2="1517.5635">
					<stop  offset="0" style="stop-color:#FF928E"/>
					<stop  offset="1" style="stop-color:#FEB3B1"/>
				</linearGradient>
				<path fill="url(#XMLID_139_)" d="M725.009,1504.055l-6.902,23.474c0,0,15.291,6.96,28.739,1.372l2.641-20.337L725.009,1504.055z
					"/>
				<g>
					<linearGradient id="XMLID_140_" gradientUnits="userSpaceOnUse" x1="894.2168" y1="1529.5293" x2="987.854" y2="1529.5293">
						<stop  offset="0" style="stop-color:#FE7062"/>
						<stop  offset="1" style="stop-color:#FF928E"/>
					</linearGradient>
					<path fill="url(#XMLID_140_)" d="M933.479,1538.217c-22.164,17.808-33.491,23.795-39.262,25.592
						c3.763,2.938,9.302,3.193,13.398-0.099l78.408-63c2.641-2.121,2.286-5.976-0.175-7.747
						C977.485,1500.86,959.478,1517.326,933.479,1538.217z"/>
					<linearGradient id="XMLID_141_" gradientUnits="userSpaceOnUse" x1="958.6255" y1="1352.2207" x2="926.9376" y2="1571.1559">
						<stop  offset="0" style="stop-color:#020039"/>
						<stop  offset="1" style="stop-color:#090056"/>
					</linearGradient>
					<path fill="url(#XMLID_141_)" d="M985.848,1492.963c-0.496-0.356-1.046-0.658-1.708-0.813
						c-12.071-2.789-33.646-5.068-49.783,8.274c-23.64,19.546-29.902,28.825-50.708,40.982l7.235,17.981
						c0.738,1.832,1.913,3.312,3.333,4.42c5.771-1.797,17.098-7.784,39.262-25.592
						C959.478,1517.326,977.485,1500.86,985.848,1492.963z"/>
				</g>
				<linearGradient id="XMLID_142_" gradientUnits="userSpaceOnUse" x1="668.7964" y1="893.999" x2="668.7964" y2="1099.9991">
					<stop  offset="0" style="stop-color:#020039"/>
					<stop  offset="1" style="stop-color:#090056"/>
				</linearGradient>
				<path fill="url(#XMLID_142_)" d="M577.364,1236.611c0,0,170.221,13.898,205.14,30.338
					c34.919,16.438-28.496,246.83-28.496,246.83s-9.506,4.575-30.66-2.001c0,0,21.691-170.021,5.55-206.888l-184.305-30.146
					L577.364,1236.611z"/>
				<linearGradient id="XMLID_143_" gradientUnits="userSpaceOnUse" x1="866.7358" y1="1520.2051" x2="904.1992" y2="1520.2051">
					<stop  offset="0" style="stop-color:#FF928E"/>
					<stop  offset="1" style="stop-color:#FEB3B1"/>
				</linearGradient>
				<path fill="url(#XMLID_143_)" d="M866.736,1509.044c1.581,1.44,16.913,32.363,16.913,32.363s17.069-3.693,20.55-14.495
					l-15.359-27.91L866.736,1509.044z"/>
				<linearGradient id="XMLID_144_" gradientUnits="userSpaceOnUse" x1="429.376" y1="1914.585" x2="677.3762" y2="1384.5833">
					<stop  offset="0" style="stop-color:#09005D"/>
					<stop  offset="1" style="stop-color:#1A0F91"/>
				</linearGradient>
				<path fill="url(#XMLID_144_)" d="M474.842,1235.189c0,0-5.547,13.347-5.321,31.084c0.313,24.53,20.034,44.437,44.536,45.659
					l201.229,9.177c4.25,0.193,7.845,3.135,8.91,7.253c4.729,18.291,27.842,74.458,140.825,186.536
					c3.006,2.982,7.689,3.489,11.269,1.229l16.083-10.16c1.688-1.066,2.227-3.279,1.218-5.003l-117.166-200.078
					c-6.154-10.155-16.046-17.492-27.551-20.433l-171.509-43.842L474.842,1235.189z"/>
				<linearGradient id="XMLID_145_" gradientUnits="userSpaceOnUse" x1="626.564" y1="988.1748" x2="382.1364" y2="1397.5913">
					<stop  offset="0" style="stop-color:#4042E2"/>
					<stop  offset="1" style="stop-color:#4F52FF"/>
				</linearGradient>
				<path fill="url(#XMLID_145_)" d="M474.298,1234.599c0,0-1.995-99.737,17.943-193.6c7.363-34.661,26.524-65.693,54.358-87.622
					l9.312-7.337l46.636,18.946l30.266,45.957c13.193,26.388,15.032,57.015,5.079,84.786
					c-16.643,46.437-41.331,116.69-47.003,140.327C590.888,1236.057,513.647,1246.258,474.298,1234.599z"/>
				<linearGradient id="XMLID_146_" gradientUnits="userSpaceOnUse" x1="594.1035" y1="912.085" x2="558.1036" y2="1027.0846">
					<stop  offset="0" style="stop-color:#FF928E"/>
					<stop  offset="1" style="stop-color:#FEB3B1"/>
				</linearGradient>
				<path fill="url(#XMLID_146_)" d="M587.973,871.715l-36.434,84.527c0,0,11.659,26.232,52.465,16.03l14.574-58.295
					L587.973,871.715z"/>
				<linearGradient id="XMLID_147_" gradientUnits="userSpaceOnUse" x1="708.9346" y1="1075.0176" x2="806.5781" y2="1075.0176">
					<stop  offset="0" style="stop-color:#4042E2"/>
					<stop  offset="1" style="stop-color:#4F52FF"/>
				</linearGradient>
				<path fill="url(#XMLID_147_)" d="M708.935,1155.901c0-1.458,46.636-157.396,46.636-157.396l51.008-8.744l-61.209,170.512
					L708.935,1155.901z"/>
				<linearGradient id="XMLID_148_" gradientUnits="userSpaceOnUse" x1="701.8145" y1="1109.0557" x2="509.8142" y2="1242.056">
					<stop  offset="0" style="stop-color:#FE7062"/>
					<stop  offset="1" style="stop-color:#FF928E"/>
				</linearGradient>
				<path fill="url(#XMLID_148_)" d="M706.02,1160.273c2.915,2.914,32.063,2.914,32.063,2.914l61.209-177.799l-48.093,10.202
					L706.02,1160.273z"/>
				<g>
					
						<linearGradient id="XMLID_149_" gradientUnits="userSpaceOnUse" x1="-190.9873" y1="2503.6094" x2="-286.5332" y2="2630.0088" gradientTransform="matrix(0.9372 -0.3487 0.3487 0.9372 -51.2186 -1572.7603)">
						<stop  offset="0" style="stop-color:#FF928E"/>
						<stop  offset="1" style="stop-color:#FEB3B1"/>
					</linearGradient>
					<path fill="url(#XMLID_149_)" d="M660.177,833.164c0.439,1.181,1.404,84.457,1.404,84.457l-47.562-0.459l-12.642-78.793
						C601.378,838.369,652.823,813.399,660.177,833.164z"/>
					
						<linearGradient id="XMLID_150_" gradientUnits="userSpaceOnUse" x1="-263.957" y1="2534.0996" x2="-149.8257" y2="2534.0996" gradientTransform="matrix(0.9372 -0.3487 0.3487 0.9372 -51.2186 -1572.7603)">
						<stop  offset="0" style="stop-color:#09005D"/>
						<stop  offset="1" style="stop-color:#1A0F91"/>
					</linearGradient>
					<path fill="url(#XMLID_150_)" d="M615.328,853.52l3.407,42c0.043,0.538,0.156,1.056,0.344,1.563
						c1.149,3.102,5.885,13.482,16.21,7.988c9.369-4.984,17.993-9.393,24.731-8.826c3.025,0.255,5.359,2.759,5.394,5.795
						c0.085,7.566-0.036,24.619-2.403,39.42c-0.48,3.003-3.2,5.113-6.233,4.898c-9.142-0.648-28.384-2.555-43.505-7.715
						c-2.049-0.699-3.555-2.438-3.923-4.57c-1.793-10.401-7.36-41.993-10.273-50.557c-2.734-8.037-13.919-10.789-18.697-11.609
						c-1.566-0.27-2.941-1.16-3.83-2.479c-3.138-4.661-8.496-15.857,5.333-23.91c2.895-1.686,3.81-5.396,2.037-8.238
						c-3.529-5.658-6.481-14.817,3.911-22.461c10.563-7.77,20.646-3.423,26.458,0.625c2.35,1.637,5.478,1.287,7.521-0.72
						c1.163-1.142,2.838-1.797,5.217-0.944c3.206,1.15,6.688-0.859,7.499-4.167c1.559-6.354,5.936-13.747,17.81-14.261
						c21.071-0.913,28.24,21.105,25.732,35.459c-2.508,14.353-25.409,14.043-37.791,9.758c-9.414-3.26-19.061,4.375-23.145,8.222
						C615.839,850.008,615.185,851.749,615.328,853.52z"/>
					
						<linearGradient id="XMLID_151_" gradientUnits="userSpaceOnUse" x1="-330.9243" y1="2603.708" x2="-254.2886" y2="2525.0818" gradientTransform="matrix(0.9372 -0.3487 0.3487 0.9372 -51.2186 -1572.7603)">
						<stop  offset="0" style="stop-color:#FF928E"/>
						<stop  offset="1" style="stop-color:#FEB3B1"/>
					</linearGradient>
					<path fill="url(#XMLID_151_)" d="M600.469,898.796c0,0,3.297-25.197-6.523-29.07c-9.82-3.874-21.888,1.849-15.427,18.188
						C586.556,908.239,600.469,898.796,600.469,898.796z"/>
				</g>
				<linearGradient id="XMLID_152_" gradientUnits="userSpaceOnUse" x1="666.3359" y1="1011.9189" x2="421.9072" y2="1421.3375">
					<stop  offset="0" style="stop-color:#4042E2"/>
					<stop  offset="1" style="stop-color:#4F52FF"/>
				</linearGradient>
				<path fill="url(#XMLID_152_)" d="M725.677,1110.828c-103.539,71.608-147.538-91.743-148.634-92.648
					c-67.039-55.38-63.838,45.15-55.38,56.838c85.648,133.511,185.085,94.729,215.805,53.75
					C730.152,1122.623,726.931,1116.218,725.677,1110.828z"/>
				<linearGradient id="XMLID_153_" gradientUnits="userSpaceOnUse" x1="576.1294" y1="1068.6719" x2="633.0688" y2="1068.6719">
					<stop  offset="0" style="stop-color:#09005D"/>
					<stop  offset="1" style="stop-color:#1A0F91"/>
				</linearGradient>
				<path fill="url(#XMLID_153_)" d="M630.012,1113.21c-0.694,0-1.393-0.236-1.966-0.718
					c-25.785-21.691-42.369-57.806-51.741-84.282c-0.563-1.591,0.271-3.337,1.861-3.899c1.591-0.564,3.337,0.269,3.9,1.86
					c7.465,21.09,23.875,59.741,49.915,81.646c1.291,1.086,1.457,3.014,0.371,4.305
					C631.747,1112.84,630.883,1113.21,630.012,1113.21z"/>
				<linearGradient id="XMLID_154_" gradientUnits="userSpaceOnUse" x1="517.1499" y1="1115.1729" x2="612.4204" y2="1115.1729">
					<stop  offset="0" style="stop-color:#09005D"/>
					<stop  offset="1" style="stop-color:#1A0F91"/>
				</linearGradient>
				<path fill="url(#XMLID_154_)" d="M609.363,1159.841c-0.394,0-0.793-0.077-1.179-0.238c-33.034-13.834-63.5-42.228-90.55-84.393
					c-0.911-1.421-0.498-3.312,0.922-4.222c1.421-0.91,3.311-0.498,4.222,0.922c26.367,41.102,55.896,68.709,87.767,82.056
					c1.557,0.652,2.29,2.442,1.638,3.999C611.692,1159.136,610.558,1159.841,609.363,1159.841z"/>
				<linearGradient id="XMLID_155_" gradientUnits="userSpaceOnUse" x1="656.1367" y1="1171.1699" x2="780.1373" y2="1071.1694">
					<stop  offset="0" style="stop-color:#FF928E"/>
					<stop  offset="1" style="stop-color:#FEB3B1"/>
				</linearGradient>
				<path fill="url(#XMLID_155_)" d="M782.742,1056.162c0,0-0.939,3.553-11.141,18.127c-10.202,14.572-21.861,24.774-16.031,7.286
					s-1.458-23.317-8.394-4.275c-6.937,19.042-13.467,27.594-13.467,27.594c-2.717,2.138-5.394,4.108-8.033,5.935
					c1.254,5.39,4.476,11.795,11.791,17.939c4.17-2.979,6.444-4.929,6.444-4.929s33.519-17.488,36.434-34.978
					C783.26,1071.374,782.742,1056.162,782.742,1056.162z"/>
			</g>
			<g>
				<g>
					<g>
						<g>
							<path fill="#7D97F4" d="M780.737,1208.391c-0.755,3.127-72.846,273.503-91.124,342.049
								c-2.106,7.899,3.776,15.656,11.861,15.656l0,0c5.637,0,10.551-3.884,11.917-9.42l80.026-324.463L780.737,1208.391z"/>
						</g>
						<g>
							<path fill="#7D97F4" d="M820.214,1207.602c0.755,3.133,72.846,274.106,91.124,342.803
								c2.106,7.918-3.776,15.691-11.861,15.691l0,0c-5.638,0-10.551-3.893-11.917-9.44l-80.026-325.18L820.214,1207.602z"/>
						</g>
						<g>
							<path fill="#7D97F4" d="M823.218,1199.55h-44.898v36.058c0,5.182,4.151,9.383,9.271,9.383h6.159v80.99
								c0,3.923,3.143,7.104,7.019,7.104l0,0c3.876,0,7.019-3.181,7.019-7.104v-80.99h3.125c6.796,0,12.305-5.576,12.305-12.453
								V1199.55z"/>
						</g>
						<g>
							<path fill="#7D97F4" d="M1770.195,1208.391c-0.755,3.127-72.846,273.503-91.123,342.049
								c-2.106,7.899,3.776,15.656,11.861,15.656l0,0c5.637,0,10.551-3.884,11.916-9.42l80.026-324.463L1770.195,1208.391z"/>
						</g>
						<g>
							<path fill="#7D97F4" d="M1809.672,1208.391c0.756,3.127,72.847,273.503,91.124,342.049
								c2.106,7.899-3.776,15.656-11.861,15.656l0,0c-5.638,0-10.551-3.884-11.916-9.42l-80.026-324.463L1809.672,1208.391z"/>
						</g>
						<g>
							<path fill="#7D97F4" d="M1812.676,1199.55h-44.898v36.058c0,5.182,4.151,9.383,9.271,9.383h6.159v80.99
								c0,3.923,3.143,7.104,7.019,7.104l0,0c3.877,0,7.02-3.181,7.02-7.104v-80.99h3.125c6.796,0,12.305-5.576,12.305-12.453
								V1199.55z"/>
						</g>
					</g>
				</g>
				<linearGradient id="XMLID_156_" gradientUnits="userSpaceOnUse" x1="1302.9355" y1="1154.4941" x2="1201.1603" y2="1907.0125">
					<stop  offset="0" style="stop-color:#4042E2"/>
					<stop  offset="1" style="stop-color:#4F52FF"/>
				</linearGradient>
				<path fill="url(#XMLID_156_)" d="M664.621,1190.889h1260.712c3.504,0,6.564,2.399,7.439,5.833l3.5,13.726
					c1.26,4.939-2.442,9.748-7.483,9.719l-1267.257-1.496c-4.986-0.029-8.624-4.782-7.406-9.676l3.044-12.229
					C658.03,1193.311,661.101,1190.889,664.621,1190.889z"/>
			</g>
		</g>
		<g>
			<path fill="#7D97F4" d="M512.609,964.743l-3.783-4.8c-1.056-1.34-0.826-3.283,0.514-4.339c1.34-1.057,3.283-0.827,4.339,0.514
				c0.004,0.005,0.018,0.022,0.021,0.027l3.729,4.842c1.029,1.337,0.78,3.256-0.557,4.285
				C515.545,966.295,513.644,966.055,512.609,964.743z"/>
			<path fill="#7D97F4" d="M500.348,948.136l-3.341-5.116c-0.968-1.481-0.551-3.467,0.931-4.436
				c1.482-0.967,3.467-0.551,4.435,0.931c0.003,0.005,0.017,0.025,0.02,0.03l3.284,5.154c0.94,1.477,0.506,3.436-0.97,4.377
				C503.24,950.01,501.297,949.587,500.348,948.136z"/>
			<path fill="#7D97F4" d="M489.597,930.512l-2.885-5.387c-0.866-1.615-0.258-3.627,1.358-4.493
				c1.616-0.865,3.628-0.257,4.493,1.358c0.003,0.006,0.015,0.027,0.018,0.033l2.824,5.418c0.839,1.609,0.215,3.593-1.394,4.432
				C492.413,932.705,490.445,932.094,489.597,930.512z"/>
			<path fill="#7D97F4" d="M480.396,912.029l-2.422-5.609c-0.752-1.74,0.05-3.762,1.791-4.514c1.741-0.752,3.762,0.051,4.514,1.791
				c0.002,0.006,0.013,0.03,0.015,0.036l2.359,5.636c0.725,1.731-0.091,3.724-1.823,4.448
				C483.111,914.537,481.134,913.736,480.396,912.029z"/>
			<path fill="#7D97F4" d="M472.764,892.849l-1.959-5.787c-0.628-1.856,0.367-3.87,2.223-4.499c1.856-0.629,3.87,0.367,4.499,2.223
				c0.002,0.007,0.01,0.032,0.013,0.038l1.894,5.81c0.602,1.845-0.406,3.828-2.251,4.43
				C475.35,895.66,473.38,894.668,472.764,892.849z"/>
			<path fill="#7D97F4" d="M466.69,873.119l-1.501-5.923c-0.498-1.961,0.689-3.953,2.65-4.45c1.961-0.498,3.954,0.689,4.451,2.65
				c0.002,0.007,0.008,0.033,0.01,0.04l1.435,5.938c0.47,1.948-0.728,3.909-2.675,4.38
				C469.126,876.222,467.179,875.043,466.69,873.119z"/>
			<path fill="#7D97F4" d="M462.156,852.98l-1.051-6.019c-0.359-2.056,1.016-4.013,3.071-4.372c2.055-0.358,4.012,1.017,4.372,3.072
				c0.001,0.006,0.006,0.034,0.007,0.041l0.984,6.031c0.333,2.04-1.052,3.964-3.092,4.297
				C464.421,856.361,462.51,854.997,462.156,852.98z"/>
			<path fill="#7D97F4" d="M459.132,832.562l-0.611-6.08c-0.215-2.139,1.345-4.047,3.483-4.262c2.139-0.215,4.047,1.344,4.262,3.483
				c0.001,0.007,0.003,0.036,0.004,0.043l0.543,6.086c0.189,2.122-1.378,3.996-3.5,4.185
				C461.206,836.206,459.344,834.66,459.132,832.562z"/>
			<path fill="#7D97F4" d="M457.583,811.976l-0.181-6.108c-0.066-2.212,1.674-4.058,3.886-4.124
				c2.212-0.065,4.059,1.675,4.124,3.887c0,0.008,0.001,0.038,0.001,0.045l0.112,6.11c0.04,2.193-1.706,4.004-3.899,4.044
				C459.449,815.871,457.648,814.147,457.583,811.976z"/>
			<path fill="#7D97F4" d="M457.477,791.332l0.24-6.106c0.089-2.274,2.006-4.046,4.28-3.957c2.274,0.09,4.046,2.006,3.957,4.28
				c0,0.008-0.002,0.039-0.002,0.047l-0.309,6.103c-0.114,2.255-2.034,3.99-4.289,3.876
				C459.116,795.461,457.39,793.565,457.477,791.332z"/>
			<path fill="#7D97F4" d="M458.782,770.725l0.651-6.072c0.25-2.326,2.337-4.009,4.664-3.76c2.326,0.25,4.01,2.338,3.76,4.664
				c0,0.008-0.004,0.04-0.005,0.048l-0.72,6.063c-0.273,2.305-2.363,3.951-4.667,3.678
				C460.177,775.074,458.538,773.01,458.782,770.725z"/>
			<path fill="#7D97F4" d="M461.469,750.251l1.059-6.023c0.416-2.366,2.67-3.947,5.036-3.531c2.366,0.416,3.947,2.671,3.531,5.037
				l-0.009,0.046l-1.123,6.011c-0.438,2.344-2.693,3.889-5.036,3.45C462.601,754.807,461.062,752.577,461.469,750.251z"/>
			<path fill="#7D97F4" d="M465.559,729.998l1.471-5.931c0.586-2.363,2.977-3.805,5.341-3.219c2.363,0.586,3.804,2.978,3.218,5.341
				l-0.006,0.025l-1.506,5.922c-0.598,2.35-2.987,3.771-5.337,3.174C466.397,734.715,464.979,732.339,465.559,729.998z"/>
			<path fill="#7D97F4" d="M471.003,710.064l1.864-5.819c0.752-2.351,3.269-3.646,5.619-2.893c2.351,0.753,3.646,3.269,2.893,5.619
				l-0.008,0.025l-1.898,5.808c-0.764,2.337-3.277,3.612-5.613,2.848C471.531,714.893,470.257,712.394,471.003,710.064z"/>
			<path fill="#7D97F4" d="M477.775,690.535l2.253-5.681c0.922-2.324,3.554-3.462,5.879-2.539c2.325,0.922,3.462,3.554,2.54,5.879
				l-0.01,0.025l-2.287,5.667c-0.932,2.31-3.561,3.427-5.871,2.495C477.979,695.453,476.861,692.839,477.775,690.535z"/>
			<path fill="#7D97F4" d="M485.863,671.502l2.643-5.52c1.094-2.285,3.834-3.251,6.12-2.157s3.251,3.834,2.157,6.12l-0.012,0.024
				l-2.675,5.504c-1.104,2.271-3.839,3.216-6.109,2.113C485.726,676.488,484.779,673.768,485.863,671.502z"/>
			<path fill="#7D97F4" d="M495.263,653.059l3.024-5.316c1.269-2.231,4.107-3.012,6.338-1.742c2.231,1.269,3.012,4.107,1.742,6.338
				l-0.014,0.024l-3.055,5.298c-1.277,2.215-4.108,2.976-6.324,1.699C494.768,658.087,494.005,655.271,495.263,653.059z"/>
			<path fill="#7D97F4" d="M505.959,635.319l3.399-5.079c1.446-2.161,4.37-2.741,6.531-1.294c2.161,1.446,2.74,4.37,1.294,6.531
				l-0.015,0.023l-3.429,5.06c-1.453,2.144-4.369,2.704-6.514,1.251C505.089,640.363,504.526,637.461,505.959,635.319z"/>
			<path fill="#7D97F4" d="M517.901,618.419l3.742-4.831c1.613-2.082,4.607-2.462,6.689-0.85c2.082,1.612,2.462,4.607,0.85,6.689
				l-0.017,0.021l-3.77,4.81c-1.619,2.064-4.604,2.426-6.669,0.807C516.669,623.453,516.303,620.482,517.901,618.419z"/>
			<path fill="#7D97F4" d="M530.935,602.368l4.046-4.579c1.766-1.998,4.816-2.186,6.814-0.42s2.186,4.816,0.42,6.814l-0.019,0.021
				l-4.073,4.555c-1.771,1.98-4.812,2.15-6.792,0.379C529.36,607.374,529.185,604.349,530.935,602.368z"/>
			<path fill="#7D97F4" d="M544.969,587.189l4.328-4.314c1.912-1.906,5.006-1.901,6.912,0.011c1.906,1.911,1.901,5.006-0.011,6.912
				l-0.021,0.02l-4.353,4.288c-1.916,1.887-4.999,1.865-6.887-0.051C543.057,592.146,543.074,589.079,544.969,587.189z"/>
			<path fill="#7D97F4" d="M559.921,572.922l4.584-4.04c2.05-1.807,5.176-1.609,6.983,0.441c1.807,2.05,1.609,5.176-0.441,6.982
				l-0.021,0.02l-4.608,4.013c-2.053,1.788-5.167,1.573-6.955-0.48C557.681,577.813,557.889,574.713,559.921,572.922z"/>
			<path fill="#7D97F4" d="M575.708,559.593l4.817-3.759c2.18-1.701,5.326-1.313,7.028,0.866c1.702,2.18,1.313,5.327-0.867,7.028
				l-0.023,0.018l-4.839,3.731c-2.182,1.683-5.315,1.277-6.997-0.904C573.15,564.399,573.548,561.28,575.708,559.593z"/>
			<path fill="#7D97F4" d="M592.25,547.222l5.026-3.475c2.302-1.592,5.458-1.016,7.049,1.286c1.592,2.302,1.016,5.458-1.286,7.05
				l-0.024,0.017l-5.047,3.445c-2.303,1.572-5.444,0.979-7.017-1.323C589.385,551.928,589.968,548.8,592.25,547.222z"/>
			<path fill="#7D97F4" d="M609.467,535.818l5.213-3.188c2.416-1.478,5.571-0.717,7.049,1.698c1.477,2.416,0.716,5.571-1.699,7.049
				l-0.026,0.016l-5.231,3.157c-2.416,1.458-5.556,0.682-7.014-1.734C606.306,540.41,607.073,537.283,609.467,535.818z"/>
			<path fill="#7D97F4" d="M627.285,525.389l5.384-2.89c2.519-1.352,5.655-0.406,7.007,2.112c1.352,2.519,0.406,5.656-2.112,7.007
				l-0.009,0.005l-5.39,2.879c-2.518,1.345-5.649,0.394-6.994-2.124C623.826,529.86,624.768,526.733,627.285,525.389z"/>
			<path fill="#7D97F4" d="M645.654,515.975l5.53-2.6c2.593-1.219,5.683-0.104,6.901,2.488s0.105,5.683-2.488,6.901l-0.006,0.003
				l-5.534,2.593c-2.592,1.214-5.679,0.098-6.894-2.495C641.95,520.273,643.061,517.189,645.654,515.975z"/>
			<path fill="#7D97F4" d="M664.485,507.539l5.657-2.311c2.659-1.087,5.694,0.188,6.781,2.847c1.086,2.658-0.188,5.694-2.847,6.781
				l-0.006,0.002l-5.66,2.305c-2.658,1.082-5.69-0.195-6.772-2.854C660.556,511.651,661.827,508.621,664.485,507.539z"/>
			<path fill="#7D97F4" d="M683.717,500.076l5.76-2.022c2.717-0.954,5.692,0.475,6.646,3.192c0.954,2.716-0.475,5.691-3.192,6.646
				l-0.006,0.002l-5.763,2.015c-2.715,0.95-5.687-0.482-6.636-3.198C679.576,503.995,681.002,501.026,683.717,500.076z"/>
			<path fill="#7D97F4" d="M703.285,493.588l5.86-1.738c2.767-0.821,5.675,0.757,6.496,3.524c0.821,2.768-0.757,5.675-3.524,6.496
				l-0.006,0.002l-5.863,1.73c-2.766,0.816-5.67-0.764-6.487-3.53C698.945,497.307,700.519,494.404,703.285,493.588z"/>
			<path fill="#7D97F4" d="M723.156,488.064l5.945-1.452c2.81-0.687,5.645,1.035,6.332,3.846c0.687,2.81-1.035,5.645-3.845,6.332
				l-0.006,0.001l-5.947,1.445c-2.809,0.683-5.64-1.042-6.322-3.851S720.347,488.747,723.156,488.064z"/>
			<path fill="#7D97F4" d="M743.276,483.51l6-1.163c2.847-0.552,5.602,1.309,6.154,4.156c0.552,2.847-1.309,5.602-4.156,6.154
				l-0.006,0.001l-6,1.155c-2.846,0.548-5.597-1.314-6.145-4.16S740.431,484.058,743.276,483.51z"/>
			<path fill="#7D97F4" d="M763.582,479.928l6.048-0.874c2.877-0.416,5.547,1.579,5.962,4.456c0.416,2.877-1.579,5.547-4.456,5.963
				l-0.006,0.001l-6.049,0.867c-2.875,0.412-5.541-1.585-5.953-4.46S760.707,480.34,763.582,479.928z"/>
			<path fill="#7D97F4" d="M784.037,477.322l6.083-0.584c2.901-0.278,5.478,1.847,5.757,4.748c0.278,2.901-1.848,5.478-4.748,5.756
				l-0.007,0.001l-6.083,0.576c-2.899,0.274-5.472-1.853-5.746-4.752C779.017,480.169,781.138,477.597,784.037,477.322z"/>
			<path fill="#7D97F4" d="M804.594,475.698l6.111-0.291c2.917-0.139,5.396,2.114,5.535,5.031c0.139,2.918-2.114,5.396-5.031,5.535
				h-0.007l-6.111,0.283c-2.916,0.136-5.389-2.118-5.524-5.034S801.679,475.834,804.594,475.698z"/>
			<path fill="#7D97F4" d="M825.208,475.068l6.148,0.005c2.928,0.003,5.3,2.379,5.297,5.307c-0.002,2.928-2.378,5.3-5.306,5.297
				h-0.006h-0.049l-6.073-0.013l-0.026,0c-2.926-0.006-5.293-2.383-5.287-5.309S822.281,475.062,825.208,475.068z"/>
			<path fill="#7D97F4" d="M845.82,475.41l6.104,0.276c2.932,0.132,5.201,2.617,5.069,5.548c-0.132,2.932-2.617,5.201-5.549,5.069
				h-0.006l-6.104-0.283c-2.93-0.136-5.195-2.621-5.059-5.551S842.89,475.274,845.82,475.41z"/>
			<path fill="#7D97F4" d="M866.378,476.651l6.087,0.537c2.931,0.259,5.097,2.844,4.838,5.774c-0.258,2.931-2.843,5.097-5.774,4.839
				l-0.007-0.001l-6.086-0.544c-2.928-0.262-5.09-2.848-4.828-5.776C860.871,478.551,863.45,476.389,866.378,476.651z"/>
			<path fill="#7D97F4" d="M886.859,478.762l6.06,0.79c2.924,0.381,4.986,3.061,4.604,5.985c-0.381,2.924-3.061,4.986-5.985,4.604
				l-0.007-0.001l-6.058-0.797c-2.922-0.385-4.979-3.065-4.594-5.987C881.264,480.436,883.938,478.377,886.859,478.762z"/>
			<path fill="#7D97F4" d="M907.23,481.715l6.022,1.034c2.914,0.5,4.87,3.268,4.37,6.181c-0.5,2.913-3.268,4.87-6.181,4.369
				l-0.006-0.001l-6.021-1.042c-2.911-0.503-4.862-3.271-4.358-6.182C901.558,483.164,904.319,481.211,907.23,481.715z"/>
			<path fill="#7D97F4" d="M927.46,485.478l5.978,1.269c2.898,0.615,4.749,3.463,4.134,6.362s-3.463,4.75-6.362,4.134l-0.006-0.001
				l-5.976-1.276c-2.896-0.618-4.742-3.467-4.123-6.362C921.722,486.707,924.564,484.859,927.46,485.478z"/>
			<path fill="#7D97F4" d="M947.523,490.019l5.925,1.494c2.88,0.726,4.626,3.649,3.9,6.529s-3.649,4.626-6.529,3.9l-0.007-0.002
				l-5.923-1.501c-2.877-0.729-4.618-3.652-3.889-6.529C941.729,491.032,944.646,489.289,947.523,490.019z"/>
			<path fill="#7D97F4" d="M967.396,495.303l5.867,1.709c2.858,0.833,4.5,3.825,3.667,6.683s-3.825,4.5-6.683,3.667l-0.006-0.002
				l-5.865-1.716c-2.855-0.836-4.493-3.828-3.657-6.683C961.556,496.106,964.542,494.468,967.396,495.303z"/>
			<path fill="#7D97F4" d="M987.061,501.298l5.803,1.915c2.834,0.935,4.374,3.99,3.438,6.824c-0.935,2.833-3.99,4.373-6.824,3.438
				l-0.006-0.002l-5.801-1.922c-2.831-0.938-4.365-3.992-3.427-6.823C981.182,501.897,984.23,500.36,987.061,501.298z"/>
			<path fill="#7D97F4" d="M1006.499,507.972l5.73,2.123c2.798,1.036,4.226,4.145,3.19,6.943c-1.036,2.798-4.13,4.231-6.928,3.195
				l-5.736-2.106c-2.806-1.03-4.245-4.139-3.215-6.945c1.03-2.805,4.139-4.245,6.945-3.215L1006.499,507.972z"/>
			<path fill="#7D97F4" d="M1025.681,515.33l5.649,2.306c2.748,1.121,4.066,4.257,2.945,7.004c-1.122,2.748-4.243,4.072-6.99,2.951
				l-5.656-2.289c-2.755-1.115-4.085-4.252-2.97-7.008c1.115-2.755,4.252-4.085,7.007-2.97L1025.681,515.33z"/>
			<path fill="#7D97F4" d="M1044.601,523.299l5.58,2.485c2.696,1.2,3.908,4.359,2.707,7.055c-1.201,2.696-4.345,3.914-7.041,2.713
				l-5.587-2.469c-2.703-1.195-3.927-4.355-2.731-7.059c1.195-2.704,4.355-3.927,7.059-2.732L1044.601,523.299z"/>
			<path fill="#7D97F4" d="M1063.262,531.854l5.506,2.657c2.643,1.275,3.752,4.452,2.477,7.095s-4.438,3.758-7.082,2.483
				l-5.513-2.641c-2.651-1.27-3.771-4.449-2.501-7.1c1.27-2.651,4.448-3.771,7.1-2.501L1063.262,531.854z"/>
			<path fill="#7D97F4" d="M1081.655,540.969l5.429,2.82c2.59,1.346,3.598,4.535,2.253,7.125c-1.346,2.59-4.522,3.605-7.112,2.26
				l-5.437-2.805c-2.598-1.34-3.618-4.532-2.277-7.13s4.533-3.618,7.131-2.277L1081.655,540.969z"/>
			<path fill="#7D97F4" d="M1099.773,550.616l5.348,2.977c2.536,1.411,3.447,4.61,2.036,7.146c-1.411,2.536-4.598,3.455-7.133,2.043
				l-5.356-2.96c-2.544-1.406-3.467-4.608-2.061-7.153c1.406-2.544,4.608-3.467,7.152-2.061L1099.773,550.616z"/>
			<path fill="#7D97F4" d="M1117.608,560.772l5.264,3.124c2.481,1.473,3.299,4.679,1.826,7.16c-1.473,2.481-4.666,3.306-7.146,1.834
				l-5.273-3.109c-2.49-1.468-3.318-4.677-1.85-7.166c1.468-2.49,4.677-3.318,7.167-1.851L1117.608,560.772z"/>
			<path fill="#7D97F4" d="M1135.153,571.414l5.176,3.265c2.427,1.531,3.153,4.739,1.623,7.166s-4.726,3.162-7.153,1.631
				l-5.185-3.25c-2.436-1.526-3.173-4.738-1.646-7.173s4.738-3.172,7.173-1.646L1135.153,571.414z"/>
			<path fill="#7D97F4" d="M1152.402,582.519l5.083,3.397c2.372,1.585,3.01,4.793,1.425,7.165c-1.585,2.372-4.78,3.018-7.152,1.433
				l-5.093-3.382c-2.381-1.581-3.029-4.792-1.448-7.173c1.581-2.381,4.792-3.029,7.173-1.448L1152.402,582.519z"/>
			<path fill="#7D97F4" d="M1169.344,594.063l4.993,3.521c2.318,1.635,2.873,4.839,1.238,7.157s-4.827,2.881-7.146,1.246
				l-5.003-3.507c-2.327-1.63-2.891-4.839-1.26-7.166s4.839-2.891,7.166-1.26L1169.344,594.063z"/>
			<path fill="#7D97F4" d="M1185.98,605.989l4.915,3.625c2.27,1.674,2.752,4.871,1.079,7.14c-1.674,2.27-4.859,2.762-7.129,1.088
				l-4.925-3.61c-2.278-1.671-2.771-4.872-1.102-7.15c1.67-2.279,4.872-2.772,7.15-1.102L1185.98,605.989z"/>
			<path fill="#7D97F4" d="M1202.362,618.236l4.85,3.711c2.227,1.704,2.65,4.891,0.947,7.117s-4.878,2.659-7.105,0.956l-4.86-3.697
				c-2.236-1.7-2.669-4.891-0.969-7.126s4.891-2.669,7.126-0.969L1202.362,618.236z"/>
			<path fill="#7D97F4" d="M1218.52,630.734l4.797,3.779c2.189,1.725,2.566,4.898,0.842,7.088c-1.725,2.189-4.887,2.575-7.077,0.851
				l-4.809-3.766c-2.198-1.722-2.585-4.899-0.864-7.098c1.721-2.199,4.899-2.585,7.098-0.864L1218.52,630.734z"/>
			<path fill="#7D97F4" d="M1234.504,643.429l4.759,3.83c2.159,1.737,2.5,4.896,0.763,7.055c-1.737,2.159-4.884,2.509-7.043,0.772
				l-4.77-3.816c-2.168-1.734-2.52-4.897-0.785-7.065c1.734-2.168,4.897-2.52,7.065-0.785L1234.504,643.429z"/>
			<path fill="#7D97F4" d="M1250.36,656.261l4.734,3.864c2.134,1.742,2.452,4.884,0.711,7.018c-1.742,2.135-4.873,2.462-7.008,0.72
				l-4.745-3.85c-2.143-1.739-2.471-4.886-0.732-7.029c1.739-2.143,4.886-2.471,7.029-0.732L1250.36,656.261z"/>
			<path fill="#7D97F4" d="M1266.136,669.174l4.722,3.88c2.116,1.738,2.422,4.863,0.684,6.979c-1.738,2.116-4.852,2.431-6.968,0.692
				l-4.733-3.866c-2.124-1.735-2.44-4.865-0.705-6.989c1.735-2.125,4.865-2.44,6.989-0.705L1266.136,669.174z"/>
			<path fill="#7D97F4" d="M1281.873,682.109l4.724,3.879c2.104,1.728,2.409,4.833,0.683,6.937
				c-1.728,2.104-4.822,2.418-6.927,0.691l-4.734-3.865c-2.113-1.725-2.428-4.835-0.703-6.947c1.724-2.113,4.834-2.428,6.947-0.703
				L1281.873,682.109z"/>
			<path fill="#7D97F4" d="M1297.618,695.01l4.739,3.86c2.099,1.709,2.414,4.794,0.705,6.893c-1.709,2.098-4.784,2.422-6.882,0.713
				l-4.75-3.846c-2.106-1.706-2.432-4.796-0.727-6.903c1.706-2.106,4.797-2.432,6.903-0.726L1297.618,695.01z"/>
			<path fill="#7D97F4" d="M1313.417,707.817l4.768,3.824c2.098,1.683,2.434,4.748,0.751,6.845
				c-1.683,2.098-4.736,2.443-6.834,0.761l-4.778-3.811c-2.106-1.68-2.453-4.749-0.773-6.855s4.749-2.453,6.855-0.773
				L1313.417,707.817z"/>
			<path fill="#7D97F4" d="M1329.311,720.473l4.81,3.771c2.104,1.649,2.472,4.691,0.823,6.795c-1.649,2.104-4.681,2.48-6.784,0.832
				l-4.82-3.757c-2.112-1.646-2.49-4.693-0.844-6.805c1.646-2.112,4.692-2.49,6.805-0.844L1329.311,720.473z"/>
			<path fill="#7D97F4" d="M1345.351,732.923l4.855,3.693l0.009,0.006c2.114,1.608,2.525,4.626,0.917,6.741
				c-1.608,2.114-4.615,2.533-6.729,0.925l-4.886-3.693c-2.123-1.605-2.543-4.627-0.938-6.751c1.605-2.123,4.628-2.543,6.751-0.938
				l0.011,0.008L1345.351,732.923z"/>
			<path fill="#7D97F4" d="M1361.564,745.092l4.934,3.606c2.132,1.558,2.597,4.549,1.039,6.681c-1.559,2.131-4.538,2.604-6.67,1.046
				l-4.943-3.592c-2.141-1.555-2.615-4.55-1.061-6.69s4.55-2.615,6.69-1.06L1361.564,745.092z"/>
			<path fill="#7D97F4" d="M1378.013,756.927l5.012,3.496c2.152,1.501,2.68,4.462,1.179,6.615s-4.451,2.688-6.604,1.187
				l-5.022-3.481c-2.16-1.498-2.697-4.463-1.2-6.624c1.498-2.16,4.463-2.698,6.624-1.2L1378.013,756.927z"/>
			<path fill="#7D97F4" d="M1394.719,768.369l5.098,3.37c2.174,1.437,2.771,4.365,1.334,6.538c-1.438,2.174-4.35,2.781-6.523,1.344
				l-5.11-3.351c-2.186-1.433-2.795-4.365-1.363-6.55c1.433-2.185,4.365-2.794,6.55-1.362L1394.719,768.369z"/>
			<path fill="#7D97F4" d="M1411.694,779.38l5.188,3.229c2.18,1.357,2.848,4.226,1.49,6.406c-1.352,2.171-4.203,2.841-6.38,1.506
				l-5.209-3.194c-2.199-1.349-2.889-4.226-1.54-6.424s4.225-2.888,6.424-1.54L1411.694,779.38z"/>
			<path fill="#7D97F4" d="M1428.975,789.878l5.289,3.061c2.19,1.268,2.938,4.071,1.671,6.262c-1.262,2.181-4.049,2.932-6.235,1.687
				l-5.309-3.026c-2.209-1.258-2.979-4.069-1.721-6.278c1.258-2.209,4.069-2.979,6.277-1.721L1428.975,789.878z"/>
			<path fill="#7D97F4" d="M1446.584,799.784l5.396,2.869c2.202,1.17,3.037,3.904,1.867,6.106c-1.166,2.192-3.883,3.029-6.079,1.88
				l-5.415-2.833c-2.219-1.161-3.076-3.902-1.916-6.121c1.161-2.219,3.901-3.077,6.121-1.916L1446.584,799.784z"/>
			<path fill="#7D97F4" d="M1464.537,809.022l5.512,2.656c2.212,1.066,3.142,3.724,2.075,5.936
				c-1.062,2.203-3.702,3.133-5.909,2.088l-5.529-2.619c-2.229-1.056-3.181-3.72-2.124-5.949c1.056-2.229,3.719-3.181,5.948-2.125
				L1464.537,809.022z"/>
			<path fill="#7D97F4" d="M1482.852,817.516l5.613,2.41c2.222,0.954,3.25,3.528,2.296,5.75c-0.949,2.212-3.508,3.241-5.724,2.308
				l-5.629-2.373c-2.239-0.943-3.289-3.523-2.346-5.762c0.943-2.239,3.523-3.289,5.762-2.346L1482.852,817.516z"/>
			<path fill="#7D97F4" d="M1501.503,825.169l5.715,2.141c2.229,0.835,3.36,3.318,2.526,5.548c-0.831,2.22-3.3,3.35-5.521,2.535
				l-5.73-2.102c-2.245-0.823-3.398-3.312-2.574-5.557c0.823-2.246,3.312-3.399,5.557-2.575L1501.503,825.169z"/>
			<path fill="#7D97F4" d="M1520.485,831.901l5.816,1.846c2.233,0.708,3.47,3.093,2.761,5.326c-0.705,2.224-3.074,3.458-5.3,2.77
				l-5.828-1.807c-2.249-0.696-3.507-3.085-2.81-5.333c0.696-2.249,3.084-3.508,5.333-2.811L1520.485,831.901z"/>
			<path fill="#7D97F4" d="M1539.785,837.63l5.915,1.527c2.232,0.576,3.574,2.854,2.998,5.085c-0.574,2.224-2.835,3.563-5.059,3.006
				l-5.925-1.488c-2.247-0.564-3.611-2.843-3.047-5.09c0.563-2.247,2.843-3.611,5.09-3.047L1539.785,837.63z"/>
			<path fill="#7D97F4" d="M1559.355,842.252l6,1.161c2.227,0.431,3.683,2.585,3.252,4.812c-0.43,2.217-2.568,3.67-4.785,3.257
				l-6.007-1.12c-2.24-0.418-3.718-2.573-3.3-4.813c0.418-2.241,2.572-3.719,4.813-3.301L1559.355,842.252z"/>
			<path fill="#7D97F4" d="M1579.176,845.633l6.062,0.774c2.212,0.283,3.776,2.306,3.493,4.518c-0.281,2.203-2.29,3.763-4.491,3.497
				l-6.066-0.734c-2.225-0.27-3.811-2.292-3.541-4.517c0.27-2.226,2.291-3.812,4.517-3.542L1579.176,845.633z"/>
			<path fill="#7D97F4" d="M1599.172,847.733l6.099,0.38c2.188,0.136,3.853,2.021,3.716,4.209c-0.136,2.18-2.006,3.838-4.183,3.718
				l-6.102-0.339c-2.2-0.122-3.885-2.005-3.763-4.206c0.122-2.2,2.005-3.886,4.205-3.763L1599.172,847.733z"/>
			<path fill="#7D97F4" d="M1619.259,848.52l6.111-0.028c2.155-0.011,3.91,1.729,3.921,3.884c0.01,2.146-1.716,3.896-3.858,3.92
				l-6.11,0.07c-2.166,0.024-3.942-1.712-3.967-3.878c-0.025-2.167,1.711-3.942,3.877-3.968H1619.259z"/>
			<path fill="#7D97F4" d="M1639.348,847.944l6.094-0.454c2.112-0.157,3.951,1.428,4.109,3.539c0.156,2.103-1.416,3.936-3.514,4.106
				l-6.091,0.494c-2.122,0.173-3.981-1.408-4.154-3.53c-0.173-2.121,1.408-3.981,3.53-4.153L1639.348,847.944z"/>
			<path fill="#7D97F4" d="M1659.337,845.951l6.045-0.898c2.057-0.305,3.973,1.115,4.278,3.173c0.305,2.048-1.104,3.957-3.147,4.274
				l-6.038,0.938c-2.067,0.321-4.002-1.094-4.323-3.16s1.094-4.002,3.16-4.322L1659.337,845.951z"/>
			<path fill="#7D97F4" d="M1679.111,842.478l5.957-1.361c1.991-0.455,3.975,0.79,4.43,2.782c0.453,1.982-0.781,3.957-2.758,4.423
				l-5.947,1.401c-2,0.471-4.002-0.768-4.473-2.768c-0.471-1.998,0.768-4.001,2.767-4.472L1679.111,842.478z"/>
			<path fill="#7D97F4" d="M1698.539,837.461l5.826-1.844c1.911-0.605,3.951,0.454,4.557,2.365c0.603,1.903-0.446,3.935-2.342,4.549
				l-5.814,1.884c-1.918,0.621-3.977-0.431-4.598-2.349s0.43-3.977,2.348-4.598L1698.539,837.461z"/>
			<path fill="#7D97F4" d="M1717.468,830.844l5.646-2.336c1.814-0.751,3.894,0.111,4.645,1.925c0.746,1.804-0.104,3.87-1.896,4.632
				l-5.625,2.388c-1.821,0.772-3.925-0.077-4.697-1.898c-0.773-1.821,0.076-3.925,1.897-4.697L1717.468,830.844z"/>
			<path fill="#7D97F4" d="M1735.743,822.615l5.411-2.839c1.683-0.883,3.764-0.235,4.647,1.449c0.877,1.671,0.241,3.736-1.416,4.63
				l-5.379,2.898c-1.689,0.911-3.798,0.279-4.709-1.411c-0.911-1.689-0.279-3.798,1.411-4.709
				C1735.714,822.63,1735.737,822.618,1735.743,822.615z"/>
			<path fill="#7D97F4" d="M1753.168,812.724l5.105-3.34c1.539-1.007,3.603-0.576,4.609,0.962c1,1.528,0.58,3.574-0.932,4.589
				l-5.068,3.397c-1.543,1.035-3.632,0.622-4.667-0.921c-1.034-1.543-0.622-3.632,0.921-4.666
				C1753.143,812.741,1753.163,812.728,1753.168,812.724z"/>
			<path fill="#7D97F4" d="M1769.514,801.193l4.73-3.869c1.375-1.125,3.401-0.922,4.526,0.453c1.117,1.366,0.923,3.375-0.426,4.504
				l-4.688,3.921c-1.377,1.152-3.427,0.97-4.578-0.407c-1.152-1.377-0.97-3.427,0.407-4.579
				C1769.49,801.213,1769.51,801.197,1769.514,801.193z"/>
			<path fill="#7D97F4" d="M1784.493,787.93l4.27-4.373c1.197-1.226,3.163-1.25,4.39-0.052c1.218,1.189,1.248,3.137,0.076,4.365
				l-4.221,4.419c-1.197,1.253-3.184,1.299-4.437,0.102s-1.299-3.183-0.103-4.437
				C1784.473,787.951,1784.489,787.935,1784.493,787.93z"/>
			<path fill="#7D97F4" d="M1797.942,773.082l3.775-4.805c1.021-1.299,2.902-1.525,4.201-0.504c1.29,1.014,1.52,2.876,0.523,4.174
				l-3.723,4.847c-1.018,1.325-2.917,1.574-4.241,0.556c-1.325-1.018-1.574-2.917-0.557-4.242
				C1797.925,773.104,1797.939,773.086,1797.942,773.082z"/>
			<path fill="#7D97F4" d="M1809.749,756.872l3.251-5.175c0.846-1.346,2.622-1.752,3.969-0.906c1.337,0.84,1.745,2.599,0.923,3.942
				l-3.193,5.21c-0.841,1.372-2.634,1.802-4.006,0.961c-1.371-0.841-1.802-2.634-0.961-4.005
				C1809.734,756.895,1809.746,756.876,1809.749,756.872z"/>
			<path fill="#7D97F4" d="M1819.8,739.504l2.691-5.486c0.673-1.372,2.33-1.938,3.701-1.266c1.362,0.668,1.93,2.309,1.278,3.674
				l-2.63,5.516c-0.666,1.396-2.337,1.988-3.732,1.322c-1.396-0.665-1.988-2.336-1.322-3.732
				C1819.788,739.528,1819.798,739.509,1819.8,739.504z"/>
			<path fill="#7D97F4" d="M1827.97,721.17l2.091-5.742c0.502-1.377,2.024-2.087,3.401-1.585c1.367,0.498,2.076,2.004,1.596,3.374
				l-2.027,5.765c-0.492,1.4-2.026,2.137-3.427,1.644c-1.399-0.492-2.136-2.026-1.644-3.426
				C1827.962,721.193,1827.969,721.175,1827.97,721.17z"/>
			<path fill="#7D97F4" d="M1834.113,702.06l1.442-5.938c0.33-1.364,1.704-2.201,3.068-1.87c1.354,0.328,2.188,1.687,1.876,3.041
				l-1.376,5.954c-0.32,1.385-1.702,2.249-3.088,1.929c-1.386-0.32-2.249-1.702-1.929-3.088
				C1834.108,702.083,1834.112,702.064,1834.113,702.06z"/>
			<path fill="#7D97F4" d="M1838.062,682.383l0.737-6.066c0.161-1.331,1.371-2.279,2.703-2.118c1.321,0.161,2.266,1.356,2.12,2.677
				l-0.67,6.074c-0.148,1.352-1.365,2.326-2.717,2.178c-1.351-0.149-2.326-1.365-2.177-2.717
				C1838.059,682.405,1838.061,682.387,1838.062,682.383z"/>
			<path fill="#7D97F4" d="M1839.628,662.381l-0.025-6.11c-0.006-1.278,1.026-2.32,2.305-2.325c1.271-0.005,2.306,1.014,2.325,2.28
				l0.093,6.11c0.021,1.297-1.016,2.365-2.313,2.385s-2.365-1.015-2.385-2.313C1839.628,662.403,1839.628,662.386,1839.628,662.381z
				"/>
			<path fill="#7D97F4" d="M1838.628,642.354l-0.84-6.053c-0.167-1.205,0.675-2.317,1.879-2.485
				c1.196-0.166,2.302,0.664,2.481,1.855l0.906,6.043c0.184,1.222-0.658,2.36-1.88,2.544c-1.222,0.183-2.36-0.658-2.543-1.88
				C1838.631,642.375,1838.628,642.358,1838.628,642.354z"/>
			<path fill="#7D97F4" d="M1834.913,622.653l-1.685-5.874c-0.318-1.109,0.323-2.267,1.433-2.585
				c1.102-0.316,2.251,0.315,2.578,1.411l1.75,5.855c0.336,1.124-0.303,2.307-1.427,2.643s-2.308-0.303-2.643-1.427
				C1834.918,622.672,1834.914,622.657,1834.913,622.653z"/>
		</g>
	</g>
</g>
</svg>
