<?xml version="1.0" encoding="utf-8"?>
<!-- Generator: Adobe Illustrator 12.0.0, SVG Export Plug-In . SVG Version: 6.00 Build 51448)  -->
<!DOCTYPE svg PUBLIC "-//W3C//DTD SVG 1.0//EN" "http://www.w3.org/TR/2001/REC-SVG-20010904/DTD/svg10.dtd" [
	<!ENTITY ns_svg "http://www.w3.org/2000/svg">
	<!ENTITY ns_xlink "http://www.w3.org/1999/xlink">
]>
<svg  version="1.0" xmlns="&ns_svg;" xmlns:xlink="&ns_xlink;" width="2475" height="1650" viewBox="0 0 2475 1650"
	 overflow="visible" enable-background="new 0 0 2475 1650" xml:space="preserve">
<g id="Background">
	<rect fill="#FFFFFF" width="2475" height="1650"/>
</g>
<g id="Illustration">
	<g>
		
			<linearGradient id="XMLID_25_" gradientUnits="userSpaceOnUse" x1="-5055.4893" y1="781.1787" x2="-2840.8242" y2="781.1787" gradientTransform="matrix(-1 0 0 1 -2681.2139 0)">
			<stop  offset="0" style="stop-color:#DAE3FE"/>
			<stop  offset="1" style="stop-color:#E9EFFD"/>
		</linearGradient>
		<path fill="url(#XMLID_25_)" d="M1980.457,157.103c174.054,139.187-57.852,324.214,61.116,403.769
			c118.967,79.555,611.669,234.713,115.501,542.524c-496.169,307.81-509.798,511.766-864,316.867
			c-354.202-194.897-328.759-229.921-620.24-98.163c-291.481,131.757-596.137-73.233-492.554-316.522
			c103.583-243.288,169.534-240.255,51.255-395.623C113.256,454.587,404,32,798,180c173.566,65.197,342.293,136.264,387,12
			S1784,0,1980.457,157.103z"/>
		<g>
			<path fill="#7D97F4" d="M1092.161,458.31H917.375c-21.685,0-41.722,11.569-52.564,30.349l-87.393,151.368
				c-10.842,18.779-10.842,41.917,0,60.696l87.393,151.368c10.842,18.779,30.879,30.349,52.564,30.349h174.786
				c21.684,0,41.721-11.568,52.563-30.349l87.394-151.368c10.842-18.779,10.842-41.917,0-60.696l-87.394-151.368
				C1133.882,469.879,1113.845,458.31,1092.161,458.31z"/>
			<path fill="#91B3FA" d="M917.375,853.389c-11.27,0-21.771-6.063-27.406-15.821l-87.393-151.37c-5.634-9.76-5.634-21.886,0-31.646
				l87.393-151.369c5.635-9.76,16.136-15.823,27.406-15.823h174.786c11.27,0,21.771,6.063,27.405,15.822l87.394,151.37
				c5.634,9.76,5.634,21.886,0,31.646l-87.393,151.368c-5.634,9.76-16.136,15.822-27.406,15.822H917.375z"/>
		</g>
		<g>
			<path fill="#7D97F4" d="M1480.308,696.858h-174.786c-21.684,0-41.722,11.569-52.563,30.349l-87.393,151.368
				c-10.842,18.779-10.842,41.917,0,60.696l87.393,151.368c10.842,18.78,30.88,30.349,52.563,30.349h174.786
				c21.685,0,41.722-11.568,52.564-30.349l87.393-151.368c10.843-18.779,10.843-41.917,0-60.696l-87.393-151.368
				C1522.029,708.427,1501.992,696.858,1480.308,696.858z"/>
			<path fill="#91B3FA" d="M1305.521,1091.938c-11.27,0-21.771-6.062-27.405-15.821l-87.394-151.37
				c-5.634-9.76-5.634-21.886,0-31.646l87.393-151.368c5.635-9.76,16.136-15.822,27.405-15.822h174.786
				c11.271,0,21.771,6.062,27.405,15.821l87.394,151.37c5.635,9.76,5.635,21.886,0,31.646l-87.393,151.368
				c-5.635,9.761-16.136,15.822-27.406,15.822H1305.521z"/>
		</g>
		<g>
			<path fill="#7D97F4" d="M1512.653,227.848h-174.786c-21.684,0-41.722,11.568-52.563,30.348l-87.393,151.369
				c-10.842,18.779-10.842,41.917,0,60.696l87.393,151.369c10.842,18.779,30.88,30.348,52.563,30.348h174.786
				c21.685,0,41.722-11.568,52.563-30.348l87.394-151.369c10.842-18.779,10.842-41.917,0-60.696l-87.394-151.369
				C1554.375,239.416,1534.338,227.848,1512.653,227.848z"/>
			<path fill="#91B3FA" d="M1337.867,622.927c-11.27,0-21.771-6.063-27.405-15.822l-87.394-151.37
				c-5.634-9.76-5.634-21.886,0-31.646l87.393-151.369c5.635-9.76,16.136-15.823,27.405-15.823h174.786
				c11.271,0,21.771,6.063,27.405,15.822l87.394,151.369c5.635,9.76,5.635,21.886,0,31.646l-87.393,151.368
				c-5.635,9.761-16.136,15.823-27.406,15.823H1337.867z"/>
		</g>
		<g>
			<path fill="#BDD0FB" d="M568.407,1399.032c-76.311,15.258-173.763-67.939-205.157-158.831
				c-32.308-93.535,26.929-132.719,26.472-262.512c-0.519-147.44-77.215-169.661-127.947-368.399
				c-11.447-44.839-77.684-304.32,4.412-352.957c75.905-44.971,289.116,84.089,326.486,249.276
				c26.646,117.786-55.726,167.24-24.266,304.426c27.604,120.371,100.151,122.112,127.947,238.246
				C730.193,1189.664,668.604,1379,568.407,1399.032z"/>
			<path fill="#7D97F4" d="M562.865,1434.753c20.571-158.855-19.56-403.933-56.848-581.554
				c-40.37-192.306-86.189-349.165-86.647-350.728l-6.351,1.864c0.458,1.56,46.215,158.211,86.532,350.271
				c37.178,177.104,77.202,421.371,56.75,579.299L562.865,1434.753z"/>
		</g>
		<g>
			<path fill="#91B3FA" d="M478.553,1399.788c86.523-45.082,116.139-199.891,66.956-250.204
				c-33.232-33.995-80.888,1.762-126.864-33.478c-58.7-44.993-15.519-129.732-61.67-239.632
				C317.7,782.948,223.492,694.45,168.441,712.608c-57.626,19.008-87.979,160.041-38.764,244.918
				c32.005,55.196,80.996,57.907,91.624,109.244c12.332,59.567-47.249,86.733-47.574,144.483
				C173.144,1314.992,364.089,1459.43,478.553,1399.788z"/>
			<path fill="#7D97F4" d="M431.863,1439.435c0.516,0,1.04-0.114,1.536-0.354c1.751-0.851,2.482-2.958,1.632-4.709
				c-114.706-236.364-148.342-510.568-148.669-513.311c-0.229-1.933-1.985-3.314-3.916-3.082c-1.932,0.229-3.313,1.982-3.083,3.915
				c0.328,2.755,34.108,278.136,149.326,515.554C429.299,1438.703,430.555,1439.435,431.863,1439.435z"/>
			<path fill="#BDD0FB" d="M196.526,992.072c0.362,0,0.727-0.117,1.035-0.355c0.733-0.572,0.865-1.63,0.294-2.363
				c-36.207-46.475-76.335-116.297-61.89-185.007c8.602-40.921,32.817-62.264,33.061-62.475c0.703-0.608,0.78-1.671,0.172-2.375
				c-0.61-0.704-1.674-0.781-2.376-0.171c-1.03,0.89-25.319,22.305-34.153,64.328c-8.12,38.622-3.862,102.55,62.528,187.768
				C195.529,991.848,196.026,992.072,196.526,992.072z"/>
			<path fill="#F0F0F0" d="M486.354,1379.147c0.537,0,1.065-0.257,1.391-0.732c55.643-81.206,74.617-143.954,56.396-186.496
				c-16.2-37.824-57.104-44.864-57.515-44.931c-0.92-0.143-1.782,0.475-1.932,1.393c-0.149,0.916,0.474,1.783,1.392,1.933
				c0.393,0.063,39.53,6.849,54.976,42.972c17.707,41.414-1.166,103.06-56.095,183.226c-0.526,0.769-0.331,1.815,0.437,2.343
				C485.694,1379.052,486.025,1379.147,486.354,1379.147z"/>
		</g>
		<g>
			
				<linearGradient id="XMLID_26_" gradientUnits="userSpaceOnUse" x1="952.8062" y1="2115.8359" x2="223.7346" y2="2571.8811" gradientTransform="matrix(0.9764 -0.2161 0.2161 0.9764 -991.4473 130.6687)">
				<stop  offset="0" style="stop-color:#FE7062"/>
				<stop  offset="1" style="stop-color:#FF928E"/>
			</linearGradient>
			<path fill="url(#XMLID_26_)" d="M1371.387,1226.982c-131.446,37.522-190.281-332.414-189.753-341.411L980.098,1121.21
				c0,0,120.083,211.302,301.411,233.792c45.877,5.689,84.897-2.248,117.632-17.243
				C1375.024,1298.264,1369.515,1259.252,1371.387,1226.982z"/>
			
				<linearGradient id="XMLID_27_" gradientUnits="userSpaceOnUse" x1="2062.6914" y1="1597.3691" x2="2422.377" y2="1597.3691" gradientTransform="matrix(0.9764 -0.2161 0.2161 0.9764 -991.4473 130.6687)">
				<stop  offset="0" style="stop-color:#FF928E"/>
				<stop  offset="1" style="stop-color:#FEB3B1"/>
			</linearGradient>
			<path fill="url(#XMLID_27_)" d="M1614.809,1105.898c-57.289-23.543-105.888,23.439-105.888,23.439
				c-56.769,58.106-101.791,87.44-137.534,97.645c-1.872,32.27,3.638,71.281,27.754,110.776
				c70.824-32.445,112.111-98.04,129.116-130.771c6.123-11.783,20.479-16.773,32.433-10.993
				c12.145,5.871,24.658,14.828,25.442,26.995c1.545,23.995,30.099,25.409,30.267,16.548c0.166-8.863-22.113-56.254-22.113-56.254
				s65.826,42.224,91.449,58.375c25.623,16.152,47.447-10.503,47.447-10.503S1672.098,1129.442,1614.809,1105.898z"/>
			<linearGradient id="XMLID_28_" gradientUnits="userSpaceOnUse" x1="649.1426" y1="1144.6572" x2="-79.9306" y2="1600.7035">
				<stop  offset="0" style="stop-color:#FE7062"/>
				<stop  offset="1" style="stop-color:#FF928E"/>
			</linearGradient>
			<path fill="url(#XMLID_28_)" d="M553.046,733.347c0,0,176.64-120.508,603.261,97.438c0,0,43.934,55.694,23.354,118.478
				c-20.581,62.785-273.882,352.938-283.724,512.456c0,0-173.156,101.925-397.93,0.878
				C498.007,1462.596,422.629,1091.025,553.046,733.347z"/>
			
				<linearGradient id="XMLID_29_" gradientUnits="userSpaceOnUse" x1="1663.4131" y1="962.8135" x2="1902.0557" y2="962.8135" gradientTransform="matrix(0.9764 -0.2161 0.2161 0.9764 -991.4473 130.6687)">
				<stop  offset="0" style="stop-color:#FF928E"/>
				<stop  offset="1" style="stop-color:#FEB3B1"/>
			</linearGradient>
			<path fill="url(#XMLID_29_)" d="M920.873,579.276l-69.807,136.787c-6.932,13.581-5.483,30.018,4.029,41.935
				c19.224,24.083,59.352,56.456,127.837,35.592c20.373-6.208,35.962-22.78,40.874-43.504l36.185-152.681L920.873,579.276z"/>
			<linearGradient id="XMLID_30_" gradientUnits="userSpaceOnUse" x1="538.1636" y1="967.2363" x2="-190.91" y2="1423.2828">
				<stop  offset="0" style="stop-color:#FE7062"/>
				<stop  offset="1" style="stop-color:#FF928E"/>
			</linearGradient>
			<path fill="url(#XMLID_30_)" d="M422.237,1210.993c-11.956-83.149,207.764-244.31,207.764-244.31l-76.956-233.337
				c0,0-419.275,299.209-331.101,543.558c12.641,35.028,31.493,60.548,54.481,78.633
				C320.826,1264.479,381.039,1226.637,422.237,1210.993z"/>
			<linearGradient id="XMLID_31_" gradientUnits="userSpaceOnUse" x1="912.6089" y1="898.8994" x2="726.5906" y2="1180.9274">
				<stop  offset="0" style="stop-color:#FF928E"/>
				<stop  offset="1" style="stop-color:#FEB3B1"/>
			</linearGradient>
			<path fill="url(#XMLID_31_)" d="M728.772,1234.066c0,0-248.549,69.42-300.115-6.239c-3.497-5.133-5.55-10.784-6.42-16.834
				c-41.199,15.644-101.411,53.486-145.811,144.544c118.009,92.838,345.544-11.23,407.369-42.426
				c10.17-5.133,21.864-6.134,32.739-2.741c21.988,6.862,60.091,17.517,81.321,16.351c31.057-1.707,64.394,110.531,117.251,82.117
				C915.107,1408.838,891.083,1217.08,728.772,1234.066z"/>
			<g>
				<linearGradient id="XMLID_32_" gradientUnits="userSpaceOnUse" x1="1562.6611" y1="600.7271" x2="1220.6265" y2="600.7271">
					<stop  offset="0" style="stop-color:#FF928E"/>
					<stop  offset="1" style="stop-color:#FEB3B1"/>
				</linearGradient>
				<path fill="url(#XMLID_32_)" d="M1191.033,497.661c0.16,3.931-77.726,252.058-77.726,252.058l-140.733-47.481l38.879-246.142
					C1011.454,456.096,1188.37,431.864,1191.033,497.661z"/>
				
					<linearGradient id="XMLID_33_" gradientUnits="userSpaceOnUse" x1="1438.1992" y1="-446.8901" x2="1794.5762" y2="-446.8901" gradientTransform="matrix(0.9992 -0.0404 0.0404 0.9992 -510.2151 1110.7292)">
					<stop  offset="0" style="stop-color:#09005D"/>
					<stop  offset="1" style="stop-color:#1A0F91"/>
				</linearGradient>
				<path fill="url(#XMLID_33_)" d="M1038.171,514.596l-30.614,127.971c-0.393,1.641-0.561,3.284-0.495,4.971
					c0.404,10.321,4.396,45.726,40.37,39.432c32.643-5.71,62.519-10.437,81.97-2.219c8.733,3.69,13.232,13.386,10.391,22.431
					c-7.082,22.542-23.98,73.045-45.356,114.681c-4.338,8.449-14.456,12.077-23.252,8.497
					c-26.507-10.79-81.774-35.105-121.655-65.084c-5.403-4.063-8.189-10.682-7.211-17.371
					c4.762-32.612,18.87-131.785,18.526-160.029c-0.322-26.509-30.854-45.522-44.242-52.592c-4.389-2.318-7.607-6.296-8.963-11.071
					c-4.796-16.878-9.842-55.309,39.016-65.801c10.226-2.196,16.541-12.325,14.035-22.479c-4.989-20.215-4.872-50.265,33.39-62.879
					c38.889-12.821,64.604,9.858,77.931,27.508c5.388,7.138,15.012,9.133,23.021,5.157c4.56-2.263,10.167-2.582,16.402,2.258
					c8.401,6.521,20.686,3.935,26.3-5.097c10.789-17.351,30.948-35.05,66.694-25.062c63.431,17.724,63.359,90.032,41.998,130.204
					c-21.362,40.173-89.04,17.048-121.637-7.68c-24.783-18.802-60.823-5.497-76.674,1.962
					C1043.092,504.668,1039.462,509.199,1038.171,514.596z"/>
				
					<linearGradient id="XMLID_34_" gradientUnits="userSpaceOnUse" x1="1229.0977" y1="-229.5356" x2="1468.3925" y2="-475.0457" gradientTransform="matrix(0.9992 -0.0404 0.0404 0.9992 -510.2151 1110.7292)">
					<stop  offset="0" style="stop-color:#FF928E"/>
					<stop  offset="1" style="stop-color:#FEB3B1"/>
				</linearGradient>
				<path fill="url(#XMLID_34_)" d="M950.162,634.581c0,0,34.218-71.595,8.824-92.615c-25.395-21.021-66.763-15.738-63.428,39.031
					C899.707,649.121,950.162,634.581,950.162,634.581z"/>
			</g>
		</g>
		<g>
			<g>
				<path fill="#BDD0FB" d="M195.621,1417.474c-1.15-7.554,0.416-15.366,4.272-21.302c3.855-5.935,9.597-9.372,15.658-9.372
					h2052.466c7.968,0,15.386,5.157,19.679,13.683c4.294,8.524,4.869,19.239,1.527,28.425l-22.242,61.13
					c-5.093,14-16.128,22.963-28.271,22.963H229.633c-11.295,0-21.005-10.172-23.15-24.258L195.621,1417.474z"/>
			</g>
		</g>
		<g opacity="0.76">
			<path fill="#FFFFFF" d="M712.611,1033.544c-13.815,0-25.717-10.307-27.511-24.188c-12.143-93.989-73.451-568.201-87.896-674.002
				c-1.058-7.744,1.219-15.616,6.246-21.598c5.029-5.985,12.396-9.586,20.212-9.879l788.177-29.532
				c7.604-0.3,14.811,2.464,20.291,7.743c5.48,5.28,8.499,12.378,8.499,19.988v657.525c0,14.568-11.388,26.731-25.924,27.691
				l-700.255,46.19C713.834,1033.523,713.22,1033.544,712.611,1033.544z M1412.891,291.799c-0.132,0-0.265,0.002-0.397,0.008
				l-788.177,29.532c-2.94,0.111-5.599,1.41-7.489,3.659c-1.887,2.245-2.708,5.083-2.311,7.992l0,0
				c14.454,105.86,75.769,580.128,87.914,674.127c0.693,5.362,5.458,9.297,10.869,8.931l700.254-46.191
				c5.384-0.354,9.602-4.859,9.602-10.255V302.076c0-2.818-1.118-5.447-3.147-7.402
				C1418.074,292.812,1415.56,291.799,1412.891,291.799z"/>
			
				<rect x="1412.799" y="1046.327" transform="matrix(0.8745 0.4851 -0.4851 0.8745 706.3856 -627.1598)" fill="#FFFFFF" width="304.176" height="9.709"/>
			<path fill="#FFFFFF" d="M1013.08,1098.543c-13.868,0-25.764-10.34-27.51-24.289c-12.408-99.079-53.777-429.096-65.178-515.886
				l0,0c-1.013-7.715,1.284-15.549,6.301-21.496c5.02-5.951,12.362-9.536,20.144-9.836l584.374-22.595
				c7.62-0.294,14.824,2.452,20.312,7.731c5.489,5.28,8.512,12.383,8.512,19.999v503.28c0,14.539-11.362,26.702-25.866,27.688
				l-519.178,35.339C1014.349,1098.521,1013.712,1098.543,1013.08,1098.543z M937.717,556.093
				c11.407,86.838,52.782,416.899,65.192,515.99c0.676,5.397,5.473,9.308,10.893,8.962l519.178-35.338
				c5.372-0.365,9.58-4.871,9.58-10.256v-503.28c0-2.82-1.12-5.451-3.152-7.406c-2.031-1.956-4.701-2.956-7.522-2.863
				l-584.374,22.595c-2.926,0.113-5.577,1.407-7.463,3.644C938.164,550.372,937.336,553.196,937.717,556.093L937.717,556.093z"/>
			
				<rect x="479.932" y="697.823" transform="matrix(0.8152 0.5792 -0.5792 0.8152 619.5682 -536.4181)" fill="#FFFFFF" width="1340.876" height="9.708"/>
			
				<rect x="684.327" y="1128.842" transform="matrix(0.9731 0.2304 -0.2304 0.9731 292.3311 -235.8999)" fill="#FFFFFF" width="943.736" height="9.708"/>
			
				<rect x="1214.108" y="630.355" transform="matrix(0.4566 0.8896 -0.8896 0.4566 1436.765 -1082.0338)" fill="#FFFFFF" width="780.19" height="9.707"/>
		</g>
		<g>
			
				<linearGradient id="XMLID_35_" gradientUnits="userSpaceOnUse" x1="10402.1289" y1="1840.9111" x2="9934.2871" y2="1969.1343" gradientTransform="matrix(-0.9988 -0.0494 -0.0494 0.9988 11428.2129 -86.7981)">
				<stop  offset="0" style="stop-color:#09005D"/>
				<stop  offset="1" style="stop-color:#1A0F91"/>
			</linearGradient>
			<path fill="url(#XMLID_35_)" d="M1046.141,1392.319c0.443,0.022,0.888,0.033,1.336,0.03l580.662-0.634
				c14.354-0.013,25.978-11.661,25.963-26.016c-0.014-14.359-11.705-26.221-26.021-25.963l-580.662,0.634
				c-14.354,0.012-25.978,11.661-25.963,26.015C1021.472,1380.293,1032.407,1391.641,1046.141,1392.319z"/>
			<linearGradient id="XMLID_36_" gradientUnits="userSpaceOnUse" x1="2087.3301" y1="1557.4131" x2="1676.2871" y2="1011.356">
				<stop  offset="0" style="stop-color:#09005D"/>
				<stop  offset="1" style="stop-color:#1A0F91"/>
			</linearGradient>
			<path fill="url(#XMLID_36_)" d="M2150.128,865.114h-483.579c-35.674,0-68.145,20.586-83.36,52.853l-223.559,474.042h600.961
				c22.989,0,43.644-14.046,52.093-35.427l173.36-438.656C2196.061,892.581,2177.382,865.114,2150.128,865.114z"/>
			
				<ellipse transform="matrix(-0.9519 -0.3064 0.3064 -0.9519 3259.5369 2751.3354)" fill="#7D97F4" cx="1845.707" cy="1119.843" rx="38.098" ry="61.929"/>
		</g>
		<g>
			<g>
				<g>
					<circle fill="#91B3FA" cx="1795.244" cy="532.41" r="10.259"/>
					<circle fill="#91B3FA" cx="1795.244" cy="532.41" r="9.917"/>
				</g>
				<g>
					<circle fill="#91B3FA" cx="1795.244" cy="594.596" r="10.259"/>
					<circle fill="#91B3FA" cx="1795.244" cy="594.596" r="9.917"/>
				</g>
				<g>
					<circle fill="#91B3FA" cx="1795.244" cy="656.781" r="10.259"/>
					<circle fill="#91B3FA" cx="1795.244" cy="656.781" r="9.917"/>
				</g>
				<path fill="#91B3FA" d="M1821.282,531.944l0.047,1.747c0.128,4.729,3.082,8.482,6.692,8.501l274.745,0.416
					c3.728,0.019,6.755-3.941,6.748-8.828l0,0c-0.006-4.792-2.932-8.699-6.586-8.796l-274.792-2.164
					C1824.277,522.718,1821.146,526.888,1821.282,531.944z"/>
				<path fill="#91B3FA" d="M1821.282,593.826l0.047,1.747c0.128,4.729,3.082,8.482,6.692,8.501l274.745,0.416
					c3.728,0.02,6.755-3.941,6.748-8.828l0,0c-0.006-4.792-2.932-8.7-6.586-8.796l-274.792-2.164
					C1824.277,584.601,1821.146,588.77,1821.282,593.826z"/>
				<path fill="#91B3FA" d="M1821.282,655.708l0.047,1.747c0.128,4.729,3.082,8.482,6.692,8.5l274.745,0.417
					c3.728,0.019,6.755-3.941,6.748-8.828l0,0c-0.006-4.792-2.932-8.7-6.586-8.796l-274.792-2.164
					C1824.277,646.482,1821.146,650.651,1821.282,655.708z"/>
			</g>
		</g>
		<g>
			<g>
				<path fill="#91B3FA" d="M2122.508,441.267h-365.743c-1.116,0-2.021-0.904-2.021-2.021V212.93c0-1.115,0.904-2.021,2.021-2.021
					h365.743c1.116,0,2.021,0.905,2.021,2.021v226.316C2124.528,440.362,2123.624,441.267,2122.508,441.267z M1758.785,437.226
					h361.702V214.951h-361.702V437.226z"/>
				<g>
					<path fill="#91B3FA" d="M1948.393,407.589c-73.831,0-132.247-67.303-134.697-70.168c-2.265-2.646-2.265-6.548,0-9.193
						c2.45-2.865,60.866-70.169,134.697-70.169c73.832,0,132.247,67.304,134.698,70.169c2.265,2.646,2.265,6.547,0,9.193
						C2080.64,340.286,2022.225,407.589,1948.393,407.589z M1828.688,332.824c5.822,6.061,17.331,17.25,32.681,28.316
						c20.444,14.737,52.137,32.304,87.023,32.304c34.888,0,66.58-17.567,87.023-32.304c15.35-11.065,26.859-22.255,32.682-28.316
						c-5.82-6.059-17.331-17.25-32.682-28.316c-20.443-14.736-52.136-32.304-87.023-32.304c-34.887,0-66.579,17.568-87.023,32.304
						C1846.02,315.573,1834.511,326.763,1828.688,332.824z M1819.069,332.824h0.02H1819.069z"/>
					<path fill="#91B3FA" d="M1948.393,393.444c-33.426,0-60.62-27.194-60.62-60.62s27.194-60.621,60.62-60.621
						c33.427,0,60.621,27.195,60.621,60.621S1981.819,393.444,1948.393,393.444z M1948.393,286.349
						c-25.626,0-46.476,20.849-46.476,46.476c0,25.626,20.85,46.476,46.476,46.476c25.627,0,46.476-20.849,46.476-46.476
						C1994.868,307.197,1974.02,286.349,1948.393,286.349z"/>
					<circle fill="#91B3FA" cx="1948.393" cy="332.824" r="29.3"/>
				</g>
			</g>
		</g>
		<path fill="#BDD0FB" d="M1966.047,843.145c-1.675,0-3.031-1.357-3.031-3.031V717.862h-229.347c-1.675,0-3.031-1.356-3.031-3.031
			V494.577c0-1.674,1.356-3.031,3.031-3.031c1.674,0,3.03,1.357,3.03,3.031V711.8h229.348c1.674,0,3.031,1.357,3.031,3.031v125.282
			C1969.078,841.787,1967.721,843.145,1966.047,843.145z"/>
		<g>
			<g>
				<g>
					<circle fill="#BDD0FB" cx="618.098" cy="892.091" r="10.258"/>
					<circle fill="#BDD0FB" cx="618.098" cy="892.091" r="9.917"/>
				</g>
				<g>
					<circle fill="#BDD0FB" cx="618.098" cy="954.276" r="10.258"/>
					<circle fill="#BDD0FB" cx="618.098" cy="954.277" r="9.917"/>
				</g>
				<g>
					<circle fill="#BDD0FB" cx="618.098" cy="1016.462" r="10.258"/>
					<circle fill="#BDD0FB" cx="618.098" cy="1016.462" r="9.917"/>
				</g>
				<path fill="#BDD0FB" d="M592.06,891.625l-0.047,1.747c-0.128,4.729-3.082,8.482-6.692,8.501l-274.745,0.416
					c-3.728,0.02-6.755-3.941-6.749-8.828l0,0c0.006-4.791,2.932-8.699,6.586-8.796l274.792-2.163
					C589.065,882.399,592.197,886.568,592.06,891.625z"/>
				<path fill="#BDD0FB" d="M592.06,953.508l-0.047,1.746c-0.128,4.73-3.082,8.482-6.692,8.501l-274.745,0.417
					c-3.728,0.019-6.755-3.941-6.749-8.828l0,0c0.006-4.792,2.932-8.7,6.586-8.797l274.792-2.163
					C589.065,944.281,592.197,948.451,592.06,953.508z"/>
				<path fill="#BDD0FB" d="M592.06,1015.39l-0.047,1.747c-0.128,4.729-3.082,8.482-6.692,8.5l-274.745,0.417
					c-3.728,0.019-6.755-3.941-6.749-8.828l0,0c0.006-4.792,2.932-8.699,6.586-8.796l274.792-2.164
					C589.065,1006.164,592.197,1010.333,592.06,1015.39z"/>
			</g>
		</g>
		<g>
			<g>
				<g>
					<path fill="#7D97F4" d="M409.716,448.153c-0.61,0-1.212-0.274-1.61-0.797c-0.676-0.889-0.503-2.156,0.385-2.832
						c2.159-1.643,4.398-3.25,6.655-4.775c0.922-0.626,2.182-0.384,2.805,0.542c0.625,0.924,0.383,2.181-0.542,2.805
						c-2.194,1.485-4.372,3.048-6.471,4.646C410.573,448.019,410.143,448.153,409.716,448.153z"/>
					<path fill="#7D97F4" d="M646.066,568c-0.012,0-0.024,0-0.036,0c-1.116-0.02-2.005-0.94-1.986-2.055
						c0.015-0.843,0.022-1.686,0.022-2.53c0-4.17-0.185-8.394-0.547-12.556c-0.098-1.111,0.725-2.091,1.837-2.188
						c1.109-0.116,2.092,0.726,2.188,1.837c0.374,4.278,0.563,8.62,0.563,12.906c0,0.867-0.008,1.733-0.023,2.599
						C648.066,567.118,647.165,568,646.066,568z M641.282,528.22c-0.898,0-1.717-0.602-1.954-1.511
						c-0.492-1.88-1.023-3.759-1.595-5.636c-0.893-2.934-1.891-5.88-2.968-8.755c-0.392-1.044,0.139-2.209,1.184-2.601
						c1.042-0.39,2.209,0.138,2.601,1.185c1.106,2.954,2.132,5.98,3.048,8.996c0.587,1.928,1.134,3.857,1.638,5.79
						c0.282,1.08-0.364,2.184-1.443,2.465C641.622,528.198,641.45,528.22,641.282,528.22z M626.022,491.179
						c-0.696,0-1.373-0.359-1.749-1.003c-2.522-4.333-5.304-8.581-8.266-12.625c-0.66-0.899-0.465-2.165,0.436-2.824
						c0.901-0.66,2.165-0.464,2.824,0.436c3.046,4.158,5.905,8.525,8.5,12.979c0.561,0.965,0.234,2.202-0.729,2.764
						C626.717,491.091,626.367,491.179,626.022,491.179z M601.31,459.654c-0.506,0-1.013-0.188-1.405-0.568
						c-3.599-3.484-7.425-6.819-11.373-9.913c-0.878-0.689-1.032-1.959-0.343-2.838c0.689-0.877,1.96-1.03,2.838-0.343
						c4.056,3.181,7.99,6.608,11.688,10.189c0.802,0.776,0.823,2.056,0.048,2.857C602.366,459.447,601.838,459.654,601.31,459.654z
						 M569.004,435.967c-0.326,0-0.655-0.078-0.961-0.244c-4.412-2.391-8.995-4.577-13.623-6.498
						c-1.031-0.429-1.52-1.61-1.092-2.642c0.429-1.03,1.609-1.516,2.641-1.092c4.757,1.974,9.467,4.222,14,6.68
						c0.98,0.532,1.346,1.758,0.813,2.739C570.417,435.584,569.721,435.967,569.004,435.967z M437.974,431.316
						c-0.77,0-1.504-0.442-1.842-1.189c-0.46-1.017-0.009-2.214,1.008-2.674c4.681-2.117,9.541-4.02,14.445-5.654
						c1.061-0.358,2.203,0.22,2.556,1.277c0.354,1.059-0.219,2.203-1.278,2.557c-4.773,1.591-9.502,3.442-14.058,5.503
						C438.536,431.258,438.252,431.316,437.974,431.316z M531.525,421.816c-0.149,0-0.301-0.016-0.453-0.051
						c-4.893-1.119-9.896-1.991-14.872-2.594c-1.108-0.134-1.897-1.141-1.763-2.248c0.135-1.108,1.153-1.891,2.249-1.764
						c5.115,0.619,10.258,1.517,15.289,2.667c1.087,0.249,1.768,1.332,1.519,2.42C533.279,421.183,532.447,421.816,531.525,421.816z
						 M476.373,419.87c-0.979,0-1.838-0.712-1.994-1.709c-0.171-1.104,0.583-2.137,1.687-2.308
						c5.097-0.792,10.29-1.325,15.436-1.582c1.102-0.038,2.063,0.802,2.118,1.917c0.056,1.115-0.802,2.063-1.917,2.118
						c-5.005,0.251-10.057,0.769-15.015,1.541C476.582,419.862,476.477,419.87,476.373,419.87z"/>
					<path fill="#7D97F4" d="M641.776,600.693c-0.162,0-0.326-0.019-0.489-0.06c-1.083-0.27-1.743-1.365-1.474-2.449
						c0.635-2.556,1.208-5.175,1.705-7.78c0.208-1.097,1.266-1.816,2.363-1.607c1.096,0.209,1.815,1.267,1.607,2.363
						c-0.51,2.679-1.099,5.37-1.752,8C643.506,600.079,642.682,600.693,641.776,600.693z"/>
				</g>
				<g>
					<path fill="#7D97F4" d="M570.784,693.855c-0.708,0-1.395-0.373-1.766-1.034c-0.545-0.975-0.196-2.206,0.778-2.751
						c2.314-1.294,4.618-2.666,6.847-4.079c0.942-0.598,2.191-0.32,2.788,0.625c0.597,0.941,0.318,2.19-0.625,2.788
						c-2.29,1.453-4.658,2.863-7.038,4.193C571.456,693.772,571.117,693.855,570.784,693.855z"/>
					<path fill="#7D97F4" d="M499.016,712.64c-4.944,0.025-9.799-0.229-14.661-0.705c-1.111-0.109-1.923-1.097-1.814-2.208
						c0.107-1.108,1.08-1.91,2.207-1.813c4.729,0.462,9.545,0.703,14.262,0.685c0.843,0,1.683-0.01,2.525-0.026
						c1.162-0.021,2.037,0.868,2.059,1.983c0.021,1.115-0.866,2.036-1.982,2.058C500.746,712.63,499.881,712.64,499.016,712.64z
						 M529.042,709.477c-0.936,0-1.774-0.653-1.975-1.604c-0.23-1.091,0.469-2.163,1.56-2.394c4.188-0.884,8.391-1.966,12.491-3.215
						c1.25-0.381,2.492-0.775,3.724-1.186c1.056-0.355,2.203,0.217,2.556,1.276c0.353,1.058-0.219,2.202-1.278,2.556
						c-1.264,0.422-2.54,0.829-3.823,1.219c-4.214,1.285-8.533,2.396-12.835,3.303C529.32,709.462,529.18,709.477,529.042,709.477z
						 M457.412,706.672c-0.189,0-0.381-0.025-0.571-0.083c-5.501-1.618-10.97-3.576-16.253-5.817
						c-1.027-0.436-1.506-1.622-1.07-2.65c0.436-1.028,1.623-1.505,2.649-1.071c5.142,2.182,10.462,4.087,15.815,5.664
						c1.07,0.313,1.683,1.438,1.368,2.508C459.09,706.102,458.285,706.672,457.412,706.672z M417.047,687.801
						c-0.386,0-0.775-0.11-1.12-0.339c-4.769-3.183-9.405-6.68-13.779-10.39c-0.85-0.722-0.955-1.997-0.233-2.85
						c0.721-0.849,1.996-0.955,2.848-0.232c4.255,3.611,8.767,7.013,13.408,10.109c0.929,0.62,1.178,1.875,0.559,2.802
						C418.341,687.485,417.7,687.801,417.047,687.801z M384.162,657.768c-0.59,0-1.175-0.258-1.575-0.753
						c-3.6-4.467-6.976-9.193-10.032-14.047c-0.595-0.944-0.311-2.191,0.634-2.786c0.945-0.591,2.192-0.312,2.786,0.633
						c2.974,4.722,6.257,9.319,9.759,13.664c0.701,0.869,0.564,2.142-0.305,2.842C385.056,657.621,384.607,657.768,384.162,657.768z
						 M361.81,619.235c-0.808,0-1.57-0.487-1.882-1.285c-1.427-3.64-2.727-7.383-3.864-11.125c-0.535-1.756-1.036-3.517-1.504-5.278
						c-0.285-1.079,0.357-2.185,1.436-2.471c1.082-0.286,2.185,0.358,2.472,1.436c0.454,1.714,0.941,3.427,1.462,5.137
						c1.108,3.643,2.373,7.285,3.761,10.827c0.408,1.039-0.105,2.211-1.145,2.619C362.305,619.19,362.055,619.235,361.81,619.235z
						 M351.947,575.781c-1.051,0-1.937-0.812-2.014-1.876c-0.251-3.517-0.38-7.082-0.38-10.596c0-2.218,0.05-4.462,0.15-6.668
						c0.051-1.116,1.034-1.975,2.109-1.928c1.115,0.05,1.978,0.994,1.928,2.109c-0.097,2.146-0.146,4.328-0.146,6.486
						c0,3.418,0.125,6.886,0.37,10.308c0.08,1.113-0.757,2.08-1.872,2.16C352.045,575.779,351.996,575.781,351.947,575.781z"/>
					<path fill="#7D97F4" d="M355.594,531.291c-0.156,0-0.314-0.018-0.472-0.055c-1.085-0.26-1.755-1.35-1.496-2.436
						c0.632-2.645,1.346-5.306,2.12-7.909c0.318-1.07,1.443-1.677,2.513-1.36c1.069,0.318,1.679,1.443,1.36,2.513
						c-0.753,2.533-1.448,5.122-2.063,7.696C357.335,530.668,356.508,531.291,355.594,531.291z"/>
				</g>
				<g>
					<path fill="#7D97F4" d="M395.333,517.771c-0.375,0.653-0.295,1.474,0.2,2.042l14.132,16.21
						c-2.889,9.619-4.264,19.768-3.917,30.098l-17.79,12.059c-0.625,0.423-0.911,1.195-0.714,1.923l6.722,24.904
						c0.196,0.728,0.833,1.251,1.585,1.302l21.441,1.47c4.898,9.101,11.193,17.179,18.529,24.039l-4.055,21.12
						c-0.143,0.74,0.201,1.489,0.854,1.865l22.363,12.856c0.654,0.376,1.474,0.296,2.042-0.199l16.211-14.132
						c9.619,2.889,19.768,4.263,30.097,3.917l12.059,17.79c0.423,0.624,1.195,0.911,1.923,0.714l24.905-6.722
						c0.728-0.196,1.25-0.833,1.302-1.585l1.47-21.441c9.101-4.898,17.18-11.192,24.039-18.528l21.12,4.056
						c0.74,0.142,1.489-0.202,1.865-0.855l12.856-22.363c0.376-0.654,0.295-1.474-0.2-2.042l-14.131-16.21
						c2.888-9.619,4.263-19.768,3.917-30.097l17.79-12.059c0.624-0.422,0.911-1.194,0.714-1.922l-6.722-24.905
						c-0.196-0.728-0.833-1.25-1.585-1.302l-21.441-1.469c-4.898-9.102-11.193-17.18-18.529-24.04l4.056-21.119
						c0.143-0.74-0.201-1.489-0.854-1.865l-22.363-12.856c-0.653-0.375-1.474-0.296-2.042,0.2l-16.21,14.131
						c-9.619-2.889-19.768-4.264-30.097-3.917l-12.059-17.791c-0.422-0.623-1.195-0.911-1.923-0.714l-24.904,6.722
						c-0.728,0.197-1.251,0.833-1.303,1.585l-1.469,21.441c-9.101,4.898-17.179,11.193-24.039,18.529l-21.119-4.055
						c-0.741-0.142-1.489,0.201-1.865,0.854L395.333,517.771z"/>
					<g>
						<g>
							<path fill="#91B3FA" d="M499.99,588.988c-2.36,0-4.735-0.326-7.068-0.982c-6.669-1.879-12.206-6.241-15.594-12.284
								c-3.387-6.042-4.219-13.043-2.341-19.712c1.878-6.668,6.24-12.207,12.283-15.594c12.48-6.992,28.314-2.531,35.306,9.942
								c6.993,12.476,2.533,28.313-9.942,35.306C508.705,587.865,504.373,588.988,499.99,588.988z M499.918,543.17
								c-3.288,0-6.619,0.815-9.685,2.534c-4.63,2.595-7.973,6.839-9.412,11.949c-1.438,5.11-0.802,10.474,1.795,15.105l0,0
								c2.596,4.63,6.838,7.973,11.949,9.413c5.112,1.438,10.473,0.802,15.104-1.794c4.63-2.595,7.973-6.839,9.412-11.949
								c1.439-5.11,0.802-10.474-1.794-15.105C513.647,546.829,506.88,543.17,499.918,543.17z"/>
						</g>
					</g>
					<g>
						<path fill="#91B3FA" d="M500.342,628.576c-11.271,0-22.394-2.945-32.428-8.713c-15.116-8.69-25.942-22.747-30.486-39.579
							v-0.001c-1.085-4.021-1.788-8.138-2.094-12.26c-0.019-0.253-0.036-0.507-0.051-0.76c-0.015-0.234-0.029-0.468-0.041-0.702
							l6.054-0.312c0.215,4.181,0.882,8.371,1.984,12.454v-0.001c7.553,27.981,34.076,45.879,61.972,43.594
							c3.331-0.272,6.68-0.833,10.021-1.697c0.202-0.052,0.401-0.105,0.603-0.16c26.374-7.118,43.788-31.078,43.79-57.177
							c0-5.095-0.663-10.271-2.052-15.42c-8.509-31.522-41.081-50.248-72.596-41.737c-10.365,2.799-19.759,8.339-27.167,16.023
							l-4.365-4.207c8.171-8.476,18.528-14.585,29.951-17.669c34.75-9.378,70.649,11.262,80.03,46.01
							c1.531,5.677,2.262,11.382,2.262,17c-0.003,28.771-19.199,55.184-48.273,63.031
							C511.798,627.82,506.051,628.576,500.342,628.576z"/>
					</g>
				</g>
			</g>
		</g>
		<g>
			<g>
				<g>
					<path fill="#7D97F4" d="M313.12,362.174c-0.61,0-1.213-0.275-1.611-0.798c-0.675-0.888-0.502-2.156,0.387-2.832
						c2.196-1.668,4.506-3.236,6.865-4.658c0.952-0.575,2.196-0.269,2.773,0.688c0.576,0.955,0.268,2.197-0.688,2.774
						c-2.234,1.348-4.424,2.833-6.506,4.415C313.976,362.04,313.546,362.174,313.12,362.174z"/>
					<path fill="#7D97F4" d="M432.166,403.673c-0.902,0-1.723-0.607-1.957-1.52c-0.275-1.073-0.575-2.146-0.901-3.218
						c-1.371-4.501-3.17-8.875-5.348-13.001c-0.521-0.986-0.143-2.209,0.844-2.73c0.988-0.522,2.209-0.143,2.73,0.844
						c2.298,4.353,4.195,8.965,5.64,13.712c0.343,1.129,0.661,2.26,0.95,3.391c0.277,1.082-0.375,2.181-1.457,2.458
						C432.5,403.653,432.332,403.673,432.166,403.673z M407.589,364.524c-0.458,0-0.919-0.155-1.298-0.474
						c-4.443-3.73-9.333-6.939-14.533-9.536c-0.999-0.499-1.404-1.712-0.905-2.71c0.497-0.998,1.71-1.407,2.71-0.905
						c5.484,2.738,10.642,6.121,15.327,10.057c0.854,0.718,0.966,1.992,0.248,2.847
						C408.737,364.278,408.166,364.524,407.589,364.524z M346.967,347.708c-0.975,0-1.833-0.707-1.993-1.699
						c-0.178-1.102,0.572-2.139,1.673-2.317c6.037-0.973,12.24-1.225,18.324-0.745c1.113,0.087,1.944,1.061,1.856,2.173
						c-0.089,1.112-1.048,1.938-2.174,1.856c-5.769-0.455-11.646-0.215-17.363,0.705
						C347.181,347.699,347.073,347.708,346.967,347.708z"/>
					<path fill="#7D97F4" d="M432.326,440.53c-0.162,0-0.325-0.019-0.488-0.059c-1.083-0.268-1.744-1.365-1.475-2.448
						c0.628-2.536,1.128-5.134,1.482-7.721c0.152-1.106,1.173-1.883,2.276-1.728c1.106,0.152,1.88,1.17,1.728,2.276
						c-0.374,2.729-0.9,5.469-1.563,8.145C434.057,439.916,433.232,440.53,432.326,440.53z"/>
				</g>
				<g>
					<path fill="#7D97F4" d="M392.376,490.215c-0.746,0-1.463-0.415-1.815-1.129c-0.493-1.001-0.08-2.212,0.921-2.705
						c2.35-1.157,4.658-2.45,6.858-3.847c0.941-0.595,2.191-0.318,2.789,0.625c0.597,0.943,0.318,2.191-0.625,2.789
						c-2.323,1.472-4.759,2.838-7.239,4.06C392.979,490.148,392.675,490.215,392.376,490.215z"/>
					<path fill="#7D97F4" d="M358.87,498.035c-3.923,0-7.883-0.304-11.769-0.904c-1.103-0.169-1.86-1.201-1.689-2.305
						c0.17-1.103,1.21-1.861,2.305-1.689c5.639,0.869,11.438,1.075,17.073,0.617c1.095-0.096,2.087,0.738,2.177,1.85
						c0.091,1.112-0.737,2.087-1.85,2.178C363.054,497.95,360.953,498.035,358.87,498.035z M320.632,487.622
						c-0.347,0-0.698-0.088-1.021-0.277c-5.198-3.048-10.04-6.698-14.389-10.852c-0.807-0.771-0.836-2.049-0.066-2.856
						c0.77-0.809,2.05-0.838,2.857-0.066c4.124,3.937,8.714,7.398,13.643,10.287c0.963,0.564,1.286,1.803,0.721,2.766
						C322.001,487.265,321.325,487.622,320.632,487.622z M290.142,453.902c-0.767,0-1.5-0.439-1.839-1.182
						c-1.432-3.135-2.671-6.41-3.683-9.734c-0.743-2.438-1.372-4.932-1.869-7.41c-0.22-1.094,0.489-2.159,1.583-2.379
						c1.102-0.219,2.16,0.491,2.379,1.584c0.472,2.35,1.067,4.714,1.772,7.027c0.961,3.154,2.136,6.261,3.494,9.233
						c0.463,1.016,0.017,2.214-0.999,2.678C290.708,453.844,290.423,453.902,290.142,453.902z"/>
					<path fill="#7D97F4" d="M284.505,408.727c-0.122,0-0.245-0.011-0.369-0.034c-1.097-0.203-1.822-1.256-1.62-2.354
						c0.5-2.708,1.152-5.42,1.939-8.063c0.318-1.07,1.446-1.681,2.513-1.36c1.07,0.319,1.68,1.443,1.361,2.513
						c-0.746,2.506-1.365,5.079-1.838,7.645C286.311,408.046,285.461,408.727,284.505,408.727z"/>
				</g>
				<g>
					<path fill="#7D97F4" d="M305.731,396.953c-0.193,0.336-0.152,0.757,0.103,1.049l7.259,8.327
						c-1.484,4.941-2.19,10.154-2.012,15.46l-9.138,6.194c-0.321,0.217-0.468,0.614-0.367,0.988l3.453,12.793
						c0.102,0.374,0.428,0.642,0.814,0.669l11.014,0.755c2.516,4.675,5.75,8.824,9.518,12.348l-2.083,10.849
						c-0.073,0.38,0.103,0.765,0.438,0.958l11.488,6.604c0.335,0.193,0.757,0.152,1.048-0.103l8.327-7.259
						c4.941,1.483,10.154,2.189,15.46,2.012l6.194,9.139c0.217,0.32,0.614,0.468,0.988,0.367l12.793-3.453
						c0.374-0.101,0.643-0.428,0.669-0.814l0.755-11.014c4.675-2.516,8.825-5.75,12.348-9.518l10.849,2.083
						c0.38,0.073,0.765-0.104,0.958-0.439l6.604-11.487c0.193-0.336,0.152-0.757-0.103-1.049l-7.259-8.327
						c1.484-4.941,2.19-10.154,2.012-15.461l9.138-6.194c0.321-0.217,0.468-0.613,0.367-0.987l-3.453-12.793
						c-0.101-0.374-0.428-0.643-0.814-0.669l-11.014-0.755c-2.516-4.675-5.75-8.825-9.518-12.349l2.083-10.849
						c0.074-0.38-0.103-0.765-0.439-0.958l-11.487-6.604c-0.336-0.193-0.757-0.152-1.049,0.103l-8.327,7.259
						c-4.941-1.484-10.154-2.19-15.46-2.012l-6.194-9.139c-0.217-0.32-0.614-0.468-0.988-0.367l-12.792,3.453
						c-0.374,0.101-0.643,0.428-0.669,0.814l-0.755,11.014c-4.675,2.516-8.824,5.75-12.348,9.518l-10.849-2.083
						c-0.38-0.073-0.765,0.104-0.958,0.439L305.731,396.953z"/>
					<g>
						<g>
							<path fill="#91B3FA" d="M359.497,435.001c-5.185,0-10.222-2.724-12.932-7.559c-3.989-7.117-1.445-16.153,5.672-20.144
								c3.448-1.932,7.442-2.403,11.246-1.335c3.805,1.071,6.964,3.561,8.896,7.008c1.933,3.447,2.408,7.441,1.336,11.246
								c-1.071,3.804-3.56,6.963-7.008,8.897C364.425,434.394,361.943,435.001,359.497,435.001z M359.457,411.473
								c-1.446,0-2.909,0.358-4.257,1.114c-4.201,2.355-5.703,7.69-3.348,11.892c1.141,2.035,3.006,3.504,5.251,4.136
								c2.25,0.637,4.604,0.354,6.64-0.788c2.035-1.141,3.504-3.006,4.137-5.252c0.633-2.246,0.353-4.603-0.789-6.639
								C365.491,413.083,362.517,411.473,359.457,411.473z"/>
						</g>
					</g>
					<g>
						<path fill="#91B3FA" d="M359.67,455.346c-6.044,0-12.01-1.58-17.39-4.673c-8.106-4.66-13.912-12.198-16.348-21.225v0.001
							c-0.015-0.056-0.031-0.113-0.045-0.17c-0.603-2.275-0.977-4.608-1.113-6.941c-0.005-0.082-0.01-0.165-0.014-0.247l6.054-0.312
							c0.105,2.044,0.431,4.093,0.971,6.089c1.9,7.043,6.283,12.991,12.403,16.875c0.365,0.232,0.736,0.457,1.113,0.674
							c6.703,3.853,14.506,4.866,21.967,2.851c12.895-3.479,21.407-15.197,21.404-27.959c-0.001-2.486-0.326-5.013-1.003-7.526
							c-4.158-15.406-20.078-24.561-35.484-20.399c-5.066,1.367-9.657,4.074-13.277,7.831l-4.365-4.208
							c4.383-4.546,9.937-7.823,16.063-9.476c9.027-2.436,18.461-1.211,26.568,3.448c8.106,4.66,13.912,12.197,16.349,21.225
							c0.821,3.044,1.213,6.104,1.212,9.115c-0.001,15.43-10.296,29.594-25.886,33.802
							C365.814,454.94,362.731,455.346,359.67,455.346z"/>
					</g>
				</g>
			</g>
		</g>
		<g>
			<linearGradient id="XMLID_37_" gradientUnits="userSpaceOnUse" x1="1915.8223" y1="1267.3066" x2="2029.8223" y2="1457.3063">
				<stop  offset="0" style="stop-color:#FF928E"/>
				<stop  offset="1" style="stop-color:#FEB3B1"/>
			</linearGradient>
			<path fill="url(#XMLID_37_)" d="M1874.855,1401.512c0.177-0.067,95.255-166.572,108.103-182.241
				c2.162-2.636,5.507-3.978,8.892-3.574l26.538,3.162l31.176,67.446l-51.938-30.249c5.14,35.545-61.583,88.368-84.466,107.643
				c-2.322,1.956-2.513,5.46-0.416,7.655l9.136,9.563c-14.998,15.203-32.306,24.965-51.839,29.48L1874.855,1401.512z"/>
			
				<linearGradient id="XMLID_38_" gradientUnits="userSpaceOnUse" x1="-3053.0859" y1="-1986.0166" x2="-3064.5928" y2="-1809.5776" gradientTransform="matrix(0.8974 -0.4412 0.4412 0.8974 5487.7324 1782.8086)">
				<stop  offset="0" style="stop-color:#4042E2"/>
				<stop  offset="1" style="stop-color:#4F52FF"/>
			</linearGradient>
			<path fill="url(#XMLID_38_)" d="M1916.595,1375.756c0,0,5.83,1.883,7.805,7.076c0.944,2.484-0.074,5.298-2.234,6.846
				c-9.601,6.879-41.27,29.086-55.884,33.435c-1.197,0.356-2.337-0.728-2.068-1.947c0.75-3.396,3.176-10.175,10.991-20.099
				l-0.701,1.417c-0.887,1.796,1.067,3.664,2.812,2.68C1887.089,1399.646,1906.998,1387.568,1916.595,1375.756z"/>
			<linearGradient id="XMLID_39_" gradientUnits="userSpaceOnUse" x1="2198.5391" y1="1299.1973" x2="2093.5393" y2="1318.1971">
				<stop  offset="0" style="stop-color:#FF928E"/>
				<stop  offset="1" style="stop-color:#FEB3B1"/>
			</linearGradient>
			<path fill="url(#XMLID_39_)" d="M1911.89,1442.378c0.159-0.103,14.424-34.472,14.584-34.573
				c13.078-79.632,44.989-147.83,54.399-165.775c1.584-3.018,4.588-5.01,7.984-5.3l26.629-2.272l44.181,59.74l-56.986-19.111
				c12.228,33.769-42.425,99.002-60.934,122.509c-1.878,2.386-1.356,5.855,1.143,7.581l10.882,7.517
				c-11.611,17.923-26.584,30.985-44.8,39.36L1911.89,1442.378z"/>
			
				<linearGradient id="XMLID_40_" gradientUnits="userSpaceOnUse" x1="-2196.4751" y1="-3233.4204" x2="-2207.9814" y2="-3056.99" gradientTransform="matrix(0.7895 -0.6137 0.6137 0.7895 5616.3145 2595.021)">
				<stop  offset="0" style="stop-color:#4042E2"/>
				<stop  offset="1" style="stop-color:#4F52FF"/>
			</linearGradient>
			<path fill="url(#XMLID_40_)" d="M1947.552,1408.707c0,0,6.091,0.664,9.075,5.351c1.428,2.241,1,5.204-0.802,7.157
				c-8.011,8.679-34.53,36.835-47.961,44.052c-1.102,0.592-2.437-0.239-2.42-1.489c0.047-3.476,1.051-10.606,6.696-21.907
				l-0.399,1.53c-0.506,1.938,1.786,3.373,3.295,2.056C1923.491,1438.074,1940.544,1422.218,1947.552,1408.707z"/>
			<g>
				<linearGradient id="XMLID_41_" gradientUnits="userSpaceOnUse" x1="2071.0693" y1="1249.8096" x2="2124.6174" y2="1347.8126">
					<stop  offset="0" style="stop-color:#4042E2"/>
					<stop  offset="1" style="stop-color:#4F52FF"/>
				</linearGradient>
				<path fill="url(#XMLID_41_)" d="M2140.133,1221.875c0,0,24.089,35.829,26.065,52.173c1.977,16.345-6.661,21.996-31.875,24.08
					c-75.03,6.202-112.017-16.284-112.017-16.284c-5.133-32.725-8.785-41.051-51.651-58.844c0,0,54.218,4.304,65.131,0.07
					C2046.697,1218.835,2140.133,1221.875,2140.133,1221.875z"/>
			</g>
			<g>
				<linearGradient id="XMLID_42_" gradientUnits="userSpaceOnUse" x1="2010.9746" y1="1015.8633" x2="2232.2285" y2="1067.3881">
					<stop  offset="0" style="stop-color:#E1473D"/>
					<stop  offset="1" style="stop-color:#E9605A"/>
				</linearGradient>
				<path fill="url(#XMLID_42_)" d="M2035.708,1063.403c-13.667-0.113-27.893,3.473-33.719-4.678
					c-8.569-11.988,4.472-44.546,26.33-53.022c22.819-8.848,38.688,14.967,63.077,6.235c19.051-6.821,17.581-24.296,35.339-37.481
					c29.46-21.877,88.239-14.428,110.22,14.717c35.932,47.644-25.746,154.248-72.486,155.533
					C2123.008,1145.848,2099.909,1063.934,2035.708,1063.403z"/>
				
					<linearGradient id="XMLID_43_" gradientUnits="userSpaceOnUse" x1="11132.6426" y1="1098.6406" x2="10779.2773" y2="1439.498" gradientTransform="matrix(-1 0 0 1 13155.9824 0)">
					<stop  offset="0" style="stop-color:#FE7062"/>
					<stop  offset="1" style="stop-color:#FF928E"/>
				</linearGradient>
				<path fill="url(#XMLID_43_)" d="M2074.985,1217.132c0,0-28.052-26.712-41.86-44.403c-7.464-9.563-9.809-22.154-6.356-33.783
					c6.305-21.24,17.509-43.238,18.53-46.662c1.565-5.248,33.02-5.029,33.02-5.029s61.895,40.17,86.213,108.216l-27.312,8.502
					c0,0-16.16-27.112-32.128-44.351c0,0,27.63,36.501,28.603,51.443L2074.985,1217.132z"/>
				<linearGradient id="XMLID_44_" gradientUnits="userSpaceOnUse" x1="2151.0029" y1="1068.3174" x2="2125.0032" y2="1141.3169">
					<stop  offset="0" style="stop-color:#FF928E"/>
					<stop  offset="1" style="stop-color:#FEB3B1"/>
				</linearGradient>
				<path fill="url(#XMLID_44_)" d="M2021.538,1227.672l21.077-22.934l24.344,6.556c0,0,28.38,4.397,44.623,0
					c16.243-4.396,16.243-4.396,16.243-4.396l36.706-11.428l5.766,16.292c1.464,4.137-0.008,8.729-3.584,11.271
					c-3.176,2.257-6.898,4.736-9.271,5.774c-4.834,2.115-111.353,0.669-111.353,0.669L2021.538,1227.672z"/>
				<linearGradient id="XMLID_45_" gradientUnits="userSpaceOnUse" x1="2044.1758" y1="1041.6582" x2="2084.176" y2="1142.6587">
					<stop  offset="0" style="stop-color:#FF928E"/>
					<stop  offset="1" style="stop-color:#FEB3B1"/>
				</linearGradient>
				<path fill="url(#XMLID_45_)" d="M2056.701,1049.436l21.14,39.311c-1.396,8.582-23.009,8.824-26.347,3.699
					c-0.34-0.521-0.535-1.124-0.663-1.733l-12.646-26.266c-0.543-2.562,6.479-11.192,8.79-12.422l8.402-4.473
					C2058.613,1045.83,2045.111,1045.693,2056.701,1049.436z"/>
				<g>
					
						<linearGradient id="XMLID_46_" gradientUnits="userSpaceOnUse" x1="-7049.416" y1="3569.1748" x2="-7056.916" y2="3499.1763" gradientTransform="matrix(0.5458 -0.8379 0.8379 0.5458 5824.7471 -5306.4175)">
						<stop  offset="0" style="stop-color:#FF928E"/>
						<stop  offset="1" style="stop-color:#FEB3B1"/>
					</linearGradient>
					<path fill="url(#XMLID_46_)" d="M2013.918,1040.21c0,0-2.387,13.281,8.052,30.168s20.834,16.124,26.115,10.102
						c5.28-6.022,11.606-16.052,8.729-32.894C2053.936,1030.743,2017.522,1023.273,2013.918,1040.21z"/>
					<linearGradient id="XMLID_47_" gradientUnits="userSpaceOnUse" x1="2007.3174" y1="1031.5723" x2="2228.5701" y2="1083.0968">
						<stop  offset="0" style="stop-color:#E1473D"/>
						<stop  offset="1" style="stop-color:#E9605A"/>
					</linearGradient>
					<path fill="url(#XMLID_47_)" d="M2044.177,1049.416c0,0-16.903-22.202-29.881-2.848l0.22,6.686c0,0-9.698,5.342-7.868-10.212
						s8.43-32.311,27.529-26.996c19.1,5.313,30.26,11.366,32.417,24.627s-8.671,11.094-8.671,11.094s-4.136-9.149-9.131-9.774
						c-4.994-0.625-3.189,6.613-3.189,6.613L2044.177,1049.416z"/>
					
						<linearGradient id="XMLID_48_" gradientUnits="userSpaceOnUse" x1="-7030.2432" y1="3567.1533" x2="-7037.7432" y2="3497.1538" gradientTransform="matrix(0.5458 -0.8379 0.8379 0.5458 5824.7471 -5306.4175)">
						<stop  offset="0" style="stop-color:#FF928E"/>
						<stop  offset="1" style="stop-color:#FEB3B1"/>
					</linearGradient>
					<path fill="url(#XMLID_48_)" d="M2048.056,1048.823c0,0-8.756-11.362-0.786-13.72c7.97-2.358,7.673,11.133,7.153,16.152
						L2048.056,1048.823z"/>
				</g>
			</g>
			<g>
				<path fill="#7D97F4" d="M2091.31,1236.748c-0.074,0.005-0.148,0.006-0.223,0.006l-96.951-0.106
					c-2.396-0.001-4.338-1.946-4.335-4.343c0.002-2.397,1.954-4.379,4.345-4.335l96.95,0.105c2.396,0.002,4.338,1.947,4.335,4.344
					C2095.429,1234.741,2093.603,1236.636,2091.31,1236.748z"/>
				<path fill="#91B3FA" d="M1906.981,1148.724h80.741c5.956,0,11.377,3.438,13.918,8.824l37.327,79.149h-100.34
					c-3.839,0-7.287-2.346-8.698-5.915l-28.945-73.241C1899.313,1153.31,1902.431,1148.724,1906.981,1148.724z"/>
				
					<ellipse transform="matrix(0.9519 -0.3064 0.3064 0.9519 -270.8486 657.225)" fill="#7D97F4" cx="1957.809" cy="1191.254" rx="6.361" ry="10.341"/>
			</g>
			<path opacity="0.39" fill="#FFFFFF" d="M2118.153,1051.535c-0.258,0-0.515-0.004-0.772-0.011
				c-10.082-0.303-20.43-5.197-31.633-14.963c-17.446-15.21-24.091-17.706-37.875-17.706c-0.4,0-0.807,0.002-1.221,0.007
				l-0.005-0.562c0.391-0.003,0.774-0.005,1.154-0.005c13.793,0,20.841,2.608,38.313,17.843
				c11.102,9.677,21.334,14.526,31.283,14.824c10.729,0.316,21.913-6.271,30.64-18.094c3.805-5.156,6.989-10.86,10.067-16.378
				c2.887-5.171,5.87-10.518,9.367-15.419c2.548-3.571,6.58-8.633,12.173-11.353c5.565-2.711,11.906-2.45,16.148,0.657l-0.331,0.453
				c-4.077-2.987-10.188-3.225-15.572-0.606c-5.477,2.665-9.45,7.653-11.962,11.175c-3.479,4.875-6.455,10.21-9.333,15.367
				c-3.088,5.531-6.28,11.252-10.106,16.437C2139.862,1044.894,2128.847,1051.535,2118.153,1051.535z"/>
			<path opacity="0.39" fill="#FFFFFF" d="M2121.386,1065.67c-1.057,0-2.1-0.059-3.127-0.179c-6.56-0.761-14.204-4.769-16.5-12.004
				l0.534-0.169c2.221,6.996,9.651,10.876,16.031,11.617c8.251,0.956,17.555-2.039,26.211-8.436
				c5.706-4.213,10.722-9.436,15.573-14.485c1.606-1.672,3.269-3.402,4.932-5.07c7.319-7.341,15.296-14.127,23.709-20.171
				c5.572-4.002,11.633-7.683,18.284-7.683c0.223,0,0.444,0.005,0.668,0.013c3.987,0.148,8.15,2.324,10.606,5.541
				c1.894,2.482,2.59,5.334,1.959,8.034l-0.546-0.128c0.592-2.533-0.069-5.221-1.859-7.565c-2.357-3.089-6.354-5.178-10.182-5.321
				c-6.764-0.248-12.927,3.488-18.604,7.565c-8.389,6.025-16.342,12.792-23.64,20.111c-1.658,1.664-3.318,3.393-4.924,5.063
				c-4.866,5.067-9.9,10.307-15.645,14.549C2137.171,1062.639,2128.951,1065.67,2121.386,1065.67z"/>
			<path opacity="0.39" fill="#FFFFFF" d="M2128.01,1074.135c-2.565,0-5.162-0.504-7.652-1.762l0.253-0.502
				c8.928,4.511,19.623-1.265,23.805-3.958c4.69-3.02,9.095-6.699,13.353-10.257c7.038-5.881,14.316-11.962,23.039-15.162
				c4.464-1.639,8.561-2.173,12.174-1.593c4.457,0.718,8.219,3.22,10.065,6.694l-0.495,0.262c-1.766-3.319-5.375-5.713-9.66-6.401
				c-3.509-0.564-7.517-0.039-11.891,1.564c-8.631,3.167-15.871,9.216-22.872,15.066c-4.272,3.569-8.689,7.259-13.408,10.298
				C2140.911,1070.835,2134.565,1074.135,2128.01,1074.135z"/>
		</g>
		<g>
			<path fill="#7D97F4" d="M2148.544,1292.746h-77.443c-9.608,0-18.486,5.125-23.291,13.446l-38.722,67.068
				c-4.804,8.321-4.804,18.572,0,26.894l38.722,67.068c4.805,8.32,13.683,13.446,23.291,13.446h77.443
				c9.608,0,18.486-5.126,23.29-13.446l38.723-67.068c4.804-8.321,4.804-18.572,0-26.894l-38.723-67.068
				C2167.03,1297.871,2158.152,1292.746,2148.544,1292.746z"/>
			<path fill="#91B3FA" d="M2071.101,1467.798c-4.994,0-9.646-2.687-12.144-7.011l-38.722-67.068c-2.497-4.324-2.497-9.697,0-14.022
				l38.722-67.068c2.497-4.324,7.149-7.011,12.144-7.011h77.443c4.994,0,9.646,2.687,12.144,7.011l38.722,67.069
				c2.497,4.324,2.497,9.697,0,14.021l-38.722,67.068c-2.497,4.324-7.149,7.011-12.144,7.011H2071.101z"/>
		</g>
		<g>
			<path fill="#7D97F4" d="M2328.385,1181.608h-77.444c-9.607,0-18.486,5.126-23.29,13.446l-38.722,67.068
				c-4.804,8.321-4.804,18.572,0,26.894l38.722,67.068c4.804,8.321,13.683,13.446,23.29,13.446h77.444
				c9.608,0,18.486-5.125,23.29-13.446l38.723-67.068c4.804-8.321,4.804-18.572,0-26.894l-38.723-67.068
				C2346.871,1186.734,2337.993,1181.608,2328.385,1181.608z"/>
			<path fill="#91B3FA" d="M2250.94,1356.66c-4.993,0-9.646-2.686-12.143-7.01l-38.723-67.069
				c-2.496-4.324-2.496-9.697,0.001-14.022l38.722-67.068c2.496-4.324,7.149-7.01,12.143-7.01h77.444
				c4.993,0,9.646,2.686,12.143,7.01l38.723,67.069c2.496,4.324,2.496,9.697,0,14.021l-38.722,67.068
				c-2.497,4.325-7.15,7.011-12.144,7.011H2250.94z"/>
		</g>
	</g>
</g>
</svg>
